Lexend-Thin.ufo
<glyph name="exclam" format="2">
  <advance width="254"/>
  <unicode hex="0021"/>
  <outline>
    <contour>
      <point x="140" y="241" type="qcurve"/>
      <point x="124" y="241" type="line"/>
      <point x="120" y="335"/>
      <point x="121" y="537"/>
      <point x="121" y="630" type="qcurve"/>
      <point x="121" y="700" type="line"/>
      <point x="143" y="700" type="line"/>
      <point x="143" y="630" type="line"/>
      <point x="143" y="537"/>
      <point x="144" y="335"/>
    </contour>
    <contour>
      <point x="160" y="28" type="qcurve"/>
      <point x="160" y="13"/>
      <point x="144" y="-8"/>
      <point x="129" y="-8" type="qcurve"/>
      <point x="114" y="-8"/>
      <point x="98" y="11"/>
      <point x="98" y="28" type="qcurve"/>
      <point x="98" y="44"/>
      <point x="115" y="64"/>
      <point x="129" y="64" type="qcurve"/>
      <point x="145" y="64"/>
      <point x="160" y="45"/>
    </contour>
  </outline>
</glyph>
<glyph name="quotedbl" format="2">
  <advance width="328"/>
  <unicode hex="0022"/>
  <note>
quotedbl
</note>
  <outline>
    <contour>
      <point x="80" y="442" type="line"/>
      <point x="128" y="700" type="line"/>
      <point x="155" y="700" type="line"/>
      <point x="97" y="442" type="line"/>
    </contour>
    <contour>
      <point x="173" y="442" type="line"/>
      <point x="221" y="700" type="line"/>
      <point x="248" y="700" type="line"/>
      <point x="190" y="442" type="line"/>
    </contour>
  </outline>
</glyph>
<glyph name="ampersand" format="2">
  <advance width="656"/>
  <unicode hex="0026"/>
  <outline>
    <contour>
      <point x="315" y="-10" type="qcurve"/>
      <point x="197" y="-10"/>
      <point x="50" y="113"/>
      <point x="50" y="221" type="qcurve"/>
      <point x="50" y="283"/>
      <point x="117" y="390"/>
      <point x="183" y="422" type="qcurve"/>
      <point x="195" y="404" type="line"/>
      <point x="139" y="379"/>
      <point x="73" y="279"/>
      <point x="73" y="221" type="qcurve"/>
      <point x="73" y="129"/>
      <point x="211" y="12"/>
      <point x="319" y="12" type="qcurve"/>
      <point x="441" y="12"/>
      <point x="597" y="184"/>
      <point x="614" y="329" type="qcurve"/>
      <point x="636" y="329" type="line"/>
      <point x="618" y="178"/>
      <point x="455" y="-10"/>
    </contour>
    <contour>
      <point x="569" y="0" type="line"/>
      <point x="540" y="0" type="line"/>
      <point x="491" y="53" type="line"/>
      <point x="478" y="66" type="line"/>
      <point x="253" y="309" type="line"/>
      <point x="176" y="393"/>
      <point x="128" y="470"/>
      <point x="128" y="526" type="qcurve"/>
      <point x="128" y="604"/>
      <point x="236" y="703"/>
      <point x="323" y="703" type="qcurve"/>
      <point x="391" y="703"/>
      <point x="482" y="639"/>
      <point x="507" y="578" type="qcurve"/>
      <point x="488" y="567" type="line"/>
      <point x="461" y="627"/>
      <point x="383" y="681"/>
      <point x="323" y="681" type="qcurve"/>
      <point x="244" y="681"/>
      <point x="151" y="594"/>
      <point x="151" y="528" type="qcurve"/>
      <point x="151" y="478"/>
      <point x="191" y="413"/>
      <point x="255" y="343" type="qcurve"/>
      <point x="498" y="78" type="line"/>
      <point x="505" y="70" type="line"/>
    </contour>
  </outline>
</glyph>
<glyph name="period" format="2">
  <advance width="228"/>
  <unicode hex="002E"/>
  <outline>
    <contour>
      <point x="144" y="26" type="qcurve"/>
      <point x="144" y="13"/>
      <point x="128" y="-5"/>
      <point x="114" y="-5" type="qcurve"/>
      <point x="100" y="-5"/>
      <point x="84" y="11"/>
      <point x="84" y="26" type="qcurve"/>
      <point x="84" y="40"/>
      <point x="100" y="57"/>
      <point x="114" y="57" type="qcurve"/>
      <point x="128" y="57"/>
      <point x="144" y="41"/>
    </contour>
  </outline>
</glyph>
<glyph name="slash" format="2">
  <advance width="566"/>
  <unicode hex="002F"/>
  <note>
slash
</note>
  <outline>
    <contour>
      <point x="99" y="-95" type="line"/>
      <point x="75" y="-95" type="line"/>
      <point x="469" y="700.0" type="line"/>
      <point x="493" y="700.0" type="line"/>
    </contour>
  </outline>
</glyph>
<glyph name="four" format="2">
  <advance width="620"/>
  <unicode hex="0034"/>
  <outline>
    <contour>
      <point x="456" y="0" type="line"/>
      <point x="434" y="0" type="line"/>
      <point x="434" y="681" type="line"/>
      <point x="448" y="681" type="line"/>
      <point x="57" y="204" type="line"/>
      <point x="54" y="212" type="line"/>
      <point x="578" y="212" type="line"/>
      <point x="578" y="190" type="line"/>
      <point x="46" y="190" type="line"/>
      <point x="35" y="212" type="line"/>
      <point x="436" y="700" type="line"/>
      <point x="456" y="700" type="line"/>
    </contour>
  </outline>
</glyph>
<glyph name="six" format="2">
  <advance width="605"/>
  <unicode hex="0036"/>
  <outline>
    <contour>
      <point x="525" y="222" type="qcurve"/>
      <point x="525" y="125"/>
      <point x="393" y="-10"/>
      <point x="297" y="-10" type="qcurve"/>
      <point x="203" y="-10"/>
      <point x="70" y="126"/>
      <point x="70" y="233" type="qcurve"/>
      <point x="68" y="290"/>
      <point x="110" y="426"/>
      <point x="158" y="501" type="qcurve"/>
      <point x="290" y="700" type="line"/>
      <point x="312" y="700" type="line"/>
      <point x="314" y="695" type="line"/>
      <point x="185" y="501" type="line"/>
      <point x="144" y="439"/>
      <point x="95" y="330"/>
      <point x="95" y="303" type="qcurve"/>
      <point x="89" y="306" type="line"/>
      <point x="124" y="382"/>
      <point x="233" y="455"/>
      <point x="297" y="455" type="qcurve"/>
      <point x="393" y="455"/>
      <point x="525" y="321"/>
    </contour>
    <contour>
      <point x="94" y="221" type="qcurve"/>
      <point x="94" y="133"/>
      <point x="213" y="12"/>
      <point x="300" y="12" type="qcurve"/>
      <point x="384" y="12"/>
      <point x="502" y="134"/>
      <point x="502" y="223" type="qcurve"/>
      <point x="502" y="311"/>
      <point x="384" y="433"/>
      <point x="300" y="433" type="qcurve"/>
      <point x="213" y="433"/>
      <point x="94" y="310"/>
    </contour>
  </outline>
</glyph>
<glyph name="less" format="2">
  <advance width="472"/>
  <unicode hex="003C"/>
  <outline>
    <contour>
      <point x="70" y="250" type="line"/>
      <point x="70" y="256" type="line"/>
      <point x="416" y="56" type="line"/>
      <point x="404" y="36" type="line"/>
      <point x="48" y="240" type="line"/>
      <point x="48" y="266" type="line"/>
      <point x="404" y="470" type="line"/>
      <point x="416" y="450" type="line"/>
    </contour>
  </outline>
</glyph>
<glyph name="greater" format="2">
  <advance width="470"/>
  <unicode hex="003E"/>
  <outline>
    <contour>
      <point x="402" y="256" type="line"/>
      <point x="402" y="250" type="line"/>
      <point x="56" y="450" type="line"/>
      <point x="68" y="470" type="line"/>
      <point x="424" y="266" type="line"/>
      <point x="424" y="240" type="line"/>
      <point x="68" y="36" type="line"/>
      <point x="56" y="56" type="line"/>
    </contour>
  </outline>
</glyph>
<glyph name="question" format="2">
  <advance width="438"/>
  <unicode hex="003F"/>
  <outline>
    <contour>
      <point x="186" y="146" type="line"/>
      <point x="184" y="315" type="line"/>
      <point x="277" y="337"/>
      <point x="375" y="448"/>
      <point x="375" y="522" type="qcurve"/>
      <point x="375" y="587"/>
      <point x="282" y="688"/>
      <point x="201" y="688" type="qcurve"/>
      <point x="143" y="688"/>
      <point x="44" y="624"/>
      <point x="18" y="547" type="qcurve"/>
      <point x="0" y="559" type="line"/>
      <point x="23" y="632"/>
      <point x="131" y="710"/>
      <point x="200" y="710" type="qcurve"/>
      <point x="288" y="710"/>
      <point x="398" y="601"/>
      <point x="398" y="522" type="qcurve"/>
      <point x="398" y="439"/>
      <point x="285" y="315"/>
      <point x="190" y="296" type="qcurve"/>
      <point x="208" y="306" type="line"/>
      <point x="206" y="146" type="line"/>
    </contour>
    <contour>
      <point x="226" y="20" type="qcurve"/>
      <point x="226" y="8"/>
      <point x="213" y="-10"/>
      <point x="200" y="-10" type="qcurve"/>
      <point x="187" y="-10"/>
      <point x="174" y="6"/>
      <point x="174" y="20" type="qcurve"/>
      <point x="174" y="33"/>
      <point x="188" y="50"/>
      <point x="200" y="50" type="qcurve"/>
      <point x="214" y="50"/>
      <point x="226" y="34"/>
    </contour>
  </outline>
</glyph>
<glyph name="K" format="2">
  <advance width="636"/>
  <unicode hex="004B"/>
  <outline>
    <contour>
      <point x="110" y="0" type="line"/>
      <point x="110" y="700" type="line"/>
      <point x="132" y="700" type="line"/>
      <point x="132" y="0" type="line"/>
    </contour>
    <contour>
      <point x="120" y="234" type="line"/>
      <point x="120" y="265" type="line"/>
      <point x="566" y="700" type="line"/>
      <point x="598" y="700" type="line"/>
    </contour>
    <contour>
      <point x="587" y="0" type="line"/>
      <point x="282" y="404" type="line"/>
      <point x="299" y="420" type="line"/>
      <point x="616" y="0" type="line"/>
    </contour>
  </outline>
</glyph>
<glyph name="L" format="2">
  <advance width="493"/>
  <unicode hex="004C"/>
  <outline>
    <contour>
      <point x="122" y="22" type="line"/>
      <point x="483" y="22" type="line"/>
      <point x="483" y="0" type="line"/>
      <point x="110" y="0" type="line"/>
      <point x="110" y="700" type="line"/>
      <point x="132" y="700" type="line"/>
      <point x="132" y="13" type="line"/>
    </contour>
  </outline>
</glyph>
<glyph name="T" format="2">
  <advance width="488"/>
  <unicode hex="0054"/>
  <note>
T
</note>
  <outline>
    <contour>
      <point x="255" y="0.0" type="line"/>
      <point x="233" y="0.0" type="line"/>
      <point x="233" y="688" type="line"/>
      <point x="255" y="688" type="line"/>
    </contour>
    <contour>
      <point x="468" y="678" type="line"/>
      <point x="20" y="678" type="line"/>
      <point x="20" y="700.0" type="line"/>
      <point x="468" y="700.0" type="line"/>
    </contour>
  </outline>
</glyph>
<glyph name="U" format="2">
  <advance width="744"/>
  <unicode hex="0055"/>
  <outline>
    <contour>
      <point x="612" y="700" type="line"/>
      <point x="634" y="700" type="line"/>
      <point x="634" y="269" type="line"/>
      <point x="634" y="149"/>
      <point x="484" y="-6"/>
      <point x="368" y="-6" type="qcurve"/>
      <point x="255" y="-6"/>
      <point x="111" y="149"/>
      <point x="110" y="269" type="qcurve"/>
      <point x="110" y="700" type="line"/>
      <point x="132" y="700" type="line"/>
      <point x="132" y="278" type="line"/>
      <point x="132" y="163"/>
      <point x="263" y="16"/>
      <point x="368" y="16" type="qcurve"/>
      <point x="476" y="16"/>
      <point x="612" y="163"/>
      <point x="612" y="278" type="qcurve"/>
    </contour>
  </outline>
</glyph>
<glyph name="V" format="2">
  <advance width="604"/>
  <unicode hex="0056"/>
  <note>
V
</note>
  <guideline x="790" y="35" angle="0" identifier="J7zmbBpod8"/>
  <outline>
    <contour>
      <point x="288" y="0" type="line"/>
      <point x="20" y="700" type="line"/>
      <point x="46" y="700" type="line"/>
      <point x="235" y="201" type="line" smooth="yes"/>
      <point x="260.74212848853966" y="133.03533272073395"/>
      <point x="303.81865415811706" y="18.453364604707353"/>
      <point x="308" y="8" type="qcurve"/>
      <point x="295" y="8" type="line"/>
      <point x="298.14649936064853" y="18.48833120216183"/>
      <point x="342.55405410901506" y="129.2974412036676"/>
      <point x="370" y="202" type="qcurve" smooth="yes"/>
      <point x="558" y="700" type="line"/>
      <point x="584" y="700" type="line"/>
      <point x="315" y="0" type="line"/>
    </contour>
  </outline>
</glyph>
<glyph name="Z" format="2">
  <advance width="634"/>
  <unicode hex="005A"/>
  <outline>
    <contour>
      <point x="86" y="700" type="line"/>
      <point x="563" y="700" type="line"/>
      <point x="563" y="677" type="line"/>
      <point x="78" y="10" type="line"/>
      <point x="75" y="22" type="line"/>
      <point x="574" y="22" type="line"/>
      <point x="574" y="0" type="line"/>
      <point x="60" y="0" type="line"/>
      <point x="60" y="24" type="line"/>
      <point x="545" y="692" type="line"/>
      <point x="557" y="678" type="line"/>
      <point x="86" y="678" type="line"/>
    </contour>
  </outline>
</glyph>
<glyph name="backslash" format="2">
  <advance width="521"/>
  <unicode hex="005C"/>
  <outline>
    <contour>
      <point x="457" y="-95" type="line"/>
      <point x="431" y="-95" type="line"/>
      <point x="37" y="700" type="line"/>
      <point x="63" y="700" type="line"/>
    </contour>
  </outline>
</glyph>
<glyph name="bracketright" format="2">
  <advance width="319"/>
  <unicode hex="005D"/>
  <outline>
    <contour>
      <point x="32" y="700" type="line"/>
      <point x="244" y="700" type="line"/>
      <point x="244" y="-190" type="line"/>
      <point x="32" y="-190" type="line"/>
      <point x="32" y="-168" type="line"/>
      <point x="231" y="-168" type="line"/>
      <point x="221" y="-176" type="line"/>
      <point x="221" y="690" type="line"/>
      <point x="232" y="678" type="line"/>
      <point x="32" y="678" type="line"/>
    </contour>
  </outline>
</glyph>
<glyph name="b" format="2">
  <advance width="604"/>
  <unicode hex="0062"/>
  <note>
b
</note>
  <outline>
    <contour>
      <point x="310" y="530" type="qcurve"/>
      <point x="420" y="530"/>
      <point x="564" y="379"/>
      <point x="564" y="262" type="qcurve"/>
      <point x="564.0" y="144.0"/>
      <point x="417.0" y="-10.0"/>
      <point x="314" y="-10" type="qcurve"/>
      <point x="234.0" y="-10.0"/>
      <point x="102.0" y="93.0"/>
      <point x="88" y="170" type="qcurve"/>
      <point x="94" y="167" type="line"/>
      <point x="92" y="0" type="line"/>
      <point x="72" y="0" type="line"/>
      <point x="72" y="740" type="line"/>
      <point x="94" y="740" type="line"/>
      <point x="94" y="348" type="line"/>
      <point x="85" y="345" type="line"/>
      <point x="105" y="426"/>
      <point x="229" y="530"/>
    </contour>
    <contour>
      <point x="542" y="262" type="qcurve"/>
      <point x="542" y="368"/>
      <point x="414" y="508"/>
      <point x="311" y="508" type="qcurve"/>
      <point x="219" y="508"/>
      <point x="94" y="370"/>
      <point x="94" y="260" type="qcurve"/>
      <point x="94.0" y="152.0"/>
      <point x="219.0" y="12.0"/>
      <point x="313" y="12" type="qcurve"/>
      <point x="414.0" y="12.0"/>
      <point x="542.0" y="153.0"/>
    </contour>
  </outline>
</glyph>
<glyph name="c" format="2">
  <advance width="526"/>
  <unicode hex="0063"/>
  <outline>
    <contour>
      <point x="306" y="508" type="qcurve"/>
      <point x="200" y="508"/>
      <point x="63" y="370"/>
      <point x="62" y="263" type="qcurve"/>
      <point x="63" y="153"/>
      <point x="200" y="12"/>
      <point x="306" y="12" type="qcurve"/>
      <point x="362" y="12"/>
      <point x="455" y="55"/>
      <point x="488" y="93" type="qcurve"/>
      <point x="504" y="77" type="line"/>
      <point x="468" y="37"/>
      <point x="368" y="-10"/>
      <point x="306" y="-10" type="qcurve"/>
      <point x="189" y="-10"/>
      <point x="40" y="144"/>
      <point x="40" y="263" type="qcurve"/>
      <point x="40" y="380"/>
      <point x="189" y="530"/>
      <point x="306" y="530" type="qcurve"/>
      <point x="369" y="530"/>
      <point x="471" y="483"/>
      <point x="506" y="443" type="qcurve"/>
      <point x="490" y="426" type="line"/>
      <point x="457" y="464"/>
      <point x="363" y="508"/>
    </contour>
  </outline>
</glyph>
<glyph name="x" format="2">
  <advance width="475"/>
  <unicode hex="0078"/>
  <outline>
    <contour>
      <point x="22" y="525" type="line"/>
      <point x="52" y="525" type="line"/>
      <point x="251" y="267" type="line"/>
      <point x="247" y="272" type="line"/>
      <point x="465" y="0" type="line"/>
      <point x="435" y="0" type="line"/>
      <point x="230" y="255" type="line"/>
      <point x="233" y="252" type="line"/>
    </contour>
    <contour>
      <point x="40" y="0" type="line"/>
      <point x="10" y="0" type="line"/>
      <point x="232" y="277" type="line"/>
      <point x="248" y="262" type="line"/>
    </contour>
    <contour>
      <point x="422" y="525" type="line"/>
      <point x="452" y="525" type="line"/>
      <point x="247" y="261" type="line"/>
      <point x="232" y="277" type="line"/>
    </contour>
  </outline>
</glyph>
<glyph name="braceright" format="2">
  <advance width="402"/>
  <unicode hex="007D"/>
  <outline>
    <contour>
      <point x="53" y="667" type="qcurve"/>
      <point x="59" y="686" type="line"/>
      <point x="125" y="671"/>
      <point x="201" y="584"/>
      <point x="201" y="507" type="qcurve"/>
      <point x="199" y="412" type="line"/>
      <point x="199" y="342"/>
      <point x="261" y="264"/>
      <point x="319" y="263" type="qcurve"/>
      <point x="339" y="263" type="line"/>
      <point x="339" y="237" type="line"/>
      <point x="319" y="237" type="line"/>
      <point x="260" y="236"/>
      <point x="199" y="159"/>
      <point x="199" y="88" type="qcurve"/>
      <point x="201" y="-7" type="line"/>
      <point x="201" y="-84"/>
      <point x="125" y="-171"/>
      <point x="59" y="-186" type="qcurve"/>
      <point x="53" y="-167" type="line"/>
      <point x="122" y="-149"/>
      <point x="179" y="-71"/>
      <point x="179" y="7" type="qcurve"/>
      <point x="177" y="102" type="line"/>
      <point x="177" y="160"/>
      <point x="222" y="237"/>
      <point x="267" y="251" type="qcurve"/>
      <point x="267" y="248" type="line"/>
      <point x="221" y="265"/>
      <point x="177" y="341"/>
      <point x="177" y="398" type="qcurve"/>
      <point x="179" y="493" type="line"/>
      <point x="179" y="571"/>
      <point x="122" y="649"/>
    </contour>
  </outline>
</glyph>
<glyph name="asciitilde" format="2">
  <advance width="510"/>
  <unicode hex="007E"/>
  <outline>
    <contour>
      <point x="359" y="251" type="qcurve"/>
      <point x="327" y="251"/>
      <point x="261" y="280"/>
      <point x="243" y="288" type="qcurve"/>
      <point x="224" y="296"/>
      <point x="174" y="317"/>
      <point x="150" y="317" type="qcurve"/>
      <point x="129" y="317"/>
      <point x="98" y="288"/>
      <point x="98" y="257" type="qcurve"/>
      <point x="76" y="257" type="line"/>
      <point x="76" y="295"/>
      <point x="120" y="339"/>
      <point x="149" y="339" type="qcurve"/>
      <point x="179" y="339"/>
      <point x="245" y="312"/>
      <point x="273" y="299" type="qcurve"/>
      <point x="287" y="293"/>
      <point x="335" y="273"/>
      <point x="358" y="273" type="qcurve"/>
      <point x="378" y="273"/>
      <point x="410" y="300"/>
      <point x="410" y="333" type="qcurve"/>
      <point x="432" y="333" type="line"/>
      <point x="432" y="294"/>
      <point x="388" y="251"/>
    </contour>
  </outline>
</glyph>
<glyph name="yen" format="2">
  <advance width="632"/>
  <unicode hex="00A5"/>
  <outline>
    <contour>
      <point x="494" y="149" type="line"/>
      <point x="156" y="149" type="line"/>
      <point x="156" y="171" type="line"/>
      <point x="494" y="171" type="line"/>
    </contour>
    <contour>
      <point x="494" y="299" type="line"/>
      <point x="156" y="299" type="line"/>
      <point x="156" y="321" type="line"/>
      <point x="494" y="321" type="line"/>
    </contour>
    <contour>
      <point x="570" y="700" type="line"/>
      <point x="597" y="700" type="line"/>
      <point x="327" y="300" type="line"/>
      <point x="336" y="339" type="line"/>
      <point x="336" y="0" type="line"/>
      <point x="314" y="0" type="line"/>
      <point x="314" y="339" type="line"/>
      <point x="322" y="300" type="line"/>
      <point x="45" y="700" type="line"/>
      <point x="72" y="700" type="line"/>
      <point x="330" y="327" type="line"/>
      <point x="319" y="327" type="line"/>
    </contour>
  </outline>
</glyph>
<glyph name="section" format="2">
  <advance width="539"/>
  <unicode hex="00A7"/>
  <note>
section
</note>
  <outline>
    <contour>
      <point x="279" y="415" type="qcurve" smooth="yes"/>
      <point x="369" y="383"/>
      <point x="459" y="325"/>
      <point x="459" y="269" type="qcurve" smooth="yes"/>
      <point x="459.0" y="225.95652173913044"/>
      <point x="416" y="159"/>
      <point x="353" y="134" type="qcurve"/>
      <point x="349" y="157" type="line"/>
      <point x="406" y="124"/>
      <point x="437.0" y="78.41592920353983"/>
      <point x="437" y="46" type="qcurve" smooth="yes"/>
      <point x="437" y="-20"/>
      <point x="341" y="-97"/>
      <point x="262" y="-97" type="qcurve" smooth="yes"/>
      <point x="191" y="-97"/>
      <point x="82" y="-42"/>
      <point x="57" y="-6" type="qcurve"/>
      <point x="75" y="10" type="line"/>
      <point x="106" y="-30"/>
      <point x="204" y="-75"/>
      <point x="262" y="-75" type="qcurve"/>
      <point x="329" y="-75"/>
      <point x="414" y="-11"/>
      <point x="414" y="46" type="qcurve"/>
      <point x="414" y="91"/>
      <point x="332" y="144"/>
      <point x="253" y="169" type="qcurve" smooth="yes"/>
      <point x="166" y="197"/>
      <point x="77" y="263"/>
      <point x="77" y="310" type="qcurve"/>
      <point x="77.0" y="354.31297709923666"/>
      <point x="134" y="421"/>
      <point x="204" y="439" type="qcurve"/>
      <point x="202" y="417" type="line"/>
      <point x="138" y="453"/>
      <point x="99" y="502"/>
      <point x="99" y="533" type="qcurve"/>
      <point x="99" y="593"/>
      <point x="190" y="665"/>
      <point x="266" y="665" type="qcurve" smooth="yes"/>
      <point x="321" y="665"/>
      <point x="420" y="623"/>
      <point x="456" y="581" type="qcurve"/>
      <point x="440" y="563" type="line"/>
      <point x="406" y="602"/>
      <point x="318" y="643"/>
      <point x="266" y="643" type="qcurve"/>
      <point x="205" y="643"/>
      <point x="122" y="583"/>
      <point x="122" y="534" type="qcurve" smooth="yes"/>
      <point x="122" y="497"/>
      <point x="202" y="442"/>
    </contour>
    <contour>
      <point x="100" y="311" type="qcurve" smooth="yes"/>
      <point x="100" y="283"/>
      <point x="146" y="233"/>
      <point x="192" y="216" type="qcurve" smooth="yes"/>
      <point x="333" y="164" type="line" smooth="yes"/>
      <point x="339.0400735407147" y="161.77245514810522"/>
      <point x="351" y="157"/>
      <point x="353" y="157" type="qcurve"/>
      <point x="389" y="169"/>
      <point x="436.0" y="226.6216216216216"/>
      <point x="436" y="269" type="qcurve"/>
      <point x="436" y="314"/>
      <point x="359" y="361"/>
      <point x="275" y="392" type="qcurve" smooth="yes"/>
      <point x="212" y="415" type="line" smooth="yes"/>
      <point x="207" y="417"/>
      <point x="196.87541966127804" y="415.29180655375933"/>
      <point x="193" y="414" type="qcurve" smooth="yes"/>
      <point x="151" y="404"/>
      <point x="100" y="350"/>
    </contour>
  </outline>
</glyph>
<glyph name="dieresis" format="2">
  <advance width="288"/>
  <unicode hex="00A8"/>
  <outline>
    <contour>
      <point x="96" y="683" type="qcurve"/>
      <point x="96" y="671"/>
      <point x="83" y="656"/>
      <point x="69" y="656" type="qcurve"/>
      <point x="57" y="656"/>
      <point x="42" y="671"/>
      <point x="42" y="683" type="qcurve"/>
      <point x="42" y="694"/>
      <point x="56" y="710"/>
      <point x="69" y="710" type="qcurve"/>
      <point x="83" y="710"/>
      <point x="96" y="695"/>
    </contour>
    <contour>
      <point x="246" y="683" type="qcurve"/>
      <point x="246" y="671"/>
      <point x="233" y="656"/>
      <point x="219" y="656" type="qcurve"/>
      <point x="207" y="656"/>
      <point x="192" y="671"/>
      <point x="192" y="683" type="qcurve"/>
      <point x="192" y="694"/>
      <point x="206" y="710"/>
      <point x="219" y="710" type="qcurve"/>
      <point x="233" y="710"/>
      <point x="246" y="695"/>
    </contour>
  </outline>
</glyph>
<glyph name="copyright" format="2">
  <advance width="786"/>
  <unicode hex="00A9"/>
  <note>
copyright
</note>
  <guideline x="727" y="521" angle="270" identifier="fUUwBXhN8f"/>
  <guideline x="622" y="685" angle="0" identifier="40NXphXu6D"/>
  <guideline x="541.0" y="707.0" angle="0" identifier="ciIh0zQXSY"/>
  <guideline x="750" y="554" angle="270" identifier="y97nRbHVZh"/>
  <outline>
    <contour>
      <point x="750" y="349" type="qcurve" smooth="yes"/>
      <point x="750" y="199"/>
      <point x="542" y="-8"/>
      <point x="392" y="-8" type="qcurve" smooth="yes"/>
      <point x="242" y="-8"/>
      <point x="35" y="199"/>
      <point x="35" y="349" type="qcurve" smooth="yes"/>
      <point x="35" y="499"/>
      <point x="242" y="707"/>
      <point x="392" y="707" type="qcurve" smooth="yes"/>
      <point x="542" y="707"/>
      <point x="750" y="499"/>
    </contour>
    <contour>
      <point x="58" y="350" type="qcurve" smooth="yes"/>
      <point x="58.0" y="209"/>
      <point x="252.0" y="14.0"/>
      <point x="393" y="14" type="qcurve" smooth="yes"/>
      <point x="533.0" y="14.0"/>
      <point x="727.0" y="209"/>
      <point x="727" y="350" type="qcurve" smooth="yes"/>
      <point x="727.0" y="490.0"/>
      <point x="533" y="685.0"/>
      <point x="393" y="685" type="qcurve" smooth="yes"/>
      <point x="252" y="685"/>
      <point x="58" y="490"/>
    </contour>
    <contour>
      <point x="398" y="142.0" type="qcurve" smooth="yes"/>
      <point x="312" y="142.0"/>
      <point x="194.0" y="260.0"/>
      <point x="194" y="350.0" type="qcurve" smooth="yes"/>
      <point x="194.0" y="436.0"/>
      <point x="312" y="557.0"/>
      <point x="398" y="557.0" type="qcurve" smooth="yes"/>
      <point x="432" y="557.0"/>
      <point x="498" y="534.0"/>
      <point x="527" y="512.0" type="qcurve"/>
      <point x="514" y="494" type="line"/>
      <point x="499" y="506"/>
      <point x="439.0" y="535.0"/>
      <point x="398" y="535" type="qcurve" smooth="yes"/>
      <point x="323" y="535.0"/>
      <point x="216.0" y="423.0"/>
      <point x="216" y="350.0" type="qcurve" smooth="yes"/>
      <point x="216.0" y="273.0"/>
      <point x="322" y="164.0"/>
      <point x="398" y="164" type="qcurve" smooth="yes"/>
      <point x="436.0" y="164.0"/>
      <point x="492" y="183"/>
      <point x="519" y="201" type="qcurve"/>
      <point x="531" y="185.0" type="line"/>
      <point x="501" y="164.0"/>
      <point x="433" y="142.0"/>
    </contour>
  </outline>
</glyph>
<glyph name="ordfeminine" format="2">
  <advance width="365"/>
  <unicode hex="00AA"/>
  <outline>
    <contour>
      <point x="176" y="402" type="qcurve"/>
      <point x="114" y="402"/>
      <point x="30" y="493"/>
      <point x="30" y="561" type="qcurve"/>
      <point x="30" y="629"/>
      <point x="114" y="721"/>
      <point x="176" y="721" type="qcurve"/>
      <point x="219" y="721"/>
      <point x="287" y="678"/>
      <point x="299" y="641" type="qcurve"/>
      <point x="290" y="644" type="line"/>
      <point x="291" y="716" type="line"/>
      <point x="310" y="716" type="line"/>
      <point x="310" y="403" type="line"/>
      <point x="290" y="403" type="line"/>
      <point x="290" y="478" type="line"/>
      <point x="299" y="484" type="line"/>
      <point x="287" y="446"/>
      <point x="219" y="402"/>
    </contour>
    <contour>
      <point x="50" y="561" type="qcurve"/>
      <point x="50" y="502"/>
      <point x="121" y="422"/>
      <point x="175" y="422" type="qcurve"/>
      <point x="225" y="422"/>
      <point x="292" y="484"/>
      <point x="292" y="561" type="qcurve"/>
      <point x="292" y="639"/>
      <point x="224" y="701"/>
      <point x="175" y="701" type="qcurve"/>
      <point x="121" y="701"/>
      <point x="50" y="621"/>
    </contour>
  </outline>
</glyph>
<glyph name="logicalnot" format="2">
  <advance width="670"/>
  <unicode hex="00AC"/>
  <note>
logicalnot
</note>
  <outline>
    <contour>
      <point x="605" y="117.0" type="line"/>
      <point x="583" y="117.0" type="line"/>
      <point x="583" y="379" type="line"/>
      <point x="594" y="367" type="line"/>
      <point x="65" y="367" type="line"/>
      <point x="65" y="389" type="line"/>
      <point x="605" y="389" type="line"/>
    </contour>
  </outline>
</glyph>
<glyph name="macron" format="2">
  <advance width="424"/>
  <unicode hex="00AF"/>
  <outline>
    <contour>
      <point x="347" y="629" type="line"/>
      <point x="77" y="629" type="line"/>
      <point x="77" y="651" type="line"/>
      <point x="347" y="651" type="line"/>
    </contour>
  </outline>
</glyph>
<glyph name="plusminus" format="2">
  <advance width="582"/>
  <unicode hex="00B1"/>
  <outline>
    <contour>
      <point x="529" y="346" type="line"/>
      <point x="53" y="346" type="line"/>
      <point x="53" y="368" type="line"/>
      <point x="529" y="368" type="line"/>
    </contour>
    <contour>
      <point x="302" y="183" type="line"/>
      <point x="279" y="183" type="line"/>
      <point x="279" y="525" type="line"/>
      <point x="302" y="525" type="line"/>
    </contour>
    <contour>
      <point x="529" y="68" type="line"/>
      <point x="53" y="68" type="line"/>
      <point x="53" y="90" type="line"/>
      <point x="529" y="90" type="line"/>
    </contour>
  </outline>
</glyph>
<glyph name="uni00B2" format="2">
  <advance width="346"/>
  <unicode hex="00B2"/>
  <outline>
    <contour>
      <point x="295" y="418" type="line"/>
      <point x="75" y="418" type="line"/>
      <point x="72" y="444" type="line"/>
      <point x="146" y="529" type="line"/>
      <point x="166" y="552"/>
      <point x="196" y="584"/>
      <point x="207" y="597" type="qcurve"/>
      <point x="232" y="626"/>
      <point x="260" y="673"/>
      <point x="260" y="694" type="qcurve"/>
      <point x="260" y="723"/>
      <point x="217" y="757"/>
      <point x="188" y="757" type="qcurve"/>
      <point x="159" y="757"/>
      <point x="113" y="727"/>
      <point x="93" y="693" type="qcurve"/>
      <point x="74" y="706" type="line"/>
      <point x="92" y="738"/>
      <point x="150" y="779"/>
      <point x="188" y="779" type="qcurve"/>
      <point x="227" y="779"/>
      <point x="282" y="732"/>
      <point x="282" y="695" type="qcurve"/>
      <point x="282" y="653"/>
      <point x="216" y="573"/>
      <point x="157" y="507" type="qcurve"/>
      <point x="89" y="431" type="line"/>
      <point x="90" y="440" type="line"/>
      <point x="295" y="440" type="line"/>
    </contour>
  </outline>
</glyph>
<glyph name="uni00B3" format="2">
  <advance width="342"/>
  <unicode hex="00B3"/>
  <outline>
    <contour>
      <point x="297" y="530" type="qcurve"/>
      <point x="297" y="479"/>
      <point x="226" y="412"/>
      <point x="174" y="412" type="qcurve"/>
      <point x="146" y="412"/>
      <point x="87" y="431"/>
      <point x="66" y="446" type="qcurve"/>
      <point x="78" y="464" type="line"/>
      <point x="109" y="445"/>
      <point x="151" y="434"/>
      <point x="172" y="434" type="qcurve"/>
      <point x="217" y="434"/>
      <point x="275" y="485"/>
      <point x="275" y="529" type="qcurve"/>
      <point x="275" y="568"/>
      <point x="219" y="616"/>
      <point x="181" y="616" type="qcurve"/>
      <point x="157" y="616"/>
      <point x="124" y="606"/>
      <point x="97" y="591" type="qcurve"/>
      <point x="92" y="606" type="line"/>
      <point x="249" y="756" type="line"/>
      <point x="254" y="751" type="line"/>
      <point x="80" y="751" type="line"/>
      <point x="80" y="772" type="line"/>
      <point x="266" y="772" type="line"/>
      <point x="270" y="748" type="line"/>
      <point x="124" y="609" type="line"/>
      <point x="107" y="609" type="line"/>
      <point x="134" y="627"/>
      <point x="166" y="637"/>
      <point x="183" y="637" type="qcurve"/>
      <point x="230" y="637"/>
      <point x="297" y="577"/>
    </contour>
  </outline>
</glyph>
<glyph name="uni00B9" format="2">
  <advance width="281"/>
  <unicode hex="00B9"/>
  <outline>
    <contour>
      <point x="182" y="777" type="line"/>
      <point x="182" y="432" type="line"/>
      <point x="177" y="432"/>
      <point x="165" y="432"/>
      <point x="160" y="432" type="qcurve"/>
      <point x="160" y="751" type="line"/>
      <point x="166" y="751" type="line"/>
      <point x="66" y="695" type="line"/>
      <point x="56" y="712" type="line"/>
      <point x="168" y="777" type="line"/>
    </contour>
  </outline>
</glyph>
<glyph name="threequarters" format="2">
  <advance width="791"/>
  <unicode hex="00BE"/>
  <outline>
    <contour>
      <point x="260" y="460" type="qcurve"/>
      <point x="260" y="409"/>
      <point x="189" y="342"/>
      <point x="137" y="342" type="qcurve"/>
      <point x="109" y="342"/>
      <point x="50" y="361"/>
      <point x="29" y="376" type="qcurve"/>
      <point x="41" y="394" type="line"/>
      <point x="72" y="375"/>
      <point x="114" y="364"/>
      <point x="135" y="364" type="qcurve"/>
      <point x="180" y="364"/>
      <point x="238" y="415"/>
      <point x="238" y="459" type="qcurve"/>
      <point x="238" y="498"/>
      <point x="182" y="546"/>
      <point x="144" y="546" type="qcurve"/>
      <point x="120" y="546"/>
      <point x="87" y="536"/>
      <point x="60" y="521" type="qcurve"/>
      <point x="55" y="536" type="line"/>
      <point x="212" y="686" type="line"/>
      <point x="217" y="681" type="line"/>
      <point x="43" y="681" type="line"/>
      <point x="43" y="702" type="line"/>
      <point x="229" y="702" type="line"/>
      <point x="233" y="678" type="line"/>
      <point x="87" y="539" type="line"/>
      <point x="70" y="539" type="line"/>
      <point x="97" y="557"/>
      <point x="129" y="567"/>
      <point x="146" y="567" type="qcurve"/>
      <point x="193" y="567"/>
      <point x="260" y="507"/>
    </contour>
    <contour>
      <point x="179" y="0" type="line"/>
      <point x="152" y="0" type="line"/>
      <point x="411" y="388" type="line"/>
      <point x="620" y="700" type="line"/>
      <point x="647" y="700" type="line"/>
      <point x="431" y="377" type="line"/>
    </contour>
    <contour>
      <point x="688" y="0" type="line"/>
      <point x="666" y="0" type="line"/>
      <point x="666" y="90" type="line"/>
      <point x="666" y="102" type="line"/>
      <point x="666" y="344" type="line"/>
      <point x="678" y="334" type="line"/>
      <point x="492" y="94" type="line"/>
      <point x="492" y="107" type="line"/>
      <point x="749" y="107" type="line"/>
      <point x="749" y="85" type="line"/>
      <point x="470" y="85" type="line"/>
      <point x="467" y="99" type="line"/>
      <point x="666" y="356" type="line"/>
      <point x="688" y="356" type="line"/>
    </contour>
  </outline>
</glyph>
<glyph name="Acircumflex" format="2">
  <advance width="611"/>
  <unicode hex="00C2"/>
  <outline>
    <contour>
      <point x="304" y="682" type="qcurve"/>
      <point x="305" y="682" type="line"/>
      <point x="302" y="672"/>
      <point x="262" y="570"/>
      <point x="237" y="503" type="qcurve"/>
      <point x="46" y="0" type="line"/>
      <point x="20" y="0" type="line"/>
      <point x="289" y="700" type="line"/>
      <point x="322" y="700" type="line"/>
      <point x="591" y="0" type="line"/>
      <point x="565" y="0" type="line"/>
      <point x="372" y="504" type="line"/>
      <point x="348" y="568"/>
      <point x="308" y="672"/>
    </contour>
    <contour>
      <point x="299" y="230" type="line"/>
      <point x="120" y="230" type="line"/>
      <point x="128" y="253" type="line"/>
      <point x="299" y="253" type="line"/>
    </contour>
    <contour>
      <point x="493" y="230" type="line"/>
      <point x="299" y="230" type="line"/>
      <point x="299" y="253" type="line"/>
      <point x="485" y="253" type="line"/>
    </contour>
    <contour>
      <point x="414" y="770" type="line"/>
      <point x="298" y="862" type="line"/>
      <point x="314" y="862" type="line"/>
      <point x="196" y="770" type="line"/>
      <point x="184" y="783" type="line"/>
      <point x="292" y="875" type="line"/>
      <point x="320" y="875" type="line"/>
      <point x="426" y="783" type="line"/>
    </contour>
  </outline>
</glyph>
<glyph name="Eacute" format="2">
  <advance width="566"/>
  <unicode hex="00C9"/>
  <outline>
    <contour>
      <point x="132" y="0" type="line"/>
      <point x="110" y="0" type="line"/>
      <point x="110" y="700" type="line"/>
      <point x="132" y="700" type="line"/>
    </contour>
    <contour>
      <point x="495" y="0" type="line"/>
      <point x="124" y="0" type="line"/>
      <point x="124" y="22" type="line"/>
      <point x="495" y="22" type="line"/>
    </contour>
    <contour>
      <point x="443" y="351" type="line"/>
      <point x="123" y="351" type="line"/>
      <point x="123" y="373" type="line"/>
      <point x="443" y="373" type="line"/>
    </contour>
    <contour>
      <point x="501" y="678" type="line"/>
      <point x="123" y="678" type="line"/>
      <point x="123" y="700" type="line"/>
      <point x="501" y="700" type="line"/>
    </contour>
    <contour>
      <point x="400" y="869" type="line"/>
      <point x="254" y="770" type="line"/>
      <point x="244" y="785" type="line"/>
      <point x="386" y="890" type="line"/>
    </contour>
  </outline>
</glyph>
<glyph name="Ecircumflex" format="2">
  <advance width="566"/>
  <unicode hex="00CA"/>
  <outline>
    <contour>
      <point x="132" y="0" type="line"/>
      <point x="110" y="0" type="line"/>
      <point x="110" y="700" type="line"/>
      <point x="132" y="700" type="line"/>
    </contour>
    <contour>
      <point x="495" y="0" type="line"/>
      <point x="124" y="0" type="line"/>
      <point x="124" y="22" type="line"/>
      <point x="495" y="22" type="line"/>
    </contour>
    <contour>
      <point x="443" y="351" type="line"/>
      <point x="123" y="351" type="line"/>
      <point x="123" y="373" type="line"/>
      <point x="443" y="373" type="line"/>
    </contour>
    <contour>
      <point x="501" y="678" type="line"/>
      <point x="123" y="678" type="line"/>
      <point x="123" y="700" type="line"/>
      <point x="501" y="700" type="line"/>
    </contour>
    <contour>
      <point x="414" y="770" type="line"/>
      <point x="298" y="862" type="line"/>
      <point x="314" y="862" type="line"/>
      <point x="196" y="770" type="line"/>
      <point x="184" y="783" type="line"/>
      <point x="292" y="875" type="line"/>
      <point x="320" y="875" type="line"/>
      <point x="426" y="783" type="line"/>
    </contour>
  </outline>
</glyph>
<glyph name="Edieresis" format="2">
  <advance width="566"/>
  <unicode hex="00CB"/>
  <outline>
    <contour>
      <point x="132" y="0" type="line"/>
      <point x="110" y="0" type="line"/>
      <point x="110" y="700" type="line"/>
      <point x="132" y="700" type="line"/>
    </contour>
    <contour>
      <point x="495" y="0" type="line"/>
      <point x="124" y="0" type="line"/>
      <point x="124" y="22" type="line"/>
      <point x="495" y="22" type="line"/>
    </contour>
    <contour>
      <point x="443" y="351" type="line"/>
      <point x="123" y="351" type="line"/>
      <point x="123" y="373" type="line"/>
      <point x="443" y="373" type="line"/>
    </contour>
    <contour>
      <point x="501" y="678" type="line"/>
      <point x="123" y="678" type="line"/>
      <point x="123" y="700" type="line"/>
      <point x="501" y="700" type="line"/>
    </contour>
    <contour>
      <point x="258" y="797" type="qcurve"/>
      <point x="258" y="785"/>
      <point x="244" y="770"/>
      <point x="230" y="770" type="qcurve"/>
      <point x="218" y="770"/>
      <point x="204" y="785"/>
      <point x="204" y="797" type="qcurve"/>
      <point x="204" y="808"/>
      <point x="218" y="824"/>
      <point x="230" y="824" type="qcurve"/>
      <point x="244" y="824"/>
      <point x="258" y="809"/>
    </contour>
    <contour>
      <point x="408" y="797" type="qcurve"/>
      <point x="408" y="785"/>
      <point x="394" y="770"/>
      <point x="380" y="770" type="qcurve"/>
      <point x="368" y="770"/>
      <point x="354" y="785"/>
      <point x="354" y="797" type="qcurve"/>
      <point x="354" y="808"/>
      <point x="368" y="824"/>
      <point x="380" y="824" type="qcurve"/>
      <point x="394" y="824"/>
      <point x="408" y="809"/>
    </contour>
  </outline>
</glyph>
<glyph name="Igrave" format="2">
  <advance width="386"/>
  <unicode hex="00CC"/>
  <outline>
    <contour>
      <point x="204" y="700" type="qcurve"/>
      <point x="204" y="0" type="line"/>
      <point x="182" y="0" type="line"/>
      <point x="182" y="700" type="line"/>
      <point x="210" y="700"/>
      <point x="176" y="700"/>
    </contour>
    <contour>
      <point x="336" y="700" type="line"/>
      <point x="336" y="678" type="line"/>
      <point x="50" y="678" type="line"/>
      <point x="50" y="700" type="line"/>
    </contour>
    <contour>
      <point x="336" y="22" type="line"/>
      <point x="336" y="0" type="line"/>
      <point x="50" y="0" type="line"/>
      <point x="50" y="22" type="line"/>
    </contour>
    <contour>
      <point x="258" y="785" type="line"/>
      <point x="248" y="770" type="line"/>
      <point x="102" y="869" type="line"/>
      <point x="116" y="890" type="line"/>
    </contour>
  </outline>
</glyph>
<glyph name="Iacute" format="2">
  <advance width="386"/>
  <unicode hex="00CD"/>
  <outline>
    <contour>
      <point x="204" y="700" type="qcurve"/>
      <point x="204" y="0" type="line"/>
      <point x="182" y="0" type="line"/>
      <point x="182" y="700" type="line"/>
      <point x="210" y="700"/>
      <point x="176" y="700"/>
    </contour>
    <contour>
      <point x="336" y="700" type="line"/>
      <point x="336" y="678" type="line"/>
      <point x="50" y="678" type="line"/>
      <point x="50" y="700" type="line"/>
    </contour>
    <contour>
      <point x="336" y="22" type="line"/>
      <point x="336" y="0" type="line"/>
      <point x="50" y="0" type="line"/>
      <point x="50" y="22" type="line"/>
    </contour>
    <contour>
      <point x="284" y="869" type="line"/>
      <point x="138" y="770" type="line"/>
      <point x="128" y="785" type="line"/>
      <point x="270" y="890" type="line"/>
    </contour>
  </outline>
</glyph>
<glyph name="Icircumflex" format="2">
  <advance width="386"/>
  <unicode hex="00CE"/>
  <outline>
    <contour>
      <point x="204" y="700" type="qcurve"/>
      <point x="204" y="0" type="line"/>
      <point x="182" y="0" type="line"/>
      <point x="182" y="700" type="line"/>
      <point x="210" y="700"/>
      <point x="176" y="700"/>
    </contour>
    <contour>
      <point x="336" y="700" type="line"/>
      <point x="336" y="678" type="line"/>
      <point x="50" y="678" type="line"/>
      <point x="50" y="700" type="line"/>
    </contour>
    <contour>
      <point x="336" y="22" type="line"/>
      <point x="336" y="0" type="line"/>
      <point x="50" y="0" type="line"/>
      <point x="50" y="22" type="line"/>
    </contour>
    <contour>
      <point x="302" y="770" type="line"/>
      <point x="186" y="862" type="line"/>
      <point x="201" y="862" type="line"/>
      <point x="84" y="770" type="line"/>
      <point x="72" y="783" type="line"/>
      <point x="179" y="875" type="line"/>
      <point x="207" y="875" type="line"/>
      <point x="314" y="783" type="line"/>
    </contour>
  </outline>
</glyph>
<glyph name="multiply" format="2">
  <advance width="444"/>
  <unicode hex="00D7"/>
  <note>
multiply
</note>
  <outline>
    <contour>
      <point x="404" y="123" type="line"/>
      <point x="387" y="108" type="line"/>
      <point x="49" y="445" type="line"/>
      <point x="66" y="460" type="line"/>
    </contour>
    <contour>
      <point x="57" y="108" type="line"/>
      <point x="40" y="123" type="line"/>
      <point x="378" y="460" type="line"/>
      <point x="395" y="445" type="line"/>
    </contour>
  </outline>
</glyph>
<glyph name="Oslash" format="2">
  <advance width="798"/>
  <unicode hex="00D8"/>
  <guideline x="399.0" identifier="qhIjcmqDj5"/>
  <outline>
    <contour>
      <point x="114" y="-18" type="line"/>
      <point x="95" y="-4" type="line"/>
      <point x="684" y="718" type="line"/>
      <point x="703" y="704" type="line"/>
    </contour>
    <contour>
      <point x="399" y="710" type="qcurve"/>
      <point x="550" y="710"/>
      <point x="743" y="508"/>
      <point x="743" y="349" type="qcurve"/>
      <point x="743" y="191"/>
      <point x="550" y="-10"/>
      <point x="399" y="-10" type="qcurve"/>
      <point x="248" y="-10"/>
      <point x="55" y="191"/>
      <point x="55" y="349" type="qcurve"/>
      <point x="55" y="507"/>
      <point x="248" y="710"/>
    </contour>
    <contour>
      <point x="399" y="12" type="qcurve" smooth="yes"/>
      <point x="539" y="12"/>
      <point x="720" y="202"/>
      <point x="720" y="349" type="qcurve"/>
      <point x="720" y="496"/>
      <point x="539" y="688"/>
      <point x="399" y="688" type="qcurve" smooth="yes"/>
      <point x="260" y="688"/>
      <point x="78" y="496"/>
      <point x="78" y="349" type="qcurve"/>
      <point x="78" y="202"/>
      <point x="260" y="12"/>
    </contour>
  </outline>
</glyph>
<glyph name="Yacute" format="2">
  <advance width="592"/>
  <unicode hex="00DD"/>
  <outline>
    <contour>
      <point x="546" y="700" type="line"/>
      <point x="572" y="700" type="line"/>
      <point x="302" y="300" type="line"/>
      <point x="311" y="339" type="line"/>
      <point x="311" y="0" type="line"/>
      <point x="289" y="0" type="line"/>
      <point x="289" y="339" type="line"/>
      <point x="297" y="300" type="line"/>
      <point x="20" y="700" type="line"/>
      <point x="46" y="700" type="line"/>
      <point x="305" y="327" type="line"/>
      <point x="294" y="327" type="line"/>
    </contour>
    <contour>
      <point x="409" y="869" type="line"/>
      <point x="263" y="770" type="line"/>
      <point x="253" y="785" type="line"/>
      <point x="395" y="890" type="line"/>
    </contour>
  </outline>
</glyph>
<glyph name="germandbls" format="2">
  <advance width="604"/>
  <unicode hex="00DF"/>
  <outline>
    <contour>
      <point x="138" y="416" type="line"/>
      <point x="40" y="416" type="line"/>
      <point x="40" y="438" type="line"/>
      <point x="138" y="438" type="line"/>
    </contour>
    <contour>
      <point x="148" y="0" type="line"/>
      <point x="126" y="0" type="line"/>
      <point x="126" y="494" type="line"/>
      <point x="126" y="611"/>
      <point x="228" y="728"/>
      <point x="316" y="728" type="qcurve"/>
      <point x="399" y="728"/>
      <point x="489" y="640"/>
      <point x="489" y="577" type="qcurve"/>
      <point x="489" y="508"/>
      <point x="388" y="420"/>
      <point x="318" y="420" type="qcurve"/>
      <point x="318" y="432" type="line"/>
      <point x="457" y="388"/>
      <point x="562" y="258"/>
      <point x="562" y="186" type="qcurve"/>
      <point x="562" y="89"/>
      <point x="462" y="-9"/>
      <point x="364" y="-10" type="qcurve"/>
      <point x="303" y="-9"/>
      <point x="222" y="39"/>
      <point x="194" y="88" type="qcurve"/>
      <point x="214" y="100" type="line"/>
      <point x="243" y="50"/>
      <point x="317" y="12"/>
      <point x="364" y="12" type="qcurve"/>
      <point x="444" y="12"/>
      <point x="539" y="91"/>
      <point x="539" y="188" type="qcurve"/>
      <point x="539" y="264"/>
      <point x="422" y="381"/>
      <point x="310" y="414" type="qcurve"/>
      <point x="310" y="437" type="line"/>
      <point x="381" y="441"/>
      <point x="466" y="519"/>
      <point x="466" y="577" type="qcurve"/>
      <point x="466" y="631"/>
      <point x="387" y="706"/>
      <point x="321" y="706" type="qcurve"/>
      <point x="238" y="706"/>
      <point x="148" y="601"/>
      <point x="148" y="493" type="qcurve"/>
    </contour>
  </outline>
</glyph>
<glyph name="aacute" format="2">
  <advance width="602"/>
  <unicode hex="00E1"/>
  <outline>
    <contour>
      <point x="512" y="525" type="line"/>
      <point x="532" y="525" type="line"/>
      <point x="532" y="0" type="line"/>
      <point x="510" y="0" type="line"/>
      <point x="510" y="172" type="line"/>
      <point x="519" y="175" type="line"/>
      <point x="501" y="94"/>
      <point x="377" y="-10"/>
      <point x="294" y="-10" type="qcurve"/>
      <point x="184" y="-10"/>
      <point x="40" y="141"/>
      <point x="40" y="258" type="qcurve"/>
      <point x="40" y="376"/>
      <point x="187" y="530"/>
      <point x="290" y="530" type="qcurve"/>
      <point x="374" y="530"/>
      <point x="502" y="430"/>
      <point x="516" y="350" type="qcurve"/>
      <point x="510" y="353" type="line"/>
    </contour>
    <contour>
      <point x="63" y="258" type="qcurve"/>
      <point x="63" y="152"/>
      <point x="191" y="12"/>
      <point x="294" y="12" type="qcurve"/>
      <point x="386" y="12"/>
      <point x="511" y="150"/>
      <point x="511" y="260" type="qcurve"/>
      <point x="511" y="368"/>
      <point x="386" y="508"/>
      <point x="292" y="508" type="qcurve"/>
      <point x="191" y="508"/>
      <point x="63" y="367"/>
    </contour>
    <contour>
      <point x="396" y="729" type="line"/>
      <point x="252" y="625" type="line"/>
      <point x="242" y="640" type="line"/>
      <point x="382" y="750" type="line"/>
    </contour>
  </outline>
</glyph>
<glyph name="ccedilla" format="2">
  <advance width="526"/>
  <unicode hex="00E7"/>
  <outline>
    <contour>
      <point x="306" y="508" type="qcurve"/>
      <point x="200" y="508"/>
      <point x="63" y="370"/>
      <point x="62" y="263" type="qcurve"/>
      <point x="63" y="153"/>
      <point x="200" y="12"/>
      <point x="306" y="12" type="qcurve"/>
      <point x="362" y="12"/>
      <point x="455" y="55"/>
      <point x="488" y="93" type="qcurve"/>
      <point x="504" y="77" type="line"/>
      <point x="468" y="37"/>
      <point x="368" y="-10"/>
      <point x="306" y="-10" type="qcurve"/>
      <point x="189" y="-10"/>
      <point x="40" y="144"/>
      <point x="40" y="263" type="qcurve"/>
      <point x="40" y="380"/>
      <point x="189" y="530"/>
      <point x="306" y="530" type="qcurve"/>
      <point x="369" y="530"/>
      <point x="471" y="483"/>
      <point x="506" y="443" type="qcurve"/>
      <point x="490" y="426" type="line"/>
      <point x="457" y="464"/>
      <point x="363" y="508"/>
    </contour>
    <contour>
      <point x="273" y="-76" type="line"/>
      <point x="255" y="-73" type="line"/>
      <point x="309" y="5" type="line"/>
      <point x="331" y="5" type="line"/>
    </contour>
    <contour>
      <point x="388" y="-134" type="qcurve"/>
      <point x="388" y="-152"/>
      <point x="370" y="-188"/>
      <point x="348" y="-197" type="qcurve"/>
      <point x="326" y="-206"/>
      <point x="278" y="-216"/>
      <point x="242" y="-222" type="qcurve"/>
      <point x="238" y="-205" type="line"/>
      <point x="283" y="-198"/>
      <point x="368" y="-174"/>
      <point x="368" y="-133" type="qcurve"/>
      <point x="368" y="-111"/>
      <point x="326" y="-83"/>
      <point x="268" y="-83" type="qcurve"/>
      <point x="255" y="-75" type="line"/>
      <point x="255" y="-73" type="line"/>
      <point x="274" y="-66" type="line"/>
      <point x="337" y="-67"/>
      <point x="388" y="-103"/>
    </contour>
  </outline>
</glyph>
<glyph name="edieresis" format="2">
  <advance width="545"/>
  <unicode hex="00EB"/>
  <outline>
    <contour>
      <point x="472" y="83" type="qcurve"/>
      <point x="484" y="65" type="line"/>
      <point x="447" y="31"/>
      <point x="354" y="-10"/>
      <point x="297" y="-10" type="qcurve"/>
      <point x="183" y="-10"/>
      <point x="40" y="144"/>
      <point x="40" y="263" type="qcurve"/>
      <point x="40" y="380"/>
      <point x="177" y="530"/>
      <point x="285" y="530" type="qcurve"/>
      <point x="384" y="530"/>
      <point x="510" y="401"/>
      <point x="510" y="291" type="qcurve"/>
      <point x="509" y="265" type="line"/>
      <point x="52" y="265" type="line"/>
      <point x="52" y="287" type="line"/>
      <point x="498" y="287" type="line"/>
      <point x="486" y="270" type="line"/>
      <point x="488" y="295" type="line"/>
      <point x="488" y="390"/>
      <point x="371" y="508"/>
      <point x="288" y="508" type="qcurve"/>
      <point x="186" y="508"/>
      <point x="63" y="370"/>
      <point x="62" y="263" type="qcurve"/>
      <point x="63" y="153"/>
      <point x="194" y="12"/>
      <point x="297" y="12" type="qcurve"/>
      <point x="349" y="12"/>
      <point x="437" y="50"/>
    </contour>
    <contour>
      <point x="234" y="632" type="qcurve"/>
      <point x="234" y="620"/>
      <point x="221" y="605"/>
      <point x="207" y="605" type="qcurve"/>
      <point x="195" y="605"/>
      <point x="180" y="620"/>
      <point x="180" y="632" type="qcurve"/>
      <point x="180" y="643"/>
      <point x="194" y="659"/>
      <point x="207" y="659" type="qcurve"/>
      <point x="221" y="659"/>
      <point x="234" y="644"/>
    </contour>
    <contour>
      <point x="384" y="632" type="qcurve"/>
      <point x="384" y="620"/>
      <point x="371" y="605"/>
      <point x="357" y="605" type="qcurve"/>
      <point x="345" y="605"/>
      <point x="330" y="620"/>
      <point x="330" y="632" type="qcurve"/>
      <point x="330" y="643"/>
      <point x="344" y="659"/>
      <point x="357" y="659" type="qcurve"/>
      <point x="371" y="659"/>
      <point x="384" y="644"/>
    </contour>
  </outline>
</glyph>
<glyph name="igrave" format="2">
  <advance width="182"/>
  <unicode hex="00EC"/>
  <outline>
    <contour>
      <point x="92" y="525" type="line"/>
      <point x="92" y="0" type="line"/>
      <point x="70" y="0" type="line"/>
      <point x="70" y="525" type="line"/>
    </contour>
    <contour>
      <point x="159" y="634" type="line"/>
      <point x="149" y="619" type="line"/>
      <point x="5" y="723" type="line"/>
      <point x="19" y="744" type="line"/>
    </contour>
  </outline>
</glyph>
<glyph name="icircumflex" format="2">
  <advance width="182"/>
  <unicode hex="00EE"/>
  <outline>
    <contour>
      <point x="92" y="525" type="line"/>
      <point x="92" y="0" type="line"/>
      <point x="70" y="0" type="line"/>
      <point x="70" y="525" type="line"/>
    </contour>
    <contour>
      <point x="200" y="620" type="line"/>
      <point x="84" y="712" type="line"/>
      <point x="99" y="712" type="line"/>
      <point x="-18" y="620" type="line"/>
      <point x="-30" y="633" type="line"/>
      <point x="77" y="725" type="line"/>
      <point x="105" y="725" type="line"/>
      <point x="212" y="633" type="line"/>
    </contour>
  </outline>
</glyph>
<glyph name="odieresis" format="2">
  <advance width="615"/>
  <unicode hex="00F6"/>
  <outline>
    <contour>
      <point x="308" y="530" type="qcurve"/>
      <point x="427" y="530"/>
      <point x="575" y="380"/>
      <point x="575" y="263" type="qcurve"/>
      <point x="575" y="144"/>
      <point x="427" y="-10"/>
      <point x="308" y="-10" type="qcurve"/>
      <point x="190" y="-10"/>
      <point x="40" y="144"/>
      <point x="40" y="263" type="qcurve"/>
      <point x="40" y="380"/>
      <point x="190" y="530"/>
    </contour>
    <contour>
      <point x="308" y="12" type="qcurve"/>
      <point x="414" y="12"/>
      <point x="553" y="153"/>
      <point x="553" y="263" type="qcurve"/>
      <point x="553" y="369"/>
      <point x="414" y="508"/>
      <point x="308" y="508" type="qcurve"/>
      <point x="201" y="508"/>
      <point x="62" y="369"/>
      <point x="62" y="263" type="qcurve"/>
      <point x="62" y="153"/>
      <point x="201" y="12"/>
    </contour>
    <contour>
      <point x="252" y="632" type="qcurve"/>
      <point x="252" y="620"/>
      <point x="239" y="605"/>
      <point x="225" y="605" type="qcurve"/>
      <point x="213" y="605"/>
      <point x="198" y="620"/>
      <point x="198" y="632" type="qcurve"/>
      <point x="198" y="643"/>
      <point x="212" y="659"/>
      <point x="225" y="659" type="qcurve"/>
      <point x="239" y="659"/>
      <point x="252" y="644"/>
    </contour>
    <contour>
      <point x="402" y="632" type="qcurve"/>
      <point x="402" y="620"/>
      <point x="389" y="605"/>
      <point x="375" y="605" type="qcurve"/>
      <point x="363" y="605"/>
      <point x="348" y="620"/>
      <point x="348" y="632" type="qcurve"/>
      <point x="348" y="643"/>
      <point x="362" y="659"/>
      <point x="375" y="659" type="qcurve"/>
      <point x="389" y="659"/>
      <point x="402" y="644"/>
    </contour>
  </outline>
</glyph>
<glyph name="Aogonek" format="2">
  <advance width="611"/>
  <unicode hex="0104"/>
  <outline>
    <contour>
      <point x="579" y="9" type="line"/>
      <point x="565" y="0" type="line"/>
      <point x="372" y="504" type="line" smooth="yes"/>
      <point x="362" y="529"/>
      <point x="344" y="578"/>
      <point x="336" y="599" type="qcurve" smooth="yes"/>
      <point x="324" y="631"/>
      <point x="306" y="676"/>
      <point x="304" y="682" type="qcurve"/>
      <point x="305" y="682" type="line"/>
      <point x="303" y="676"/>
      <point x="286" y="632"/>
      <point x="274" y="599" type="qcurve" smooth="yes"/>
      <point x="266" y="579"/>
      <point x="247" y="529"/>
      <point x="237" y="503" type="qcurve" smooth="yes"/>
      <point x="46" y="0" type="line"/>
      <point x="20" y="0" type="line"/>
      <point x="289" y="700" type="line"/>
      <point x="322" y="700" type="line"/>
      <point x="589" y="5" type="line"/>
      <point x="588" y="0" type="line"/>
      <point x="530" y="-10"/>
      <point x="450" y="-77"/>
      <point x="450" y="-130" type="qcurve" smooth="yes"/>
      <point x="450" y="-163"/>
      <point x="495" y="-208"/>
      <point x="528" y="-208" type="qcurve" smooth="yes"/>
      <point x="554" y="-208"/>
      <point x="592" y="-183"/>
      <point x="603" y="-163" type="qcurve"/>
      <point x="618" y="-176" type="line"/>
      <point x="606" y="-200"/>
      <point x="558" y="-230"/>
      <point x="528" y="-230" type="qcurve" smooth="yes"/>
      <point x="486" y="-230"/>
      <point x="428" y="-172"/>
      <point x="428" y="-130" type="qcurve" smooth="yes"/>
      <point x="428" y="-70"/>
      <point x="524" y="8"/>
      <point x="579" y="18" type="qcurve"/>
    </contour>
    <contour>
      <point x="299" y="230" type="line"/>
      <point x="120" y="230" type="line"/>
      <point x="128" y="253" type="line"/>
      <point x="299" y="253" type="line"/>
    </contour>
    <contour>
      <point x="493" y="230" type="line"/>
      <point x="299" y="230" type="line"/>
      <point x="299" y="253" type="line"/>
      <point x="485" y="253" type="line"/>
    </contour>
  </outline>
</glyph>
<glyph name="aogonek" format="2">
  <advance width="602"/>
  <unicode hex="0105"/>
  <note>
aogonek
</note>
  <outline>
    <contour>
      <point x="416" y="25" type="qcurve" smooth="yes"/>
      <point x="390" y="8"/>
      <point x="328" y="-10"/>
      <point x="294" y="-10" type="qcurve"/>
      <point x="184" y="-10"/>
      <point x="40" y="141"/>
      <point x="40" y="258" type="qcurve"/>
      <point x="40" y="376"/>
      <point x="187" y="530"/>
      <point x="290" y="530" type="qcurve"/>
      <point x="374" y="530"/>
      <point x="502" y="430"/>
      <point x="516" y="350" type="qcurve"/>
      <point x="510" y="353" type="line"/>
      <point x="512" y="525" type="line"/>
      <point x="532" y="525" type="line"/>
      <point x="532" y="0" type="line"/>
      <point x="476" y="-10"/>
      <point x="399" y="-77"/>
      <point x="399" y="-130" type="qcurve" smooth="yes"/>
      <point x="399" y="-163"/>
      <point x="441" y="-208"/>
      <point x="472" y="-208" type="qcurve" smooth="yes"/>
      <point x="496" y="-208"/>
      <point x="531" y="-183"/>
      <point x="542" y="-163" type="qcurve"/>
      <point x="557" y="-176" type="line"/>
      <point x="545" y="-200"/>
      <point x="500" y="-230"/>
      <point x="472" y="-230" type="qcurve" smooth="yes"/>
      <point x="430" y="-230"/>
      <point x="377" y="-173"/>
      <point x="377" y="-130" type="qcurve" smooth="yes"/>
      <point x="377" y="-70"/>
      <point x="470" y="8"/>
      <point x="527" y="18" type="qcurve"/>
      <point x="527" y="0" type="line"/>
      <point x="510" y="0" type="line"/>
      <point x="510" y="172" type="line"/>
      <point x="519" y="175" type="line"/>
      <point x="508" y="127"/>
      <point x="454" y="49"/>
    </contour>
    <contour>
      <point x="63" y="258" type="qcurve"/>
      <point x="63" y="152"/>
      <point x="191" y="12"/>
      <point x="294" y="12" type="qcurve"/>
      <point x="386" y="12"/>
      <point x="511" y="150"/>
      <point x="511" y="260" type="qcurve"/>
      <point x="511" y="368"/>
      <point x="386" y="508"/>
      <point x="292" y="508" type="qcurve"/>
      <point x="191" y="508"/>
      <point x="63" y="367"/>
    </contour>
  </outline>
</glyph>
<glyph name="Ccircumflex" format="2">
  <advance width="690"/>
  <unicode hex="0108"/>
  <outline>
    <contour>
      <point x="624" y="99" type="qcurve"/>
      <point x="639" y="81" type="line"/>
      <point x="594" y="38"/>
      <point x="471" y="-10"/>
      <point x="399" y="-10" type="qcurve"/>
      <point x="248" y="-10"/>
      <point x="55" y="189"/>
      <point x="55" y="346" type="qcurve"/>
      <point x="55" y="505"/>
      <point x="248" y="710"/>
      <point x="399" y="710" type="qcurve"/>
      <point x="478" y="710"/>
      <point x="608" y="647"/>
      <point x="655" y="594" type="qcurve"/>
      <point x="637" y="578" type="line"/>
      <point x="593" y="628"/>
      <point x="472" y="688"/>
      <point x="399" y="688" type="qcurve"/>
      <point x="260" y="688"/>
      <point x="78" y="494"/>
      <point x="78" y="346" type="qcurve"/>
      <point x="78" y="200"/>
      <point x="260" y="12"/>
      <point x="399" y="12" type="qcurve"/>
      <point x="467" y="12"/>
      <point x="582" y="58"/>
    </contour>
    <contour>
      <point x="499" y="770" type="line"/>
      <point x="383" y="862" type="line"/>
      <point x="398" y="862" type="line"/>
      <point x="281" y="770" type="line"/>
      <point x="269" y="783" type="line"/>
      <point x="376" y="875" type="line"/>
      <point x="404" y="875" type="line"/>
      <point x="511" y="783" type="line"/>
    </contour>
  </outline>
</glyph>
<glyph name="Dcaron" format="2">
  <advance width="737"/>
  <unicode hex="010E"/>
  <outline>
    <contour>
      <point x="110" y="700" type="line"/>
      <point x="357" y="700" type="line"/>
      <point x="485" y="700"/>
      <point x="682" y="502"/>
      <point x="682" y="350" type="qcurve"/>
      <point x="682" y="199"/>
      <point x="485" y="0"/>
      <point x="357" y="0" type="qcurve"/>
      <point x="110" y="0" type="line"/>
    </contour>
    <contour>
      <point x="122" y="22" type="line"/>
      <point x="352" y="22" type="line"/>
      <point x="473" y="22"/>
      <point x="659" y="211"/>
      <point x="659" y="350" type="qcurve"/>
      <point x="659" y="490"/>
      <point x="473" y="678"/>
      <point x="352" y="678" type="qcurve"/>
      <point x="121" y="678" type="line"/>
      <point x="132" y="689" type="line"/>
      <point x="132" y="13" type="line"/>
    </contour>
    <contour>
      <point x="464" y="850" type="line"/>
      <point x="348" y="758" type="line"/>
      <point x="363" y="758" type="line"/>
      <point x="246" y="850" type="line"/>
      <point x="234" y="837" type="line"/>
      <point x="341" y="745" type="line"/>
      <point x="369" y="745" type="line"/>
      <point x="476" y="837" type="line"/>
    </contour>
  </outline>
</glyph>
<glyph name="Ebreve" format="2">
  <advance width="566"/>
  <unicode hex="0114"/>
  <outline>
    <contour>
      <point x="132" y="0" type="line"/>
      <point x="110" y="0" type="line"/>
      <point x="110" y="700" type="line"/>
      <point x="132" y="700" type="line"/>
    </contour>
    <contour>
      <point x="495" y="0" type="line"/>
      <point x="124" y="0" type="line"/>
      <point x="124" y="22" type="line"/>
      <point x="495" y="22" type="line"/>
    </contour>
    <contour>
      <point x="443" y="351" type="line"/>
      <point x="123" y="351" type="line"/>
      <point x="123" y="373" type="line"/>
      <point x="443" y="373" type="line"/>
    </contour>
    <contour>
      <point x="501" y="678" type="line"/>
      <point x="123" y="678" type="line"/>
      <point x="123" y="700" type="line"/>
      <point x="501" y="700" type="line"/>
    </contour>
    <contour>
      <point x="307" y="787" type="qcurve"/>
      <point x="256" y="787"/>
      <point x="187" y="851"/>
      <point x="175" y="907" type="qcurve"/>
      <point x="197" y="909" type="line"/>
      <point x="207" y="861"/>
      <point x="267" y="808"/>
      <point x="307" y="808" type="qcurve"/>
      <point x="346" y="808"/>
      <point x="408" y="861"/>
      <point x="417" y="909" type="qcurve"/>
      <point x="439" y="907" type="line"/>
      <point x="428" y="851"/>
      <point x="357" y="787"/>
    </contour>
  </outline>
</glyph>
<glyph name="Edotaccent" format="2">
  <advance width="566"/>
  <unicode hex="0116"/>
  <outline>
    <contour>
      <point x="132" y="0" type="line"/>
      <point x="110" y="0" type="line"/>
      <point x="110" y="700" type="line"/>
      <point x="132" y="700" type="line"/>
    </contour>
    <contour>
      <point x="495" y="0" type="line"/>
      <point x="124" y="0" type="line"/>
      <point x="124" y="22" type="line"/>
      <point x="495" y="22" type="line"/>
    </contour>
    <contour>
      <point x="443" y="351" type="line"/>
      <point x="123" y="351" type="line"/>
      <point x="123" y="373" type="line"/>
      <point x="443" y="373" type="line"/>
    </contour>
    <contour>
      <point x="501" y="678" type="line"/>
      <point x="123" y="678" type="line"/>
      <point x="123" y="700" type="line"/>
      <point x="501" y="700" type="line"/>
    </contour>
    <contour>
      <point x="334" y="799" type="qcurve"/>
      <point x="334" y="786"/>
      <point x="320" y="770"/>
      <point x="306" y="770" type="qcurve"/>
      <point x="292" y="770"/>
      <point x="278" y="786"/>
      <point x="278" y="799" type="qcurve"/>
      <point x="278" y="811"/>
      <point x="292" y="828"/>
      <point x="306" y="828" type="qcurve"/>
      <point x="318" y="828"/>
      <point x="334" y="812"/>
    </contour>
  </outline>
</glyph>
<glyph name="Eogonek" format="2">
  <advance width="566"/>
  <unicode hex="0118"/>
  <outline>
    <contour>
      <point x="132" y="0" type="line"/>
      <point x="110" y="0" type="line"/>
      <point x="110" y="700" type="line"/>
      <point x="132" y="700" type="line"/>
    </contour>
    <contour>
      <point x="495" y="0" type="line"/>
      <point x="124" y="0" type="line"/>
      <point x="124" y="22" type="line"/>
      <point x="495" y="22" type="line"/>
    </contour>
    <contour>
      <point x="443" y="351" type="line"/>
      <point x="123" y="351" type="line"/>
      <point x="123" y="373" type="line"/>
      <point x="443" y="373" type="line"/>
    </contour>
    <contour>
      <point x="501" y="678" type="line"/>
      <point x="123" y="678" type="line"/>
      <point x="123" y="700" type="line"/>
      <point x="501" y="700" type="line"/>
    </contour>
    <contour>
      <point x="435" y="-230" type="qcurve"/>
      <point x="393" y="-230"/>
      <point x="335" y="-172"/>
      <point x="335" y="-130" type="qcurve"/>
      <point x="335" y="-70"/>
      <point x="431" y="8"/>
      <point x="490" y="18" type="qcurve"/>
      <point x="495" y="8" type="line"/>
      <point x="495" y="0" type="line"/>
      <point x="437" y="-10"/>
      <point x="357" y="-77"/>
      <point x="357" y="-130" type="qcurve"/>
      <point x="357" y="-163"/>
      <point x="402" y="-208"/>
      <point x="435" y="-208" type="qcurve"/>
      <point x="461" y="-208"/>
      <point x="499" y="-183"/>
      <point x="510" y="-163" type="qcurve"/>
      <point x="525" y="-176" type="line"/>
      <point x="513" y="-200"/>
      <point x="465" y="-230"/>
    </contour>
  </outline>
</glyph>
<glyph name="uni0122" format="2">
  <advance width="767"/>
  <unicode hex="0122"/>
  <outline>
    <contour>
      <point x="55" y="346" type="qcurve"/>
      <point x="55" y="505"/>
      <point x="248" y="710"/>
      <point x="399" y="710" type="qcurve"/>
      <point x="484" y="710"/>
      <point x="620" y="639"/>
      <point x="668" y="580" type="qcurve"/>
      <point x="651" y="564" type="line"/>
      <point x="608" y="621"/>
      <point x="478" y="688"/>
      <point x="399" y="688" type="qcurve"/>
      <point x="260" y="688"/>
      <point x="78" y="494"/>
      <point x="78" y="346" type="qcurve"/>
      <point x="78" y="200"/>
      <point x="261" y="12"/>
      <point x="400" y="12" type="qcurve"/>
      <point x="544" y="12"/>
      <point x="699" y="184"/>
      <point x="699" y="322" type="qcurve"/>
      <point x="699" y="341" type="line"/>
      <point x="705" y="336" type="line"/>
      <point x="409" y="336" type="line"/>
      <point x="409" y="358" type="line"/>
      <point x="722" y="358" type="line"/>
      <point x="722" y="352"/>
      <point x="722" y="345"/>
      <point x="722" y="339" type="qcurve"/>
      <point x="722" y="168"/>
      <point x="549" y="-10"/>
      <point x="400" y="-10" type="qcurve"/>
      <point x="249" y="-10"/>
      <point x="55" y="189"/>
    </contour>
    <contour>
      <point x="410" y="-192" type="qcurve"/>
      <point x="397" y="-179" type="line"/>
      <point x="419" y="-160"/>
      <point x="431" y="-141"/>
      <point x="431" y="-132" type="qcurve"/>
      <point x="431" y="-124"/>
      <point x="425" y="-114"/>
      <point x="414" y="-109" type="qcurve"/>
      <point x="404" y="-104"/>
      <point x="394" y="-90"/>
      <point x="394" y="-80" type="qcurve"/>
      <point x="394" y="-71"/>
      <point x="408" y="-56"/>
      <point x="421" y="-56" type="qcurve"/>
      <point x="438" y="-56"/>
      <point x="457" y="-81"/>
      <point x="457" y="-102" type="qcurve"/>
      <point x="457" y="-128"/>
      <point x="439" y="-169"/>
    </contour>
  </outline>
</glyph>
<glyph name="Hcircumflex" format="2">
  <advance width="731"/>
  <unicode hex="0124"/>
  <outline>
    <contour>
      <point x="110" y="700" type="line"/>
      <point x="132" y="700" type="line"/>
      <point x="132" y="0" type="line"/>
      <point x="110" y="0" type="line"/>
    </contour>
    <contour>
      <point x="599" y="700" type="line"/>
      <point x="621" y="700" type="line"/>
      <point x="621" y="0" type="line"/>
      <point x="599" y="0" type="line"/>
    </contour>
    <contour>
      <point x="121" y="338" type="line"/>
      <point x="121" y="360" type="line"/>
      <point x="610" y="360" type="line"/>
      <point x="610" y="338" type="line"/>
    </contour>
    <contour>
      <point x="470" y="770" type="line"/>
      <point x="354" y="862" type="line"/>
      <point x="369" y="862" type="line"/>
      <point x="252" y="770" type="line"/>
      <point x="240" y="783" type="line"/>
      <point x="347" y="875" type="line"/>
      <point x="375" y="875" type="line"/>
      <point x="482" y="783" type="line"/>
    </contour>
  </outline>
</glyph>
<glyph name="imacron" format="2">
  <advance width="182"/>
  <unicode hex="012B"/>
  <outline>
    <contour>
      <point x="92" y="525" type="line"/>
      <point x="92" y="0" type="line"/>
      <point x="70" y="0" type="line"/>
      <point x="70" y="525" type="line"/>
    </contour>
    <contour>
      <point x="226" y="618" type="line"/>
      <point x="-44" y="618" type="line"/>
      <point x="-44" y="640" type="line"/>
      <point x="226" y="640" type="line"/>
    </contour>
  </outline>
</glyph>
<glyph name="iogonek" format="2">
  <advance width="159"/>
  <unicode hex="012F"/>
  <guideline x="79.5" identifier="saDoaUc7vk"/>
  <outline>
    <contour>
      <point x="83" y="16" type="qcurve"/>
      <point x="70" y="-2" type="line"/>
      <point x="70" y="525" type="line"/>
      <point x="92" y="525" type="line"/>
      <point x="92" y="0" type="line"/>
      <point x="52" y="-27"/>
      <point x="-1" y="-97"/>
      <point x="-1" y="-130" type="qcurve" smooth="yes"/>
      <point x="-1" y="-163"/>
      <point x="41" y="-208"/>
      <point x="72" y="-208" type="qcurve" smooth="yes"/>
      <point x="96" y="-208"/>
      <point x="131" y="-183"/>
      <point x="142" y="-163" type="qcurve"/>
      <point x="157" y="-176" type="line"/>
      <point x="145" y="-200"/>
      <point x="100" y="-230"/>
      <point x="72" y="-230" type="qcurve" smooth="yes"/>
      <point x="30" y="-230"/>
      <point x="-23" y="-173"/>
      <point x="-23" y="-130" type="qcurve" smooth="yes"/>
      <point x="-23" y="-94"/>
      <point x="33" y="-20"/>
    </contour>
    <contour>
      <point x="111" y="698" type="qcurve" smooth="yes"/>
      <point x="111" y="685"/>
      <point x="97" y="669"/>
      <point x="83" y="669" type="qcurve" smooth="yes"/>
      <point x="69" y="669"/>
      <point x="55" y="685"/>
      <point x="55" y="698" type="qcurve" smooth="yes"/>
      <point x="55" y="710"/>
      <point x="69" y="727"/>
      <point x="83" y="727" type="qcurve" smooth="yes"/>
      <point x="96" y="727"/>
      <point x="111" y="711"/>
    </contour>
  </outline>
</glyph>
<glyph name="idotless" format="2">
  <advance width="162"/>
  <unicode hex="0131"/>
  <note>
dotlessi
</note>
  <outline>
    <contour>
      <point x="92" y="525" type="line"/>
      <point x="92" y="0" type="line"/>
      <point x="70" y="0" type="line"/>
      <point x="70" y="525" type="line"/>
    </contour>
  </outline>
</glyph>
<glyph name="ij" format="2">
  <advance width="340"/>
  <unicode hex="0133"/>
  <outline>
    <contour>
      <point x="92" y="525" type="line"/>
      <point x="92" y="0" type="line"/>
      <point x="70" y="0" type="line"/>
      <point x="70" y="525" type="line"/>
    </contour>
    <contour>
      <point x="110" y="698" type="qcurve"/>
      <point x="110" y="685"/>
      <point x="96" y="669"/>
      <point x="82" y="669" type="qcurve"/>
      <point x="68" y="669"/>
      <point x="54" y="685"/>
      <point x="54" y="698" type="qcurve"/>
      <point x="54" y="710"/>
      <point x="68" y="727"/>
      <point x="82" y="727" type="qcurve"/>
      <point x="95" y="727"/>
      <point x="110" y="711"/>
    </contour>
    <contour>
      <point x="251" y="525" type="line"/>
      <point x="251" y="-60" type="line"/>
      <point x="251" y="-125"/>
      <point x="185" y="-194"/>
      <point x="125" y="-194" type="qcurve"/>
      <point x="117" y="-173" type="line"/>
      <point x="179" y="-173"/>
      <point x="229" y="-108"/>
      <point x="229" y="-56" type="qcurve"/>
      <point x="229" y="525" type="line"/>
    </contour>
    <contour>
      <point x="278" y="695" type="qcurve"/>
      <point x="278" y="682"/>
      <point x="264" y="666"/>
      <point x="250" y="666" type="qcurve"/>
      <point x="236" y="666"/>
      <point x="222" y="682"/>
      <point x="222" y="695" type="qcurve"/>
      <point x="222" y="707"/>
      <point x="236" y="724"/>
      <point x="250" y="724" type="qcurve"/>
      <point x="263" y="724"/>
      <point x="278" y="708"/>
    </contour>
  </outline>
</glyph>
<glyph name="Jcircumflex" format="2">
  <advance width="589"/>
  <unicode hex="0134"/>
  <outline>
    <contour>
      <point x="209" y="-10" type="qcurve"/>
      <point x="140" y="-10"/>
      <point x="44" y="60"/>
      <point x="20" y="120" type="qcurve"/>
      <point x="36" y="135" type="line"/>
      <point x="64" y="72"/>
      <point x="151" y="12"/>
      <point x="211" y="12" type="qcurve"/>
      <point x="286" y="12"/>
      <point x="381" y="107"/>
      <point x="381" y="213" type="qcurve"/>
      <point x="381" y="700" type="line"/>
      <point x="403" y="700" type="line"/>
      <point x="403" y="213" type="line"/>
      <point x="403" y="97"/>
      <point x="294" y="-10"/>
    </contour>
    <contour>
      <point x="509" y="700" type="line"/>
      <point x="509" y="678" type="line"/>
      <point x="252" y="678" type="line"/>
      <point x="252" y="700" type="line"/>
    </contour>
    <contour>
      <point x="489" y="770" type="line"/>
      <point x="373" y="862" type="line"/>
      <point x="388" y="862" type="line"/>
      <point x="271" y="770" type="line"/>
      <point x="259" y="783" type="line"/>
      <point x="366" y="875" type="line"/>
      <point x="394" y="875" type="line"/>
      <point x="501" y="783" type="line"/>
    </contour>
  </outline>
</glyph>
<glyph name="uni0136" format="2">
  <advance width="636"/>
  <unicode hex="0136"/>
  <outline>
    <contour>
      <point x="110" y="0" type="line"/>
      <point x="110" y="700" type="line"/>
      <point x="132" y="700" type="line"/>
      <point x="132" y="0" type="line"/>
    </contour>
    <contour>
      <point x="120" y="234" type="line"/>
      <point x="120" y="265" type="line"/>
      <point x="566" y="700" type="line"/>
      <point x="598" y="700" type="line"/>
    </contour>
    <contour>
      <point x="587" y="0" type="line"/>
      <point x="282" y="404" type="line"/>
      <point x="299" y="420" type="line"/>
      <point x="616" y="0" type="line"/>
    </contour>
    <contour>
      <point x="348" y="-192" type="qcurve"/>
      <point x="334" y="-179" type="line"/>
      <point x="356" y="-160"/>
      <point x="368" y="-141"/>
      <point x="368" y="-132" type="qcurve"/>
      <point x="368" y="-124"/>
      <point x="362" y="-114"/>
      <point x="352" y="-109" type="qcurve"/>
      <point x="342" y="-104"/>
      <point x="332" y="-90"/>
      <point x="332" y="-80" type="qcurve"/>
      <point x="332" y="-71"/>
      <point x="346" y="-56"/>
      <point x="358" y="-56" type="qcurve"/>
      <point x="376" y="-56"/>
      <point x="394" y="-81"/>
      <point x="394" y="-102" type="qcurve"/>
      <point x="394" y="-128"/>
      <point x="376" y="-169"/>
    </contour>
  </outline>
</glyph>
<glyph name="uni013C" format="2">
  <advance width="166"/>
  <unicode hex="013C"/>
  <outline>
    <contour>
      <point x="94" y="0" type="line"/>
      <point x="72" y="0" type="line"/>
      <point x="72" y="740" type="line"/>
      <point x="94" y="740" type="line"/>
    </contour>
    <contour>
      <point x="63" y="-192" type="qcurve"/>
      <point x="50" y="-179" type="line"/>
      <point x="72" y="-160"/>
      <point x="84" y="-141"/>
      <point x="84" y="-132" type="qcurve"/>
      <point x="84" y="-124"/>
      <point x="78" y="-114"/>
      <point x="67" y="-109" type="qcurve"/>
      <point x="57" y="-104"/>
      <point x="47" y="-90"/>
      <point x="47" y="-80" type="qcurve"/>
      <point x="47" y="-71"/>
      <point x="61" y="-56"/>
      <point x="74" y="-56" type="qcurve"/>
      <point x="91" y="-56"/>
      <point x="110" y="-81"/>
      <point x="110" y="-102" type="qcurve"/>
      <point x="110" y="-128"/>
      <point x="92" y="-169"/>
    </contour>
  </outline>
</glyph>
<glyph name="Lcaron" format="2">
  <advance width="493"/>
  <unicode hex="013D"/>
  <outline>
    <contour>
      <point x="122" y="22" type="line"/>
      <point x="483" y="22" type="line"/>
      <point x="483" y="0" type="line"/>
      <point x="110" y="0" type="line"/>
      <point x="110" y="700" type="line"/>
      <point x="132" y="700" type="line"/>
      <point x="132" y="13" type="line"/>
    </contour>
    <contour>
      <point x="381" y="716" type="qcurve"/>
      <point x="403" y="716"/>
      <point x="427" y="685"/>
      <point x="427" y="655" type="qcurve"/>
      <point x="427" y="621"/>
      <point x="398" y="573"/>
      <point x="363" y="540" type="qcurve"/>
      <point x="354" y="552" type="line"/>
      <point x="373" y="573"/>
      <point x="399" y="613"/>
      <point x="399" y="626" type="qcurve"/>
      <point x="399" y="642"/>
      <point x="384" y="654"/>
      <point x="370" y="659" type="qcurve"/>
      <point x="362" y="662"/>
      <point x="351" y="677"/>
      <point x="351" y="688" type="qcurve"/>
      <point x="351" y="700"/>
      <point x="366" y="716"/>
    </contour>
  </outline>
</glyph>
<glyph name="Ldot" format="2">
  <advance width="493"/>
  <unicode hex="013F"/>
  <outline>
    <contour>
      <point x="122" y="22" type="line"/>
      <point x="483" y="22" type="line"/>
      <point x="483" y="0" type="line"/>
      <point x="110" y="0" type="line"/>
      <point x="110" y="700" type="line"/>
      <point x="132" y="700" type="line"/>
      <point x="132" y="13" type="line"/>
    </contour>
    <contour>
      <point x="421" y="328" type="qcurve"/>
      <point x="421" y="315"/>
      <point x="405" y="297"/>
      <point x="391" y="297" type="qcurve"/>
      <point x="377" y="297"/>
      <point x="361" y="313"/>
      <point x="361" y="328" type="qcurve"/>
      <point x="361" y="342"/>
      <point x="377" y="359"/>
      <point x="391" y="359" type="qcurve"/>
      <point x="405" y="359"/>
      <point x="421" y="343"/>
    </contour>
  </outline>
</glyph>
<glyph name="ldot" format="2">
  <advance width="312"/>
  <unicode hex="0140"/>
  <outline>
    <contour>
      <point x="94" y="0" type="line"/>
      <point x="72" y="0" type="line"/>
      <point x="72" y="740" type="line"/>
      <point x="94" y="740" type="line"/>
    </contour>
    <contour>
      <point x="240" y="311" type="qcurve"/>
      <point x="240" y="298"/>
      <point x="224" y="280"/>
      <point x="210" y="280" type="qcurve"/>
      <point x="196" y="280"/>
      <point x="180" y="296"/>
      <point x="180" y="311" type="qcurve"/>
      <point x="180" y="325"/>
      <point x="196" y="342"/>
      <point x="210" y="342" type="qcurve"/>
      <point x="224" y="342"/>
      <point x="240" y="326"/>
    </contour>
  </outline>
</glyph>
<glyph name="Lslash" format="2">
  <advance width="485"/>
  <unicode hex="0141"/>
  <outline>
    <contour>
      <point x="103" y="22" type="line"/>
      <point x="465" y="22" type="line"/>
      <point x="465" y="0" type="line"/>
      <point x="94" y="0" type="line"/>
      <point x="94" y="700" type="line"/>
      <point x="116" y="700" type="line"/>
      <point x="116" y="11" type="line"/>
    </contour>
    <contour>
      <point x="-1" y="312" type="line"/>
      <point x="-9" y="333" type="line"/>
      <point x="256" y="454" type="line"/>
      <point x="264" y="433" type="line"/>
    </contour>
  </outline>
</glyph>
<glyph name="Nacute" format="2">
  <advance width="730"/>
  <unicode hex="0143"/>
  <outline>
    <contour>
      <point x="598" y="241" type="qcurve"/>
      <point x="598" y="700" type="line"/>
      <point x="620" y="700" type="line"/>
      <point x="620" y="0" type="line"/>
      <point x="600" y="0" type="line"/>
      <point x="115" y="686" type="line"/>
      <point x="130" y="686" type="line"/>
      <point x="131" y="661"/>
      <point x="133" y="525"/>
      <point x="132" y="470" type="qcurve"/>
      <point x="132" y="0" type="line"/>
      <point x="110" y="0" type="line"/>
      <point x="110" y="700" type="line"/>
      <point x="132" y="700" type="line"/>
      <point x="605" y="31" type="line"/>
      <point x="601" y="31" type="line"/>
      <point x="601" y="75"/>
      <point x="599" y="177"/>
    </contour>
    <contour>
      <point x="510" y="869" type="line"/>
      <point x="364" y="770" type="line"/>
      <point x="354" y="785" type="line"/>
      <point x="496" y="890" type="line"/>
    </contour>
  </outline>
</glyph>
<glyph name="nacute" format="2">
  <advance width="541"/>
  <unicode hex="0144"/>
  <outline>
    <contour>
      <point x="288" y="530" type="qcurve"/>
      <point x="376" y="530"/>
      <point x="473" y="434"/>
      <point x="473" y="328" type="qcurve"/>
      <point x="473" y="0" type="line"/>
      <point x="451" y="0" type="line"/>
      <point x="451" y="328" type="line"/>
      <point x="451" y="423"/>
      <point x="365" y="508"/>
      <point x="286" y="508" type="qcurve"/>
      <point x="201" y="508"/>
      <point x="92" y="407"/>
      <point x="92" y="376" type="qcurve"/>
      <point x="92" y="0" type="line"/>
      <point x="84" y="0"/>
      <point x="77" y="0"/>
      <point x="70" y="0" type="qcurve"/>
      <point x="70" y="525" type="line"/>
      <point x="90" y="525" type="line"/>
      <point x="92" y="404" type="line"/>
      <point x="83" y="401" type="line"/>
      <point x="99" y="453"/>
      <point x="215" y="530"/>
    </contour>
    <contour>
      <point x="377" y="729" type="line"/>
      <point x="233" y="625" type="line"/>
      <point x="223" y="640" type="line"/>
      <point x="363" y="750" type="line"/>
    </contour>
  </outline>
</glyph>
<glyph name="Obreve" format="2">
  <advance width="798"/>
  <unicode hex="014E"/>
  <outline>
    <contour>
      <point x="399" y="710" type="qcurve"/>
      <point x="550" y="710"/>
      <point x="743" y="508"/>
      <point x="743" y="349" type="qcurve"/>
      <point x="743" y="191"/>
      <point x="550" y="-10"/>
      <point x="399" y="-10" type="qcurve"/>
      <point x="248" y="-10"/>
      <point x="55" y="191"/>
      <point x="55" y="349" type="qcurve"/>
      <point x="55" y="507"/>
      <point x="248" y="710"/>
    </contour>
    <contour>
      <point x="399" y="12" type="qcurve"/>
      <point x="539" y="12"/>
      <point x="720" y="202"/>
      <point x="720" y="349" type="qcurve"/>
      <point x="720" y="496"/>
      <point x="539" y="688"/>
      <point x="399" y="688" type="qcurve"/>
      <point x="260" y="688"/>
      <point x="78" y="496"/>
      <point x="78" y="349" type="qcurve"/>
      <point x="78" y="202"/>
      <point x="260" y="12"/>
    </contour>
    <contour>
      <point x="403" y="787" type="qcurve"/>
      <point x="352" y="787"/>
      <point x="283" y="851"/>
      <point x="271" y="907" type="qcurve"/>
      <point x="293" y="909" type="line"/>
      <point x="303" y="861"/>
      <point x="363" y="808"/>
      <point x="403" y="808" type="qcurve"/>
      <point x="442" y="808"/>
      <point x="504" y="861"/>
      <point x="513" y="909" type="qcurve"/>
      <point x="535" y="907" type="line"/>
      <point x="524" y="851"/>
      <point x="453" y="787"/>
    </contour>
  </outline>
</glyph>
<glyph name="OE" format="2">
  <advance width="1002"/>
  <unicode hex="0152"/>
  <outline>
    <contour>
      <point x="55" y="350" type="qcurve"/>
      <point x="55" y="502"/>
      <point x="247" y="700"/>
      <point x="371" y="700" type="qcurve"/>
      <point x="937" y="700" type="line"/>
      <point x="937" y="678" type="line"/>
      <point x="560" y="678" type="line"/>
      <point x="568" y="688" type="line"/>
      <point x="568" y="355" type="line"/>
      <point x="556" y="373" type="line"/>
      <point x="879" y="373" type="line"/>
      <point x="879" y="351" type="line"/>
      <point x="555" y="351" type="line"/>
      <point x="568" y="366" type="line"/>
      <point x="568" y="13" type="line"/>
      <point x="561" y="22" type="line"/>
      <point x="931" y="22" type="line"/>
      <point x="931" y="0" type="line"/>
      <point x="380" y="0" type="line"/>
      <point x="253" y="0"/>
      <point x="55" y="199"/>
    </contour>
    <contour>
      <point x="554" y="22" type="line"/>
      <point x="546" y="13" type="line"/>
      <point x="546" y="688" type="line"/>
      <point x="555" y="678" type="line"/>
      <point x="377" y="678" type="line"/>
      <point x="262" y="678"/>
      <point x="78" y="490"/>
      <point x="78" y="350" type="qcurve"/>
      <point x="78" y="211"/>
      <point x="267" y="22"/>
      <point x="386" y="22" type="qcurve"/>
    </contour>
  </outline>
</glyph>
<glyph name="Rcaron" format="2">
  <advance width="609"/>
  <unicode hex="0158"/>
  <outline>
    <contour>
      <point x="545" y="507" type="qcurve"/>
      <point x="545" y="411"/>
      <point x="444" y="291"/>
      <point x="361" y="291" type="qcurve"/>
      <point x="121" y="291" type="line"/>
      <point x="121" y="313" type="line"/>
      <point x="367" y="313" type="line"/>
      <point x="437" y="313"/>
      <point x="522" y="421"/>
      <point x="522" y="507" type="qcurve"/>
      <point x="522" y="582"/>
      <point x="437" y="678"/>
      <point x="367" y="678" type="qcurve"/>
      <point x="119" y="678" type="line"/>
      <point x="132" y="690" type="line"/>
      <point x="132" y="0" type="line"/>
      <point x="110" y="0" type="line"/>
      <point x="110" y="700" type="line"/>
      <point x="361" y="700" type="line"/>
      <point x="444" y="700"/>
      <point x="545" y="593"/>
    </contour>
    <contour>
      <point x="368" y="298" type="line"/>
      <point x="391" y="305" type="line"/>
      <point x="569" y="0" type="line"/>
      <point x="543" y="0" type="line"/>
    </contour>
    <contour>
      <point x="404" y="850" type="line"/>
      <point x="288" y="758" type="line"/>
      <point x="303" y="758" type="line"/>
      <point x="186" y="850" type="line"/>
      <point x="174" y="837" type="line"/>
      <point x="281" y="745" type="line"/>
      <point x="309" y="745" type="line"/>
      <point x="416" y="837" type="line"/>
    </contour>
  </outline>
</glyph>
<glyph name="rcaron" format="2">
  <advance width="311"/>
  <unicode hex="0159"/>
  <outline>
    <contour>
      <point x="316" y="522" type="qcurve"/>
      <point x="309" y="499" type="line"/>
      <point x="293" y="504"/>
      <point x="264" y="508"/>
      <point x="253" y="508" type="qcurve"/>
      <point x="172" y="508"/>
      <point x="92" y="392"/>
      <point x="92" y="338" type="qcurve"/>
      <point x="92" y="0" type="line"/>
      <point x="70" y="0" type="line"/>
      <point x="70" y="525" type="line"/>
      <point x="90" y="525" type="line"/>
      <point x="91" y="398" type="line"/>
      <point x="85" y="396" type="line"/>
      <point x="95" y="445"/>
      <point x="183" y="530"/>
      <point x="258" y="530" type="qcurve"/>
      <point x="275" y="530"/>
      <point x="304" y="526"/>
    </contour>
    <contour>
      <point x="191" y="608" type="line"/>
      <point x="176" y="608" type="line"/>
      <point x="292" y="700" type="line"/>
      <point x="304" y="687" type="line"/>
      <point x="197" y="595" type="line"/>
      <point x="169" y="595" type="line"/>
      <point x="62" y="687" type="line"/>
      <point x="74" y="700" type="line"/>
    </contour>
  </outline>
</glyph>
<glyph name="Scedilla" format="2">
  <advance width="567"/>
  <unicode hex="015E"/>
  <outline>
    <contour>
      <point x="43" y="115" type="qcurve"/>
      <point x="61" y="131" type="line"/>
      <point x="99" y="72"/>
      <point x="221" y="12"/>
      <point x="303" y="12" type="qcurve"/>
      <point x="387" y="12"/>
      <point x="504" y="102"/>
      <point x="504" y="172" type="qcurve"/>
      <point x="504" y="244"/>
      <point x="370" y="312"/>
      <point x="264" y="342" type="qcurve"/>
      <point x="170" y="368"/>
      <point x="65" y="451"/>
      <point x="65" y="526" type="qcurve"/>
      <point x="65" y="605"/>
      <point x="196" y="710"/>
      <point x="292" y="710" type="qcurve"/>
      <point x="373" y="710"/>
      <point x="477" y="658"/>
      <point x="511" y="611" type="qcurve"/>
      <point x="494" y="596" type="line"/>
      <point x="461" y="640"/>
      <point x="366" y="688"/>
      <point x="292" y="688" type="qcurve"/>
      <point x="206" y="688"/>
      <point x="88" y="597"/>
      <point x="88" y="526" type="qcurve"/>
      <point x="88" y="458"/>
      <point x="188" y="385"/>
      <point x="272" y="363" type="qcurve"/>
      <point x="391" y="333"/>
      <point x="527" y="251"/>
      <point x="527" y="172" type="qcurve"/>
      <point x="527" y="94"/>
      <point x="398" y="-10"/>
      <point x="303" y="-10" type="qcurve"/>
      <point x="214" y="-10"/>
      <point x="83" y="55"/>
    </contour>
    <contour>
      <point x="257" y="-84" type="line"/>
      <point x="239" y="-81" type="line"/>
      <point x="293" y="-3" type="line"/>
      <point x="315" y="-3" type="line"/>
    </contour>
    <contour>
      <point x="372" y="-142" type="qcurve"/>
      <point x="372" y="-160"/>
      <point x="354" y="-196"/>
      <point x="332" y="-205" type="qcurve"/>
      <point x="310" y="-214"/>
      <point x="262" y="-224"/>
      <point x="226" y="-230" type="qcurve"/>
      <point x="222" y="-213" type="line"/>
      <point x="267" y="-206"/>
      <point x="352" y="-182"/>
      <point x="352" y="-141" type="qcurve"/>
      <point x="352" y="-119"/>
      <point x="310" y="-91"/>
      <point x="252" y="-91" type="qcurve"/>
      <point x="239" y="-83" type="line"/>
      <point x="239" y="-81" type="line"/>
      <point x="258" y="-74" type="line"/>
      <point x="321" y="-75"/>
      <point x="372" y="-111"/>
    </contour>
  </outline>
</glyph>
<glyph name="uni0162" format="2">
  <advance width="488"/>
  <unicode hex="0162"/>
  <outline>
    <contour>
      <point x="255" y="0" type="line"/>
      <point x="233" y="0" type="line"/>
      <point x="233" y="688" type="line"/>
      <point x="255" y="688" type="line"/>
    </contour>
    <contour>
      <point x="468" y="678" type="line"/>
      <point x="20" y="678" type="line"/>
      <point x="20" y="700" type="line"/>
      <point x="468" y="700" type="line"/>
    </contour>
    <contour>
      <point x="197" y="-81" type="line"/>
      <point x="179" y="-78" type="line"/>
      <point x="233" y="0" type="line"/>
      <point x="255" y="0" type="line"/>
    </contour>
    <contour>
      <point x="312" y="-139" type="qcurve"/>
      <point x="312" y="-157"/>
      <point x="294" y="-193"/>
      <point x="272" y="-202" type="qcurve"/>
      <point x="250" y="-211"/>
      <point x="202" y="-221"/>
      <point x="166" y="-227" type="qcurve"/>
      <point x="162" y="-210" type="line"/>
      <point x="207" y="-203"/>
      <point x="292" y="-179"/>
      <point x="292" y="-138" type="qcurve"/>
      <point x="292" y="-116"/>
      <point x="250" y="-88"/>
      <point x="192" y="-88" type="qcurve"/>
      <point x="179" y="-80" type="line"/>
      <point x="179" y="-78" type="line"/>
      <point x="198" y="-71" type="line"/>
      <point x="261" y="-72"/>
      <point x="312" y="-108"/>
    </contour>
  </outline>
</glyph>
<glyph name="Tcaron" format="2">
  <advance width="488"/>
  <unicode hex="0164"/>
  <outline>
    <contour>
      <point x="255" y="0" type="line"/>
      <point x="233" y="0" type="line"/>
      <point x="233" y="688" type="line"/>
      <point x="255" y="688" type="line"/>
    </contour>
    <contour>
      <point x="468" y="678" type="line"/>
      <point x="20" y="678" type="line"/>
      <point x="20" y="700" type="line"/>
      <point x="468" y="700" type="line"/>
    </contour>
    <contour>
      <point x="354" y="850" type="line"/>
      <point x="238" y="758" type="line"/>
      <point x="253" y="758" type="line"/>
      <point x="136" y="850" type="line"/>
      <point x="124" y="837" type="line"/>
      <point x="231" y="745" type="line"/>
      <point x="259" y="745" type="line"/>
      <point x="366" y="837" type="line"/>
    </contour>
  </outline>
</glyph>
<glyph name="tbar" format="2">
  <advance width="350"/>
  <unicode hex="0167"/>
  <outline>
    <contour>
      <point x="185" y="659" type="line"/>
      <point x="185" y="0" type="line"/>
      <point x="163" y="0" type="line"/>
      <point x="163" y="659" type="line"/>
    </contour>
    <contour>
      <point x="335" y="525" type="line"/>
      <point x="335" y="503" type="line"/>
      <point x="20" y="503" type="line"/>
      <point x="20" y="525" type="line"/>
    </contour>
    <contour>
      <point x="317" y="280" type="line"/>
      <point x="49" y="280" type="line"/>
      <point x="49" y="301" type="line"/>
      <point x="317" y="301" type="line"/>
    </contour>
  </outline>
</glyph>
<glyph name="Utilde" format="2">
  <advance width="744"/>
  <unicode hex="0168"/>
  <outline>
    <contour>
      <point x="612" y="700" type="line"/>
      <point x="634" y="700" type="line"/>
      <point x="634" y="269" type="line"/>
      <point x="634" y="149"/>
      <point x="484" y="-6"/>
      <point x="368" y="-6" type="qcurve"/>
      <point x="255" y="-6"/>
      <point x="111" y="149"/>
      <point x="110" y="269" type="qcurve"/>
      <point x="110" y="700" type="line"/>
      <point x="132" y="700" type="line"/>
      <point x="132" y="278" type="line"/>
      <point x="132" y="163"/>
      <point x="263" y="16"/>
      <point x="368" y="16" type="qcurve"/>
      <point x="476" y="16"/>
      <point x="612" y="163"/>
      <point x="612" y="278" type="qcurve"/>
    </contour>
    <contour>
      <point x="262" y="771" type="qcurve"/>
      <point x="240" y="771" type="line"/>
      <point x="240" y="802"/>
      <point x="274" y="838"/>
      <point x="296" y="838" type="qcurve"/>
      <point x="320" y="838"/>
      <point x="362" y="818"/>
      <point x="380" y="809" type="qcurve"/>
      <point x="388" y="806"/>
      <point x="418" y="792"/>
      <point x="430" y="792" type="qcurve"/>
      <point x="450" y="792"/>
      <point x="482" y="813"/>
      <point x="482" y="837" type="qcurve"/>
      <point x="504" y="837" type="line"/>
      <point x="504" y="805"/>
      <point x="462" y="770"/>
      <point x="432" y="770" type="qcurve"/>
      <point x="408" y="770"/>
      <point x="368" y="790"/>
      <point x="350" y="798" type="qcurve"/>
      <point x="344" y="801"/>
      <point x="314" y="816"/>
      <point x="298" y="816" type="qcurve"/>
      <point x="284" y="816"/>
      <point x="262" y="793"/>
    </contour>
  </outline>
</glyph>
<glyph name="uring" format="2">
  <advance width="538"/>
  <unicode hex="016F"/>
  <outline>
    <contour>
      <point x="265" y="12" type="qcurve"/>
      <point x="338" y="12"/>
      <point x="444" y="117"/>
      <point x="444" y="149" type="qcurve"/>
      <point x="444" y="525" type="line"/>
      <point x="466" y="525" type="line"/>
      <point x="466" y="0" type="line"/>
      <point x="446" y="0" type="line"/>
      <point x="444" y="121" type="line"/>
      <point x="453" y="123" type="line"/>
      <point x="435" y="69"/>
      <point x="330" y="-10"/>
      <point x="263" y="-10" type="qcurve"/>
      <point x="172" y="-10"/>
      <point x="73" y="88"/>
      <point x="73" y="197" type="qcurve"/>
      <point x="73" y="525" type="line"/>
      <point x="95" y="525" type="line"/>
      <point x="95" y="197" type="line"/>
      <point x="95" y="99"/>
      <point x="183" y="12"/>
    </contour>
    <contour>
      <point x="362" y="683" type="qcurve"/>
      <point x="362" y="648"/>
      <point x="306" y="595"/>
      <point x="270" y="595" type="qcurve"/>
      <point x="232" y="595"/>
      <point x="178" y="647"/>
      <point x="178" y="683" type="qcurve"/>
      <point x="178" y="720"/>
      <point x="232" y="773"/>
      <point x="270" y="773" type="qcurve"/>
      <point x="308" y="773"/>
      <point x="362" y="720"/>
    </contour>
    <contour>
      <point x="198" y="683" type="qcurve"/>
      <point x="198" y="656"/>
      <point x="240" y="615"/>
      <point x="270" y="615" type="qcurve"/>
      <point x="300" y="615"/>
      <point x="340" y="656"/>
      <point x="340" y="683" type="qcurve"/>
      <point x="340" y="715"/>
      <point x="300" y="753"/>
      <point x="270" y="753" type="qcurve"/>
      <point x="238" y="753"/>
      <point x="198" y="714"/>
    </contour>
  </outline>
</glyph>
<glyph name="Uhungarumlaut" format="2">
  <advance width="744"/>
  <unicode hex="0170"/>
  <outline>
    <contour>
      <point x="612" y="700" type="line"/>
      <point x="634" y="700" type="line"/>
      <point x="634" y="269" type="line"/>
      <point x="634" y="149"/>
      <point x="484" y="-6"/>
      <point x="368" y="-6" type="qcurve"/>
      <point x="255" y="-6"/>
      <point x="111" y="149"/>
      <point x="110" y="269" type="qcurve"/>
      <point x="110" y="700" type="line"/>
      <point x="132" y="700" type="line"/>
      <point x="132" y="278" type="line"/>
      <point x="132" y="163"/>
      <point x="263" y="16"/>
      <point x="368" y="16" type="qcurve"/>
      <point x="476" y="16"/>
      <point x="612" y="163"/>
      <point x="612" y="278" type="qcurve"/>
    </contour>
    <contour>
      <point x="445" y="859" type="line"/>
      <point x="301" y="755" type="line"/>
      <point x="291" y="770" type="line"/>
      <point x="431" y="880" type="line"/>
    </contour>
    <contour>
      <point x="565" y="859" type="line"/>
      <point x="421" y="755" type="line"/>
      <point x="411" y="770" type="line"/>
      <point x="551" y="880" type="line"/>
    </contour>
  </outline>
</glyph>
<glyph name="Uogonek" format="2">
  <advance width="744"/>
  <unicode hex="0172"/>
  <outline>
    <contour>
      <point x="379" y="-4" type="qcurve" smooth="yes"/>
      <point x="247" y="-4.0"/>
      <point x="111" y="154"/>
      <point x="110" y="269" type="qcurve"/>
      <point x="110" y="700" type="line"/>
      <point x="132" y="700" type="line"/>
      <point x="132" y="278" type="line"/>
      <point x="132.0" y="163.0"/>
      <point x="263" y="16"/>
      <point x="368" y="16" type="qcurve"/>
      <point x="476" y="16"/>
      <point x="612" y="163"/>
      <point x="612" y="278" type="qcurve"/>
      <point x="612" y="700" type="line"/>
      <point x="634" y="700" type="line"/>
      <point x="634" y="269" type="line"/>
      <point x="634.0" y="165.79087452471484"/>
      <point x="513.0" y="21.0"/>
      <point x="437" y="4" type="qcurve"/>
      <point x="403.0" y="0.0"/>
      <point x="332.0" y="-76.68181818181819"/>
      <point x="332" y="-130" type="qcurve" smooth="yes"/>
      <point x="332" y="-163"/>
      <point x="377" y="-208"/>
      <point x="410" y="-208" type="qcurve" smooth="yes"/>
      <point x="436" y="-208"/>
      <point x="474" y="-183"/>
      <point x="485" y="-163" type="qcurve"/>
      <point x="500" y="-176" type="line"/>
      <point x="488" y="-200"/>
      <point x="440" y="-230"/>
      <point x="410" y="-230" type="qcurve" smooth="yes"/>
      <point x="368" y="-230"/>
      <point x="310" y="-172"/>
      <point x="310" y="-130" type="qcurve" smooth="yes"/>
      <point x="310.0" y="-88.4014598540146"/>
      <point x="360.7203714834025" y="-12.796758766956568"/>
      <point x="410" y="9" type="qcurve"/>
      <point x="427" y="9" type="line"/>
      <point x="418" y="4"/>
      <point x="394.2195121951219" y="-4.0"/>
    </contour>
  </outline>
</glyph>
<glyph name="wcircumflex" format="2">
  <advance width="743"/>
  <unicode hex="0175"/>
  <outline>
    <contour>
      <point x="704" y="525" type="line"/>
      <point x="728" y="525" type="line"/>
      <point x="543" y="0" type="line"/>
      <point x="529" y="0" type="line"/>
      <point x="364" y="422" type="line"/>
      <point x="379" y="422" type="line"/>
      <point x="214" y="0" type="line"/>
      <point x="200" y="0" type="line"/>
      <point x="15" y="525" type="line"/>
      <point x="39" y="525" type="line"/>
      <point x="215" y="24" type="line"/>
      <point x="200" y="24" type="line"/>
      <point x="364" y="444" type="line"/>
      <point x="379" y="444" type="line"/>
      <point x="543" y="24" type="line"/>
      <point x="528" y="24" type="line"/>
    </contour>
    <contour>
      <point x="480" y="620" type="line"/>
      <point x="364" y="712" type="line"/>
      <point x="380" y="712" type="line"/>
      <point x="262" y="620" type="line"/>
      <point x="250" y="633" type="line"/>
      <point x="358" y="725" type="line"/>
      <point x="386" y="725" type="line"/>
      <point x="492" y="633" type="line"/>
    </contour>
  </outline>
</glyph>
<glyph name="Ydieresis" format="2">
  <advance width="592"/>
  <unicode hex="0178"/>
  <outline>
    <contour>
      <point x="546" y="700" type="line"/>
      <point x="572" y="700" type="line"/>
      <point x="302" y="300" type="line"/>
      <point x="311" y="339" type="line"/>
      <point x="311" y="0" type="line"/>
      <point x="289" y="0" type="line"/>
      <point x="289" y="339" type="line"/>
      <point x="297" y="300" type="line"/>
      <point x="20" y="700" type="line"/>
      <point x="46" y="700" type="line"/>
      <point x="305" y="327" type="line"/>
      <point x="294" y="327" type="line"/>
    </contour>
    <contour>
      <point x="248" y="797" type="qcurve"/>
      <point x="248" y="785"/>
      <point x="235" y="770"/>
      <point x="221" y="770" type="qcurve"/>
      <point x="209" y="770"/>
      <point x="194" y="785"/>
      <point x="194" y="797" type="qcurve"/>
      <point x="194" y="808"/>
      <point x="208" y="824"/>
      <point x="221" y="824" type="qcurve"/>
      <point x="235" y="824"/>
      <point x="248" y="809"/>
    </contour>
    <contour>
      <point x="398" y="797" type="qcurve"/>
      <point x="398" y="785"/>
      <point x="385" y="770"/>
      <point x="371" y="770" type="qcurve"/>
      <point x="359" y="770"/>
      <point x="344" y="785"/>
      <point x="344" y="797" type="qcurve"/>
      <point x="344" y="808"/>
      <point x="358" y="824"/>
      <point x="371" y="824" type="qcurve"/>
      <point x="385" y="824"/>
      <point x="398" y="809"/>
    </contour>
  </outline>
</glyph>
<glyph name="zacute" format="2">
  <advance width="429"/>
  <unicode hex="017A"/>
  <outline>
    <contour>
      <point x="47" y="22" type="line"/>
      <point x="394" y="22" type="line"/>
      <point x="394" y="0" type="line"/>
      <point x="35" y="0" type="line"/>
      <point x="35" y="26" type="line"/>
      <point x="361" y="521" type="line"/>
      <point x="359" y="503" type="line"/>
      <point x="35" y="503" type="line"/>
      <point x="35" y="525" type="line"/>
      <point x="373" y="525" type="line"/>
      <point x="373" y="497" type="line"/>
      <point x="51" y="10" type="line"/>
    </contour>
    <contour>
      <point x="302" y="729" type="line"/>
      <point x="158" y="625" type="line"/>
      <point x="148" y="640" type="line"/>
      <point x="288" y="750" type="line"/>
    </contour>
  </outline>
</glyph>
<glyph name="Zdotaccent" format="2">
  <advance width="634"/>
  <unicode hex="017B"/>
  <outline>
    <contour>
      <point x="86" y="700" type="line"/>
      <point x="563" y="700" type="line"/>
      <point x="563" y="677" type="line"/>
      <point x="78" y="10" type="line"/>
      <point x="75" y="22" type="line"/>
      <point x="574" y="22" type="line"/>
      <point x="574" y="0" type="line"/>
      <point x="60" y="0" type="line"/>
      <point x="60" y="24" type="line"/>
      <point x="545" y="692" type="line"/>
      <point x="557" y="678" type="line"/>
      <point x="86" y="678" type="line"/>
    </contour>
    <contour>
      <point x="345" y="799" type="qcurve"/>
      <point x="345" y="786"/>
      <point x="331" y="770"/>
      <point x="317" y="770" type="qcurve"/>
      <point x="303" y="770"/>
      <point x="289" y="786"/>
      <point x="289" y="799" type="qcurve"/>
      <point x="289" y="811"/>
      <point x="303" y="828"/>
      <point x="317" y="828" type="qcurve"/>
      <point x="330" y="828"/>
      <point x="345" y="812"/>
    </contour>
  </outline>
</glyph>
<glyph name="zdotaccent" format="2">
  <advance width="429"/>
  <unicode hex="017C"/>
  <outline>
    <contour>
      <point x="47" y="22" type="line"/>
      <point x="394" y="22" type="line"/>
      <point x="394" y="0" type="line"/>
      <point x="35" y="0" type="line"/>
      <point x="35" y="26" type="line"/>
      <point x="361" y="521" type="line"/>
      <point x="359" y="503" type="line"/>
      <point x="35" y="503" type="line"/>
      <point x="35" y="525" type="line"/>
      <point x="373" y="525" type="line"/>
      <point x="373" y="497" type="line"/>
      <point x="51" y="10" type="line"/>
    </contour>
    <contour>
      <point x="242" y="624" type="qcurve"/>
      <point x="242" y="611"/>
      <point x="228" y="595"/>
      <point x="214" y="595" type="qcurve"/>
      <point x="200" y="595"/>
      <point x="186" y="611"/>
      <point x="186" y="624" type="qcurve"/>
      <point x="186" y="636"/>
      <point x="200" y="653"/>
      <point x="214" y="653" type="qcurve"/>
      <point x="228" y="653"/>
      <point x="242" y="637"/>
    </contour>
  </outline>
</glyph>
<glyph name="zcaron" format="2">
  <advance width="429"/>
  <unicode hex="017E"/>
  <outline>
    <contour>
      <point x="47" y="22" type="line"/>
      <point x="394" y="22" type="line"/>
      <point x="394" y="0" type="line"/>
      <point x="35" y="0" type="line"/>
      <point x="35" y="26" type="line"/>
      <point x="361" y="521" type="line"/>
      <point x="359" y="503" type="line"/>
      <point x="35" y="503" type="line"/>
      <point x="35" y="525" type="line"/>
      <point x="373" y="525" type="line"/>
      <point x="373" y="497" type="line"/>
      <point x="51" y="10" type="line"/>
    </contour>
    <contour>
      <point x="222" y="608" type="line"/>
      <point x="208" y="608" type="line"/>
      <point x="324" y="700" type="line"/>
      <point x="336" y="687" type="line"/>
      <point x="228" y="595" type="line"/>
      <point x="200" y="595" type="line"/>
      <point x="94" y="687" type="line"/>
      <point x="106" y="700" type="line"/>
    </contour>
  </outline>
</glyph>
<glyph name="florin" format="2">
  <advance width="519"/>
  <unicode hex="0192"/>
  <note>
florin
</note>
  <outline>
    <contour>
      <point x="96.0" y="-30.0" type="qcurve" smooth="yes"/>
      <point x="70.0" y="-30.0"/>
      <point x="23.0" y="-12.0"/>
      <point x="4.0" y="2.0" type="qcurve"/>
      <point x="14" y="22" type="line"/>
      <point x="40" y="4"/>
      <point x="75.58024691358025" y="-8.0"/>
      <point x="100" y="-8" type="qcurve"/>
      <point x="146" y="-8"/>
      <point x="187.07070893955398" y="61.00052851877176"/>
      <point x="194" y="100" type="qcurve" smooth="yes"/>
      <point x="272" y="539.0" type="line" smooth="yes"/>
      <point x="286" y="616"/>
      <point x="349" y="693.0"/>
      <point x="407" y="693.0" type="qcurve"/>
      <point x="438" y="693.0"/>
      <point x="491" y="675"/>
      <point x="516.0" y="658.0" type="qcurve"/>
      <point x="505" y="638" type="line"/>
      <point x="480" y="655"/>
      <point x="430.0" y="671.0"/>
      <point x="402" y="671" type="qcurve" smooth="yes"/>
      <point x="359" y="671"/>
      <point x="306" y="601"/>
      <point x="293" y="528" type="qcurve" smooth="yes"/>
      <point x="221" y="120.0" type="line" smooth="yes"/>
      <point x="207.60349728250372" y="44.08648460085439"/>
      <point x="148.16535433070865" y="-30.0"/>
    </contour>
    <contour>
      <point x="449" y="422" type="line"/>
      <point x="80" y="422" type="line"/>
      <point x="80" y="444" type="line"/>
      <point x="449" y="444" type="line"/>
    </contour>
  </outline>
</glyph>
<glyph name="uni019D" format="2">
  <advance width="730"/>
  <unicode hex="019D"/>
  <outline>
    <contour>
      <point x="132" y="470" type="qcurve"/>
      <point x="132" y="-60" type="line"/>
      <point x="132" y="-125"/>
      <point x="66" y="-194"/>
      <point x="6" y="-194" type="qcurve"/>
      <point x="-2" y="-173" type="line"/>
      <point x="60" y="-173"/>
      <point x="110" y="-108"/>
      <point x="110" y="-56" type="qcurve"/>
      <point x="110" y="700" type="line"/>
      <point x="132" y="700" type="line"/>
      <point x="605" y="31" type="line"/>
      <point x="601" y="31" type="line"/>
      <point x="601" y="75"/>
      <point x="599" y="177"/>
      <point x="598" y="241" type="qcurve"/>
      <point x="598" y="700" type="line"/>
      <point x="620" y="700" type="line"/>
      <point x="620" y="0" type="line"/>
      <point x="600" y="0" type="line"/>
      <point x="115" y="686" type="line"/>
      <point x="130" y="686" type="line"/>
      <point x="131" y="672"/>
      <point x="132" y="611"/>
      <point x="132" y="575" type="qcurve"/>
      <point x="132" y="549"/>
      <point x="132" y="494"/>
    </contour>
  </outline>
</glyph>
<glyph name="ohorn" format="2">
  <advance width="615"/>
  <unicode hex="01A1"/>
  <outline>
    <contour>
      <point x="308" y="530" type="qcurve"/>
      <point x="427" y="530"/>
      <point x="575" y="380"/>
      <point x="575" y="263" type="qcurve"/>
      <point x="575" y="144"/>
      <point x="427" y="-10"/>
      <point x="308" y="-10" type="qcurve"/>
      <point x="190" y="-10"/>
      <point x="40" y="144"/>
      <point x="40" y="263" type="qcurve"/>
      <point x="40" y="380"/>
      <point x="190" y="530"/>
    </contour>
    <contour>
      <point x="308" y="12" type="qcurve"/>
      <point x="414" y="12"/>
      <point x="553" y="153"/>
      <point x="553" y="263" type="qcurve"/>
      <point x="553" y="369"/>
      <point x="414" y="508"/>
      <point x="308" y="508" type="qcurve"/>
      <point x="201" y="508"/>
      <point x="62" y="369"/>
      <point x="62" y="263" type="qcurve"/>
      <point x="62" y="153"/>
      <point x="201" y="12"/>
    </contour>
    <contour>
      <point x="366" y="504" type="qcurve"/>
      <point x="366" y="525" type="line"/>
      <point x="415" y="525"/>
      <point x="462" y="574"/>
      <point x="462" y="624" type="qcurve"/>
      <point x="484" y="624" type="line"/>
      <point x="484" y="569"/>
      <point x="422" y="504"/>
    </contour>
  </outline>
</glyph>
<glyph name="uhorn" format="2">
  <advance width="564"/>
  <unicode hex="01B0"/>
  <outline>
    <contour>
      <point x="265" y="12" type="qcurve"/>
      <point x="338" y="12"/>
      <point x="444" y="117"/>
      <point x="444" y="149" type="qcurve"/>
      <point x="444" y="525" type="line"/>
      <point x="466" y="525" type="line"/>
      <point x="466" y="0" type="line"/>
      <point x="446" y="0" type="line"/>
      <point x="444" y="121" type="line"/>
      <point x="453" y="123" type="line"/>
      <point x="435" y="69"/>
      <point x="330" y="-10"/>
      <point x="263" y="-10" type="qcurve"/>
      <point x="172" y="-10"/>
      <point x="73" y="88"/>
      <point x="73" y="197" type="qcurve"/>
      <point x="73" y="525" type="line"/>
      <point x="95" y="525" type="line"/>
      <point x="95" y="197" type="line"/>
      <point x="95" y="99"/>
      <point x="183" y="12"/>
    </contour>
    <contour>
      <point x="444" y="504" type="qcurve"/>
      <point x="444" y="525" type="line"/>
      <point x="493" y="525"/>
      <point x="540" y="574"/>
      <point x="540" y="624" type="qcurve"/>
      <point x="562" y="624" type="line"/>
      <point x="562" y="569"/>
      <point x="500" y="504"/>
    </contour>
  </outline>
</glyph>
<glyph name="uni01C4" format="2">
  <advance width="1356"/>
  <unicode hex="01C4"/>
  <outline>
    <contour>
      <point x="110" y="700" type="line"/>
      <point x="357" y="700" type="line"/>
      <point x="485" y="700"/>
      <point x="682" y="502"/>
      <point x="682" y="350" type="qcurve"/>
      <point x="682" y="199"/>
      <point x="485" y="0"/>
      <point x="357" y="0" type="qcurve"/>
      <point x="110" y="0" type="line"/>
    </contour>
    <contour>
      <point x="122" y="22" type="line"/>
      <point x="352" y="22" type="line"/>
      <point x="473" y="22"/>
      <point x="659" y="211"/>
      <point x="659" y="350" type="qcurve"/>
      <point x="659" y="490"/>
      <point x="473" y="678"/>
      <point x="352" y="678" type="qcurve"/>
      <point x="121" y="678" type="line"/>
      <point x="132" y="689" type="line"/>
      <point x="132" y="13" type="line"/>
    </contour>
    <contour>
      <point x="808" y="700" type="line"/>
      <point x="1285" y="700" type="line"/>
      <point x="1285" y="677" type="line"/>
      <point x="800" y="10" type="line"/>
      <point x="797" y="22" type="line"/>
      <point x="1296" y="22" type="line"/>
      <point x="1296" y="0" type="line"/>
      <point x="782" y="0" type="line"/>
      <point x="782" y="24" type="line"/>
      <point x="1267" y="692" type="line"/>
      <point x="1279" y="678" type="line"/>
      <point x="808" y="678" type="line"/>
    </contour>
    <contour>
      <point x="1148" y="850" type="line"/>
      <point x="1032" y="758" type="line"/>
      <point x="1047" y="758" type="line"/>
      <point x="930" y="850" type="line"/>
      <point x="918" y="837" type="line"/>
      <point x="1025" y="745" type="line"/>
      <point x="1053" y="745" type="line"/>
      <point x="1160" y="837" type="line"/>
    </contour>
  </outline>
</glyph>
<glyph name="uni01C7" format="2">
  <advance width="1082"/>
  <unicode hex="01C7"/>
  <outline>
    <contour>
      <point x="122" y="22" type="line"/>
      <point x="483" y="22" type="line"/>
      <point x="483" y="0" type="line"/>
      <point x="110" y="0" type="line"/>
      <point x="110" y="700" type="line"/>
      <point x="132" y="700" type="line"/>
      <point x="132" y="13" type="line"/>
    </contour>
    <contour>
      <point x="702" y="-10" type="qcurve"/>
      <point x="633" y="-10"/>
      <point x="537" y="60"/>
      <point x="513" y="120" type="qcurve"/>
      <point x="529" y="135" type="line"/>
      <point x="557" y="72"/>
      <point x="644" y="12"/>
      <point x="704" y="12" type="qcurve"/>
      <point x="779" y="12"/>
      <point x="874" y="107"/>
      <point x="874" y="213" type="qcurve"/>
      <point x="874" y="700" type="line"/>
      <point x="896" y="700" type="line"/>
      <point x="896" y="213" type="line"/>
      <point x="896" y="97"/>
      <point x="787" y="-10"/>
    </contour>
    <contour>
      <point x="1002" y="700" type="line"/>
      <point x="1002" y="678" type="line"/>
      <point x="745" y="678" type="line"/>
      <point x="745" y="700" type="line"/>
    </contour>
  </outline>
</glyph>
<glyph name="uni01C8" format="2">
  <advance width="674"/>
  <unicode hex="01C8"/>
  <outline>
    <contour>
      <point x="122" y="22" type="line"/>
      <point x="483" y="22" type="line"/>
      <point x="483" y="0" type="line"/>
      <point x="110" y="0" type="line"/>
      <point x="110" y="700" type="line"/>
      <point x="132" y="700" type="line"/>
      <point x="132" y="13" type="line"/>
    </contour>
    <contour>
      <point x="585" y="525" type="line"/>
      <point x="585" y="-60" type="line"/>
      <point x="585" y="-125"/>
      <point x="519" y="-194"/>
      <point x="459" y="-194" type="qcurve"/>
      <point x="451" y="-173" type="line"/>
      <point x="513" y="-173"/>
      <point x="563" y="-108"/>
      <point x="563" y="-56" type="qcurve"/>
      <point x="563" y="525" type="line"/>
    </contour>
    <contour>
      <point x="612" y="695" type="qcurve"/>
      <point x="612" y="682"/>
      <point x="598" y="666"/>
      <point x="584" y="666" type="qcurve"/>
      <point x="570" y="666"/>
      <point x="556" y="682"/>
      <point x="556" y="695" type="qcurve"/>
      <point x="556" y="707"/>
      <point x="570" y="724"/>
      <point x="584" y="724" type="qcurve"/>
      <point x="597" y="724"/>
      <point x="612" y="708"/>
    </contour>
  </outline>
</glyph>
<glyph name="uni01CA" format="2">
  <advance width="1319"/>
  <unicode hex="01CA"/>
  <outline>
    <contour>
      <point x="598" y="241" type="qcurve"/>
      <point x="598" y="700" type="line"/>
      <point x="620" y="700" type="line"/>
      <point x="620" y="0" type="line"/>
      <point x="600" y="0" type="line"/>
      <point x="115" y="686" type="line"/>
      <point x="130" y="686" type="line"/>
      <point x="131" y="661"/>
      <point x="133" y="525"/>
      <point x="132" y="470" type="qcurve"/>
      <point x="132" y="0" type="line"/>
      <point x="110" y="0" type="line"/>
      <point x="110" y="700" type="line"/>
      <point x="132" y="700" type="line"/>
      <point x="605" y="31" type="line"/>
      <point x="601" y="31" type="line"/>
      <point x="601" y="75"/>
      <point x="599" y="177"/>
    </contour>
    <contour>
      <point x="939" y="-10" type="qcurve"/>
      <point x="870" y="-10"/>
      <point x="774" y="60"/>
      <point x="750" y="120" type="qcurve"/>
      <point x="766" y="135" type="line"/>
      <point x="794" y="72"/>
      <point x="881" y="12"/>
      <point x="941" y="12" type="qcurve"/>
      <point x="1016" y="12"/>
      <point x="1111" y="107"/>
      <point x="1111" y="213" type="qcurve"/>
      <point x="1111" y="700" type="line"/>
      <point x="1133" y="700" type="line"/>
      <point x="1133" y="213" type="line"/>
      <point x="1133" y="97"/>
      <point x="1024" y="-10"/>
    </contour>
    <contour>
      <point x="1239" y="700" type="line"/>
      <point x="1239" y="678" type="line"/>
      <point x="982" y="678" type="line"/>
      <point x="982" y="700" type="line"/>
    </contour>
  </outline>
</glyph>
<glyph name="uni01CC" format="2">
  <advance width="722"/>
  <unicode hex="01CC"/>
  <outline>
    <contour>
      <point x="288" y="530" type="qcurve"/>
      <point x="376" y="530"/>
      <point x="473" y="434"/>
      <point x="473" y="328" type="qcurve"/>
      <point x="473" y="0" type="line"/>
      <point x="451" y="0" type="line"/>
      <point x="451" y="328" type="line"/>
      <point x="451" y="423"/>
      <point x="365" y="508"/>
      <point x="286" y="508" type="qcurve"/>
      <point x="201" y="508"/>
      <point x="92" y="407"/>
      <point x="92" y="376" type="qcurve"/>
      <point x="92" y="0" type="line"/>
      <point x="84" y="0"/>
      <point x="77" y="0"/>
      <point x="70" y="0" type="qcurve"/>
      <point x="70" y="525" type="line"/>
      <point x="90" y="525" type="line"/>
      <point x="92" y="404" type="line"/>
      <point x="83" y="401" type="line"/>
      <point x="99" y="453"/>
      <point x="215" y="530"/>
    </contour>
    <contour>
      <point x="633" y="525" type="line"/>
      <point x="633" y="-60" type="line"/>
      <point x="633" y="-125"/>
      <point x="567" y="-194"/>
      <point x="507" y="-194" type="qcurve"/>
      <point x="499" y="-173" type="line"/>
      <point x="561" y="-173"/>
      <point x="611" y="-108"/>
      <point x="611" y="-56" type="qcurve"/>
      <point x="611" y="525" type="line"/>
    </contour>
    <contour>
      <point x="660" y="695" type="qcurve"/>
      <point x="660" y="682"/>
      <point x="646" y="666"/>
      <point x="632" y="666" type="qcurve"/>
      <point x="618" y="666"/>
      <point x="604" y="682"/>
      <point x="604" y="695" type="qcurve"/>
      <point x="604" y="707"/>
      <point x="618" y="724"/>
      <point x="632" y="724" type="qcurve"/>
      <point x="645" y="724"/>
      <point x="660" y="708"/>
    </contour>
  </outline>
</glyph>
<glyph name="uni01D0" format="2">
  <advance width="182"/>
  <unicode hex="01D0"/>
  <outline>
    <contour>
      <point x="92" y="525" type="line"/>
      <point x="92" y="0" type="line"/>
      <point x="70" y="0" type="line"/>
      <point x="70" y="525" type="line"/>
    </contour>
    <contour>
      <point x="99" y="608" type="line"/>
      <point x="84" y="608" type="line"/>
      <point x="200" y="700" type="line"/>
      <point x="212" y="687" type="line"/>
      <point x="105" y="595" type="line"/>
      <point x="77" y="595" type="line"/>
      <point x="-30" y="687" type="line"/>
      <point x="-18" y="700" type="line"/>
    </contour>
  </outline>
</glyph>
<glyph name="uni01D3" format="2">
  <advance width="744"/>
  <unicode hex="01D3"/>
  <outline>
    <contour>
      <point x="612" y="700" type="line"/>
      <point x="634" y="700" type="line"/>
      <point x="634" y="269" type="line"/>
      <point x="634" y="149"/>
      <point x="484" y="-6"/>
      <point x="368" y="-6" type="qcurve"/>
      <point x="255" y="-6"/>
      <point x="111" y="149"/>
      <point x="110" y="269" type="qcurve"/>
      <point x="110" y="700" type="line"/>
      <point x="132" y="700" type="line"/>
      <point x="132" y="278" type="line"/>
      <point x="132" y="163"/>
      <point x="263" y="16"/>
      <point x="368" y="16" type="qcurve"/>
      <point x="476" y="16"/>
      <point x="612" y="163"/>
      <point x="612" y="278" type="qcurve"/>
    </contour>
    <contour>
      <point x="481" y="850" type="line"/>
      <point x="365" y="758" type="line"/>
      <point x="380" y="758" type="line"/>
      <point x="263" y="850" type="line"/>
      <point x="251" y="837" type="line"/>
      <point x="358" y="745" type="line"/>
      <point x="386" y="745" type="line"/>
      <point x="493" y="837" type="line"/>
    </contour>
  </outline>
</glyph>
<glyph name="uni01D4" format="2">
  <advance width="538"/>
  <unicode hex="01D4"/>
  <outline>
    <contour>
      <point x="265" y="12" type="qcurve"/>
      <point x="338" y="12"/>
      <point x="444" y="117"/>
      <point x="444" y="149" type="qcurve"/>
      <point x="444" y="525" type="line"/>
      <point x="466" y="525" type="line"/>
      <point x="466" y="0" type="line"/>
      <point x="446" y="0" type="line"/>
      <point x="444" y="121" type="line"/>
      <point x="453" y="123" type="line"/>
      <point x="435" y="69"/>
      <point x="330" y="-10"/>
      <point x="263" y="-10" type="qcurve"/>
      <point x="172" y="-10"/>
      <point x="73" y="88"/>
      <point x="73" y="197" type="qcurve"/>
      <point x="73" y="525" type="line"/>
      <point x="95" y="525" type="line"/>
      <point x="95" y="197" type="line"/>
      <point x="95" y="99"/>
      <point x="183" y="12"/>
    </contour>
    <contour>
      <point x="278" y="608" type="line"/>
      <point x="262" y="608" type="line"/>
      <point x="378" y="700" type="line"/>
      <point x="390" y="687" type="line"/>
      <point x="284" y="595" type="line"/>
      <point x="256" y="595" type="line"/>
      <point x="148" y="687" type="line"/>
      <point x="160" y="700" type="line"/>
    </contour>
  </outline>
</glyph>
<glyph name="uni01EA" format="2">
  <advance width="782"/>
  <unicode hex="01EA"/>
  <outline>
    <contour>
      <point x="399" y="710" type="qcurve"/>
      <point x="550" y="710"/>
      <point x="743" y="508"/>
      <point x="743" y="349" type="qcurve"/>
      <point x="743" y="191"/>
      <point x="550" y="-10"/>
      <point x="399" y="-10" type="qcurve"/>
      <point x="248" y="-10"/>
      <point x="55" y="191"/>
      <point x="55" y="349" type="qcurve"/>
      <point x="55" y="507"/>
      <point x="248" y="710"/>
    </contour>
    <contour>
      <point x="399" y="12" type="qcurve"/>
      <point x="539" y="12"/>
      <point x="720" y="202"/>
      <point x="720" y="349" type="qcurve"/>
      <point x="720" y="496"/>
      <point x="539" y="688"/>
      <point x="399" y="688" type="qcurve"/>
      <point x="260" y="688"/>
      <point x="78" y="496"/>
      <point x="78" y="349" type="qcurve"/>
      <point x="78" y="202"/>
      <point x="260" y="12"/>
    </contour>
    <contour>
      <point x="429" y="-230" type="qcurve"/>
      <point x="387" y="-230"/>
      <point x="334" y="-173"/>
      <point x="334" y="-130" type="qcurve"/>
      <point x="334" y="-70"/>
      <point x="427" y="8"/>
      <point x="484" y="18" type="qcurve"/>
      <point x="489" y="8" type="line"/>
      <point x="489" y="0" type="line"/>
      <point x="433" y="-10"/>
      <point x="356" y="-77"/>
      <point x="356" y="-130" type="qcurve"/>
      <point x="356" y="-163"/>
      <point x="398" y="-208"/>
      <point x="429" y="-208" type="qcurve"/>
      <point x="453" y="-208"/>
      <point x="488" y="-183"/>
      <point x="499" y="-163" type="qcurve"/>
      <point x="514" y="-176" type="line"/>
      <point x="502" y="-200"/>
      <point x="457" y="-230"/>
    </contour>
  </outline>
</glyph>
<glyph name="uni01EB" format="2">
  <advance width="615"/>
  <unicode hex="01EB"/>
  <outline>
    <contour>
      <point x="62" y="263" type="qcurve"/>
      <point x="62" y="153"/>
      <point x="201" y="12"/>
      <point x="308" y="12" type="qcurve"/>
      <point x="414" y="12"/>
      <point x="553" y="153"/>
      <point x="553" y="263" type="qcurve"/>
      <point x="553" y="369"/>
      <point x="414" y="508"/>
      <point x="308" y="508" type="qcurve"/>
      <point x="201" y="508"/>
      <point x="62" y="369"/>
    </contour>
    <contour>
      <point x="307" y="-9" type="qcurve"/>
      <point x="190" y="-9"/>
      <point x="40" y="140"/>
      <point x="40" y="263" type="qcurve"/>
      <point x="40" y="380"/>
      <point x="190" y="530"/>
      <point x="308" y="530" type="qcurve"/>
      <point x="427" y="530"/>
      <point x="575" y="380"/>
      <point x="575" y="263" type="qcurve"/>
      <point x="575" y="145"/>
      <point x="437" y="9"/>
      <point x="371" y="-2" type="qcurve"/>
      <point x="325" y="-10"/>
      <point x="265" y="-87"/>
      <point x="265" y="-130" type="qcurve"/>
      <point x="265" y="-163"/>
      <point x="307" y="-208"/>
      <point x="338" y="-208" type="qcurve"/>
      <point x="362" y="-208"/>
      <point x="397" y="-183"/>
      <point x="408" y="-163" type="qcurve"/>
      <point x="423" y="-176" type="line"/>
      <point x="411" y="-200"/>
      <point x="366" y="-230"/>
      <point x="338" y="-230" type="qcurve"/>
      <point x="296" y="-230"/>
      <point x="243" y="-173"/>
      <point x="243" y="-130" type="qcurve"/>
      <point x="243" y="-91"/>
      <point x="281" y="-29"/>
      <point x="326" y="5" type="qcurve"/>
      <point x="323" y="-7" type="line"/>
      <point x="319" y="-7"/>
      <point x="311" y="-9"/>
    </contour>
  </outline>
</glyph>
<glyph name="aringacute" format="2">
  <advance width="603"/>
  <unicode hex="01FB"/>
  <outline>
    <contour>
      <point x="512" y="525" type="line"/>
      <point x="532" y="525" type="line"/>
      <point x="532" y="0" type="line"/>
      <point x="510" y="0" type="line"/>
      <point x="510" y="172" type="line"/>
      <point x="519" y="175" type="line"/>
      <point x="501" y="94"/>
      <point x="377" y="-10"/>
      <point x="294" y="-10" type="qcurve"/>
      <point x="184" y="-10"/>
      <point x="40" y="141"/>
      <point x="40" y="258" type="qcurve"/>
      <point x="40" y="376"/>
      <point x="187" y="530"/>
      <point x="290" y="530" type="qcurve"/>
      <point x="374" y="530"/>
      <point x="502" y="430"/>
      <point x="516" y="350" type="qcurve"/>
      <point x="510" y="353" type="line"/>
    </contour>
    <contour>
      <point x="63" y="258" type="qcurve"/>
      <point x="63" y="152"/>
      <point x="191" y="12"/>
      <point x="294" y="12" type="qcurve"/>
      <point x="386" y="12"/>
      <point x="511" y="150"/>
      <point x="511" y="260" type="qcurve"/>
      <point x="511" y="368"/>
      <point x="386" y="508"/>
      <point x="292" y="508" type="qcurve"/>
      <point x="191" y="508"/>
      <point x="63" y="367"/>
    </contour>
    <contour>
      <point x="384" y="691" type="qcurve"/>
      <point x="384" y="656"/>
      <point x="329" y="603"/>
      <point x="292" y="603" type="qcurve"/>
      <point x="255" y="603"/>
      <point x="200" y="655"/>
      <point x="200" y="691" type="qcurve"/>
      <point x="200" y="728"/>
      <point x="254" y="781"/>
      <point x="292" y="781" type="qcurve"/>
      <point x="330" y="781"/>
      <point x="384" y="728"/>
    </contour>
    <contour>
      <point x="221" y="691" type="qcurve"/>
      <point x="221" y="664"/>
      <point x="263" y="623"/>
      <point x="292" y="623" type="qcurve"/>
      <point x="322" y="623"/>
      <point x="363" y="664"/>
      <point x="363" y="691" type="qcurve"/>
      <point x="363" y="723"/>
      <point x="322" y="761"/>
      <point x="292" y="761" type="qcurve"/>
      <point x="261" y="761"/>
      <point x="221" y="722"/>
    </contour>
    <contour>
      <point x="370" y="911" type="line"/>
      <point x="224" y="812" type="line"/>
      <point x="214" y="827" type="line"/>
      <point x="356" y="932" type="line"/>
    </contour>
  </outline>
</glyph>
<glyph name="oslashacute" format="2">
  <advance width="615"/>
  <unicode hex="01FF"/>
  <outline>
    <contour>
      <point x="81" y="-19" type="line"/>
      <point x="65" y="-5" type="line"/>
      <point x="526" y="538" type="line"/>
      <point x="543" y="523" type="line"/>
    </contour>
    <contour>
      <point x="308" y="529" type="qcurve"/>
      <point x="427" y="529"/>
      <point x="575" y="380"/>
      <point x="575" y="263" type="qcurve"/>
      <point x="575" y="144"/>
      <point x="427" y="-10"/>
      <point x="308" y="-10" type="qcurve"/>
      <point x="190" y="-10"/>
      <point x="40" y="144"/>
      <point x="40" y="263" type="qcurve"/>
      <point x="40" y="380"/>
      <point x="190" y="529"/>
    </contour>
    <contour>
      <point x="308" y="12" type="qcurve"/>
      <point x="414" y="12"/>
      <point x="552" y="153"/>
      <point x="553" y="263" type="qcurve"/>
      <point x="552" y="369"/>
      <point x="414" y="507"/>
      <point x="308" y="507" type="qcurve"/>
      <point x="201" y="507"/>
      <point x="63" y="370"/>
      <point x="62" y="263" type="qcurve"/>
      <point x="63" y="153"/>
      <point x="201" y="12"/>
    </contour>
    <contour>
      <point x="406" y="729" type="line"/>
      <point x="262" y="625" type="line"/>
      <point x="252" y="640" type="line"/>
      <point x="392" y="750" type="line"/>
    </contour>
  </outline>
</glyph>
<glyph name="uni020A" format="2">
  <advance width="386"/>
  <unicode hex="020A"/>
  <outline>
    <contour>
      <point x="204" y="700" type="qcurve"/>
      <point x="204" y="0" type="line"/>
      <point x="182" y="0" type="line"/>
      <point x="182" y="700" type="line"/>
      <point x="210" y="700"/>
      <point x="176" y="700"/>
    </contour>
    <contour>
      <point x="336" y="700" type="line"/>
      <point x="336" y="678" type="line"/>
      <point x="50" y="678" type="line"/>
      <point x="50" y="700" type="line"/>
    </contour>
    <contour>
      <point x="336" y="22" type="line"/>
      <point x="336" y="0" type="line"/>
      <point x="50" y="0" type="line"/>
      <point x="50" y="22" type="line"/>
    </contour>
    <contour>
      <point x="192" y="875" type="qcurve"/>
      <point x="243" y="875"/>
      <point x="312" y="811"/>
      <point x="324" y="755" type="qcurve"/>
      <point x="302" y="753" type="line"/>
      <point x="292" y="801"/>
      <point x="232" y="854"/>
      <point x="192" y="854" type="qcurve"/>
      <point x="153" y="854"/>
      <point x="91" y="801"/>
      <point x="82" y="753" type="qcurve"/>
      <point x="60" y="755" type="line"/>
      <point x="71" y="811"/>
      <point x="142" y="875"/>
    </contour>
  </outline>
</glyph>
<glyph name="uni020B" format="2">
  <advance width="182"/>
  <unicode hex="020B"/>
  <outline>
    <contour>
      <point x="92" y="525" type="line"/>
      <point x="92" y="0" type="line"/>
      <point x="70" y="0" type="line"/>
      <point x="70" y="525" type="line"/>
    </contour>
    <contour>
      <point x="91" y="700" type="qcurve"/>
      <point x="142" y="700"/>
      <point x="211" y="636"/>
      <point x="223" y="580" type="qcurve"/>
      <point x="201" y="578" type="line"/>
      <point x="191" y="626"/>
      <point x="131" y="679"/>
      <point x="91" y="679" type="qcurve"/>
      <point x="52" y="679"/>
      <point x="-10" y="626"/>
      <point x="-19" y="578" type="qcurve"/>
      <point x="-41" y="580" type="line"/>
      <point x="-30" y="636"/>
      <point x="41" y="700"/>
    </contour>
  </outline>
</glyph>
<glyph name="uni020E" format="2">
  <advance width="798"/>
  <unicode hex="020E"/>
  <outline>
    <contour>
      <point x="399" y="710" type="qcurve"/>
      <point x="550" y="710"/>
      <point x="743" y="508"/>
      <point x="743" y="349" type="qcurve"/>
      <point x="743" y="191"/>
      <point x="550" y="-10"/>
      <point x="399" y="-10" type="qcurve"/>
      <point x="248" y="-10"/>
      <point x="55" y="191"/>
      <point x="55" y="349" type="qcurve"/>
      <point x="55" y="507"/>
      <point x="248" y="710"/>
    </contour>
    <contour>
      <point x="399" y="12" type="qcurve"/>
      <point x="539" y="12"/>
      <point x="720" y="202"/>
      <point x="720" y="349" type="qcurve"/>
      <point x="720" y="496"/>
      <point x="539" y="688"/>
      <point x="399" y="688" type="qcurve"/>
      <point x="260" y="688"/>
      <point x="78" y="496"/>
      <point x="78" y="349" type="qcurve"/>
      <point x="78" y="202"/>
      <point x="260" y="12"/>
    </contour>
    <contour>
      <point x="398" y="875" type="qcurve"/>
      <point x="449" y="875"/>
      <point x="518" y="811"/>
      <point x="530" y="755" type="qcurve"/>
      <point x="508" y="753" type="line"/>
      <point x="498" y="801"/>
      <point x="438" y="854"/>
      <point x="398" y="854" type="qcurve"/>
      <point x="359" y="854"/>
      <point x="297" y="801"/>
      <point x="288" y="753" type="qcurve"/>
      <point x="266" y="755" type="line"/>
      <point x="277" y="811"/>
      <point x="348" y="875"/>
    </contour>
  </outline>
</glyph>
<glyph name="uni020F" format="2">
  <advance width="615"/>
  <unicode hex="020F"/>
  <outline>
    <contour>
      <point x="308" y="530" type="qcurve"/>
      <point x="427" y="530"/>
      <point x="575" y="380"/>
      <point x="575" y="263" type="qcurve"/>
      <point x="575" y="144"/>
      <point x="427" y="-10"/>
      <point x="308" y="-10" type="qcurve"/>
      <point x="190" y="-10"/>
      <point x="40" y="144"/>
      <point x="40" y="263" type="qcurve"/>
      <point x="40" y="380"/>
      <point x="190" y="530"/>
    </contour>
    <contour>
      <point x="308" y="12" type="qcurve"/>
      <point x="414" y="12"/>
      <point x="553" y="153"/>
      <point x="553" y="263" type="qcurve"/>
      <point x="553" y="369"/>
      <point x="414" y="508"/>
      <point x="308" y="508" type="qcurve"/>
      <point x="201" y="508"/>
      <point x="62" y="369"/>
      <point x="62" y="263" type="qcurve"/>
      <point x="62" y="153"/>
      <point x="201" y="12"/>
    </contour>
    <contour>
      <point x="308" y="700" type="qcurve"/>
      <point x="359" y="700"/>
      <point x="428" y="636"/>
      <point x="440" y="580" type="qcurve"/>
      <point x="418" y="578" type="line"/>
      <point x="408" y="626"/>
      <point x="348" y="679"/>
      <point x="308" y="679" type="qcurve"/>
      <point x="269" y="679"/>
      <point x="207" y="626"/>
      <point x="198" y="578" type="qcurve"/>
      <point x="176" y="580" type="line"/>
      <point x="187" y="636"/>
      <point x="258" y="700"/>
    </contour>
  </outline>
</glyph>
<glyph name="uni0212" format="2">
  <advance width="609"/>
  <unicode hex="0212"/>
  <outline>
    <contour>
      <point x="545" y="507" type="qcurve"/>
      <point x="545" y="411"/>
      <point x="444" y="291"/>
      <point x="361" y="291" type="qcurve"/>
      <point x="121" y="291" type="line"/>
      <point x="121" y="313" type="line"/>
      <point x="367" y="313" type="line"/>
      <point x="437" y="313"/>
      <point x="522" y="421"/>
      <point x="522" y="507" type="qcurve"/>
      <point x="522" y="582"/>
      <point x="437" y="678"/>
      <point x="367" y="678" type="qcurve"/>
      <point x="119" y="678" type="line"/>
      <point x="132" y="690" type="line"/>
      <point x="132" y="0" type="line"/>
      <point x="110" y="0" type="line"/>
      <point x="110" y="700" type="line"/>
      <point x="361" y="700" type="line"/>
      <point x="444" y="700"/>
      <point x="545" y="593"/>
    </contour>
    <contour>
      <point x="368" y="298" type="line"/>
      <point x="391" y="305" type="line"/>
      <point x="569" y="0" type="line"/>
      <point x="543" y="0" type="line"/>
    </contour>
    <contour>
      <point x="295" y="875" type="qcurve"/>
      <point x="346" y="875"/>
      <point x="415" y="811"/>
      <point x="427" y="755" type="qcurve"/>
      <point x="405" y="753" type="line"/>
      <point x="395" y="801"/>
      <point x="335" y="854"/>
      <point x="295" y="854" type="qcurve"/>
      <point x="256" y="854"/>
      <point x="194" y="801"/>
      <point x="185" y="753" type="qcurve"/>
      <point x="163" y="755" type="line"/>
      <point x="174" y="811"/>
      <point x="245" y="875"/>
    </contour>
  </outline>
</glyph>
<glyph name="uni0214" format="2">
  <advance width="744"/>
  <unicode hex="0214"/>
  <outline>
    <contour>
      <point x="612" y="700" type="line"/>
      <point x="634" y="700" type="line"/>
      <point x="634" y="269" type="line"/>
      <point x="634" y="149"/>
      <point x="484" y="-6"/>
      <point x="368" y="-6" type="qcurve"/>
      <point x="255" y="-6"/>
      <point x="111" y="149"/>
      <point x="110" y="269" type="qcurve"/>
      <point x="110" y="700" type="line"/>
      <point x="132" y="700" type="line"/>
      <point x="132" y="278" type="line"/>
      <point x="132" y="163"/>
      <point x="263" y="16"/>
      <point x="368" y="16" type="qcurve"/>
      <point x="476" y="16"/>
      <point x="612" y="163"/>
      <point x="612" y="278" type="qcurve"/>
    </contour>
    <contour>
      <point x="341" y="785" type="line"/>
      <point x="331" y="770" type="line"/>
      <point x="185" y="869" type="line"/>
      <point x="199" y="890" type="line"/>
    </contour>
    <contour>
      <point x="478" y="785" type="line"/>
      <point x="468" y="770" type="line"/>
      <point x="322" y="869" type="line"/>
      <point x="336" y="890" type="line"/>
    </contour>
  </outline>
</glyph>
<glyph name="uni0217" format="2">
  <advance width="538"/>
  <unicode hex="0217"/>
  <outline>
    <contour>
      <point x="265" y="12" type="qcurve"/>
      <point x="338" y="12"/>
      <point x="444" y="117"/>
      <point x="444" y="149" type="qcurve"/>
      <point x="444" y="525" type="line"/>
      <point x="466" y="525" type="line"/>
      <point x="466" y="0" type="line"/>
      <point x="446" y="0" type="line"/>
      <point x="444" y="121" type="line"/>
      <point x="453" y="123" type="line"/>
      <point x="435" y="69"/>
      <point x="330" y="-10"/>
      <point x="263" y="-10" type="qcurve"/>
      <point x="172" y="-10"/>
      <point x="73" y="88"/>
      <point x="73" y="197" type="qcurve"/>
      <point x="73" y="525" type="line"/>
      <point x="95" y="525" type="line"/>
      <point x="95" y="197" type="line"/>
      <point x="95" y="99"/>
      <point x="183" y="12"/>
    </contour>
    <contour>
      <point x="268" y="700" type="qcurve"/>
      <point x="319" y="700"/>
      <point x="388" y="636"/>
      <point x="400" y="580" type="qcurve"/>
      <point x="378" y="578" type="line"/>
      <point x="368" y="626"/>
      <point x="308" y="679"/>
      <point x="268" y="679" type="qcurve"/>
      <point x="229" y="679"/>
      <point x="167" y="626"/>
      <point x="158" y="578" type="qcurve"/>
      <point x="136" y="580" type="line"/>
      <point x="147" y="636"/>
      <point x="218" y="700"/>
    </contour>
  </outline>
</glyph>
<glyph name="uni0219" format="2">
  <advance width="479"/>
  <unicode hex="0219"/>
  <outline>
    <contour>
      <point x="45" y="81" type="qcurve"/>
      <point x="62" y="96" type="line"/>
      <point x="90" y="59"/>
      <point x="186" y="12"/>
      <point x="250" y="12" type="qcurve"/>
      <point x="331" y="12"/>
      <point x="403" y="86"/>
      <point x="403" y="133" type="qcurve"/>
      <point x="403" y="182"/>
      <point x="320" y="238"/>
      <point x="241" y="256" type="qcurve"/>
      <point x="154" y="276"/>
      <point x="65" y="344"/>
      <point x="65" y="393" type="qcurve"/>
      <point x="65" y="455"/>
      <point x="160" y="530"/>
      <point x="240" y="530" type="qcurve"/>
      <point x="293" y="530"/>
      <point x="387" y="486"/>
      <point x="422" y="445" type="qcurve"/>
      <point x="406" y="427" type="line"/>
      <point x="373" y="465"/>
      <point x="290" y="508"/>
      <point x="240" y="508" type="qcurve"/>
      <point x="167" y="508"/>
      <point x="87" y="443"/>
      <point x="87" y="394" type="qcurve"/>
      <point x="87" y="354"/>
      <point x="167" y="297"/>
      <point x="245" y="279" type="qcurve"/>
      <point x="336" y="258"/>
      <point x="425" y="193"/>
      <point x="425" y="133" type="qcurve"/>
      <point x="425" y="68"/>
      <point x="331" y="-10"/>
      <point x="248" y="-10" type="qcurve"/>
      <point x="182" y="-10"/>
      <point x="74" y="40"/>
    </contour>
    <contour>
      <point x="224" y="-192" type="qcurve"/>
      <point x="211" y="-179" type="line"/>
      <point x="233" y="-160"/>
      <point x="245" y="-141"/>
      <point x="245" y="-132" type="qcurve"/>
      <point x="245" y="-124"/>
      <point x="239" y="-114"/>
      <point x="228" y="-109" type="qcurve"/>
      <point x="218" y="-104"/>
      <point x="208" y="-90"/>
      <point x="208" y="-80" type="qcurve"/>
      <point x="208" y="-71"/>
      <point x="222" y="-56"/>
      <point x="235" y="-56" type="qcurve"/>
      <point x="252" y="-56"/>
      <point x="271" y="-81"/>
      <point x="271" y="-102" type="qcurve"/>
      <point x="271" y="-128"/>
      <point x="253" y="-169"/>
    </contour>
  </outline>
</glyph>
<glyph name="uni021A" format="2">
  <advance width="488"/>
  <unicode hex="021A"/>
  <outline>
    <contour>
      <point x="255" y="0" type="line"/>
      <point x="233" y="0" type="line"/>
      <point x="233" y="688" type="line"/>
      <point x="255" y="688" type="line"/>
    </contour>
    <contour>
      <point x="468" y="678" type="line"/>
      <point x="20" y="678" type="line"/>
      <point x="20" y="700" type="line"/>
      <point x="468" y="700" type="line"/>
    </contour>
    <contour>
      <point x="223" y="-192" type="qcurve"/>
      <point x="210" y="-179" type="line"/>
      <point x="232" y="-160"/>
      <point x="244" y="-141"/>
      <point x="244" y="-132" type="qcurve"/>
      <point x="244" y="-124"/>
      <point x="238" y="-114"/>
      <point x="227" y="-109" type="qcurve"/>
      <point x="217" y="-104"/>
      <point x="207" y="-90"/>
      <point x="207" y="-80" type="qcurve"/>
      <point x="207" y="-71"/>
      <point x="221" y="-56"/>
      <point x="234" y="-56" type="qcurve"/>
      <point x="251" y="-56"/>
      <point x="270" y="-81"/>
      <point x="270" y="-102" type="qcurve"/>
      <point x="270" y="-128"/>
      <point x="252" y="-169"/>
    </contour>
  </outline>
</glyph>
<glyph name="uni022A" format="2">
  <advance width="798"/>
  <unicode hex="022A"/>
  <outline>
    <contour>
      <point x="399" y="710" type="qcurve"/>
      <point x="550" y="710"/>
      <point x="743" y="508"/>
      <point x="743" y="349" type="qcurve"/>
      <point x="743" y="191"/>
      <point x="550" y="-10"/>
      <point x="399" y="-10" type="qcurve"/>
      <point x="248" y="-10"/>
      <point x="55" y="191"/>
      <point x="55" y="349" type="qcurve"/>
      <point x="55" y="507"/>
      <point x="248" y="710"/>
    </contour>
    <contour>
      <point x="399" y="12" type="qcurve"/>
      <point x="539" y="12"/>
      <point x="720" y="202"/>
      <point x="720" y="349" type="qcurve"/>
      <point x="720" y="496"/>
      <point x="539" y="688"/>
      <point x="399" y="688" type="qcurve"/>
      <point x="260" y="688"/>
      <point x="78" y="496"/>
      <point x="78" y="349" type="qcurve"/>
      <point x="78" y="202"/>
      <point x="260" y="12"/>
    </contour>
    <contour>
      <point x="352" y="804" type="qcurve"/>
      <point x="352" y="792"/>
      <point x="339" y="777"/>
      <point x="325" y="777" type="qcurve"/>
      <point x="313" y="777"/>
      <point x="298" y="792"/>
      <point x="298" y="804" type="qcurve"/>
      <point x="298" y="815"/>
      <point x="312" y="831"/>
      <point x="325" y="831" type="qcurve"/>
      <point x="339" y="831"/>
      <point x="352" y="816"/>
    </contour>
    <contour>
      <point x="502" y="804" type="qcurve"/>
      <point x="502" y="792"/>
      <point x="489" y="777"/>
      <point x="475" y="777" type="qcurve"/>
      <point x="463" y="777"/>
      <point x="448" y="792"/>
      <point x="448" y="804" type="qcurve"/>
      <point x="448" y="815"/>
      <point x="462" y="831"/>
      <point x="475" y="831" type="qcurve"/>
      <point x="489" y="831"/>
      <point x="502" y="816"/>
    </contour>
    <contour>
      <point x="537" y="933" type="line"/>
      <point x="267" y="933" type="line"/>
      <point x="267" y="955" type="line"/>
      <point x="537" y="955" type="line"/>
    </contour>
  </outline>
</glyph>
<glyph name="uni022B" format="2">
  <advance width="615"/>
  <unicode hex="022B"/>
  <outline>
    <contour>
      <point x="308" y="530" type="qcurve"/>
      <point x="427" y="530"/>
      <point x="575" y="380"/>
      <point x="575" y="263" type="qcurve"/>
      <point x="575" y="144"/>
      <point x="427" y="-10"/>
      <point x="308" y="-10" type="qcurve"/>
      <point x="190" y="-10"/>
      <point x="40" y="144"/>
      <point x="40" y="263" type="qcurve"/>
      <point x="40" y="380"/>
      <point x="190" y="530"/>
    </contour>
    <contour>
      <point x="308" y="12" type="qcurve"/>
      <point x="414" y="12"/>
      <point x="553" y="153"/>
      <point x="553" y="263" type="qcurve"/>
      <point x="553" y="369"/>
      <point x="414" y="508"/>
      <point x="308" y="508" type="qcurve"/>
      <point x="201" y="508"/>
      <point x="62" y="369"/>
      <point x="62" y="263" type="qcurve"/>
      <point x="62" y="153"/>
      <point x="201" y="12"/>
    </contour>
    <contour>
      <point x="259" y="653" type="qcurve"/>
      <point x="259" y="641"/>
      <point x="246" y="626"/>
      <point x="232" y="626" type="qcurve"/>
      <point x="220" y="626"/>
      <point x="205" y="641"/>
      <point x="205" y="653" type="qcurve"/>
      <point x="205" y="664"/>
      <point x="219" y="680"/>
      <point x="232" y="680" type="qcurve"/>
      <point x="246" y="680"/>
      <point x="259" y="665"/>
    </contour>
    <contour>
      <point x="409" y="653" type="qcurve"/>
      <point x="409" y="641"/>
      <point x="396" y="626"/>
      <point x="382" y="626" type="qcurve"/>
      <point x="370" y="626"/>
      <point x="355" y="641"/>
      <point x="355" y="653" type="qcurve"/>
      <point x="355" y="664"/>
      <point x="369" y="680"/>
      <point x="382" y="680" type="qcurve"/>
      <point x="396" y="680"/>
      <point x="409" y="665"/>
    </contour>
    <contour>
      <point x="444" y="782" type="line"/>
      <point x="174" y="782" type="line"/>
      <point x="174" y="804" type="line"/>
      <point x="444" y="804" type="line"/>
    </contour>
  </outline>
</glyph>
<glyph name="uni0230" format="2">
  <advance width="798"/>
  <unicode hex="0230"/>
  <outline>
    <contour>
      <point x="399" y="710" type="qcurve"/>
      <point x="550" y="710"/>
      <point x="743" y="508"/>
      <point x="743" y="349" type="qcurve"/>
      <point x="743" y="191"/>
      <point x="550" y="-10"/>
      <point x="399" y="-10" type="qcurve"/>
      <point x="248" y="-10"/>
      <point x="55" y="191"/>
      <point x="55" y="349" type="qcurve"/>
      <point x="55" y="507"/>
      <point x="248" y="710"/>
    </contour>
    <contour>
      <point x="399" y="12" type="qcurve"/>
      <point x="539" y="12"/>
      <point x="720" y="202"/>
      <point x="720" y="349" type="qcurve"/>
      <point x="720" y="496"/>
      <point x="539" y="688"/>
      <point x="399" y="688" type="qcurve"/>
      <point x="260" y="688"/>
      <point x="78" y="496"/>
      <point x="78" y="349" type="qcurve"/>
      <point x="78" y="202"/>
      <point x="260" y="12"/>
    </contour>
    <contour>
      <point x="428" y="799" type="qcurve"/>
      <point x="428" y="786"/>
      <point x="414" y="770"/>
      <point x="400" y="770" type="qcurve"/>
      <point x="386" y="770"/>
      <point x="372" y="786"/>
      <point x="372" y="799" type="qcurve"/>
      <point x="372" y="811"/>
      <point x="386" y="828"/>
      <point x="400" y="828" type="qcurve"/>
      <point x="413" y="828"/>
      <point x="428" y="812"/>
    </contour>
    <contour>
      <point x="535" y="931" type="line"/>
      <point x="265" y="931" type="line"/>
      <point x="265" y="953" type="line"/>
      <point x="535" y="953" type="line"/>
    </contour>
  </outline>
</glyph>
<glyph name="uni02BC" format="2">
  <advance width="205"/>
  <unicode hex="02BC"/>
  <outline>
    <contour>
      <point x="56" y="442" type="line"/>
      <point x="94" y="700" type="line"/>
      <point x="121" y="700" type="line"/>
      <point x="74" y="442" type="line"/>
    </contour>
  </outline>
</glyph>
<glyph name="circumflex" format="2">
  <advance width="362"/>
  <unicode hex="02C6"/>
  <guideline x="181.0" identifier="zmQgWNwrKG"/>
  <outline>
    <contour>
      <point x="290" y="625" type="line"/>
      <point x="174" y="717" type="line"/>
      <point x="189" y="717" type="line"/>
      <point x="72" y="625" type="line"/>
      <point x="60" y="638" type="line"/>
      <point x="167" y="730" type="line"/>
      <point x="195" y="730" type="line"/>
      <point x="302" y="638" type="line"/>
    </contour>
  </outline>
</glyph>
<glyph name="caron" format="2">
  <advance width="362"/>
  <unicode hex="02C7"/>
  <outline>
    <contour>
      <point x="189" y="649" type="line"/>
      <point x="174" y="649" type="line"/>
      <point x="290" y="741" type="line"/>
      <point x="302" y="728" type="line"/>
      <point x="195" y="636" type="line"/>
      <point x="167" y="636" type="line"/>
      <point x="60" y="728" type="line"/>
      <point x="72" y="741" type="line"/>
    </contour>
  </outline>
</glyph>
<glyph name="uni02C9" format="2">
  <advance width="424"/>
  <unicode hex="02C9"/>
  <outline>
    <contour>
      <point x="347" y="629" type="line"/>
      <point x="77" y="629" type="line"/>
      <point x="77" y="651" type="line"/>
      <point x="347" y="651" type="line"/>
    </contour>
  </outline>
</glyph>
<glyph name="uni02CA" format="2">
  <advance width="252"/>
  <unicode hex="02CA"/>
  <outline>
    <contour>
      <point x="208" y="701" type="line"/>
      <point x="62" y="602" type="line"/>
      <point x="52" y="617" type="line"/>
      <point x="194" y="722" type="line"/>
    </contour>
  </outline>
</glyph>
<glyph name="dotaccent" format="2">
  <advance width="232"/>
  <unicode hex="02D9"/>
  <outline>
    <contour>
      <point x="144" y="684" type="qcurve"/>
      <point x="144" y="671"/>
      <point x="130" y="655"/>
      <point x="116" y="655" type="qcurve"/>
      <point x="102" y="655"/>
      <point x="88" y="671"/>
      <point x="88" y="684" type="qcurve"/>
      <point x="88" y="696"/>
      <point x="102" y="713"/>
      <point x="116" y="713" type="qcurve"/>
      <point x="129" y="713"/>
      <point x="144" y="697"/>
    </contour>
  </outline>
</glyph>
<glyph name="hookabovecomb" format="2">
  <unicode hex="0309"/>
  <outline>
    <contour>
      <point x="83" y="708" type="qcurve"/>
      <point x="71" y="723" type="line"/>
      <point x="88" y="744"/>
      <point x="132" y="769"/>
      <point x="159" y="769" type="qcurve"/>
      <point x="192" y="769"/>
      <point x="229" y="733"/>
      <point x="229" y="704" type="qcurve"/>
      <point x="229" y="685"/>
      <point x="212" y="658"/>
      <point x="200" y="646" type="qcurve"/>
      <point x="184" y="631"/>
      <point x="168" y="608"/>
      <point x="167" y="589" type="qcurve"/>
      <point x="146" y="589" type="line"/>
      <point x="146" y="608"/>
      <point x="166" y="640"/>
      <point x="178" y="651" type="qcurve"/>
      <point x="187" y="660"/>
      <point x="208" y="686"/>
      <point x="208" y="702" type="qcurve"/>
      <point x="208" y="725"/>
      <point x="182" y="748"/>
      <point x="156" y="748" type="qcurve"/>
      <point x="135" y="748"/>
      <point x="101" y="728"/>
    </contour>
  </outline>
</glyph>
<glyph name="uni030B" format="2">
  <advance width="412"/>
  <unicode hex="030B"/>
  <outline>
    <contour>
      <point x="211" y="677" type="line"/>
      <point x="67" y="573" type="line"/>
      <point x="57" y="588" type="line"/>
      <point x="197" y="698" type="line"/>
    </contour>
    <contour>
      <point x="331" y="677" type="line"/>
      <point x="187" y="573" type="line"/>
      <point x="177" y="588" type="line"/>
      <point x="317" y="698" type="line"/>
    </contour>
  </outline>
</glyph>
<glyph name="uni030F" format="2">
  <unicode hex="030F"/>
  <outline>
    <contour>
      <point x="242" y="616" type="line"/>
      <point x="232" y="601" type="line"/>
      <point x="88" y="705" type="line"/>
      <point x="102" y="726" type="line"/>
    </contour>
    <contour>
      <point x="364" y="612" type="line"/>
      <point x="354" y="597" type="line"/>
      <point x="210" y="701" type="line"/>
      <point x="224" y="722" type="line"/>
    </contour>
  </outline>
</glyph>
<glyph name="uni031B" format="2">
  <unicode hex="031B"/>
  <outline>
    <contour>
      <point x="-37" y="504" type="qcurve"/>
      <point x="-37" y="525" type="line"/>
      <point x="12" y="525"/>
      <point x="59" y="574"/>
      <point x="59" y="624" type="qcurve"/>
      <point x="81" y="624" type="line"/>
      <point x="81" y="569"/>
      <point x="19" y="504"/>
    </contour>
  </outline>
</glyph>
<glyph name="pi" format="2">
  <advance width="614"/>
  <unicode hex="03C0"/>
  <outline>
    <contour>
      <point x="136" y="0" type="line"/>
      <point x="114" y="0" type="line"/>
      <point x="114" y="502" type="line"/>
      <point x="123" y="495" type="line"/>
      <point x="40" y="495" type="line"/>
      <point x="40" y="517" type="line"/>
      <point x="574" y="517" type="line"/>
      <point x="574" y="495" type="line"/>
      <point x="493" y="495" type="line"/>
      <point x="500" y="502" type="line"/>
      <point x="500" y="0" type="line"/>
      <point x="478" y="0" type="line"/>
      <point x="478" y="502" type="line"/>
      <point x="484" y="495" type="line"/>
      <point x="127" y="495" type="line"/>
      <point x="136" y="502" type="line"/>
    </contour>
  </outline>
</glyph>
<glyph name="uni1E14" format="2">
  <advance width="566"/>
  <unicode hex="1E14"/>
  <outline>
    <contour>
      <point x="132" y="0" type="line"/>
      <point x="110" y="0" type="line"/>
      <point x="110" y="700" type="line"/>
      <point x="132" y="700" type="line"/>
    </contour>
    <contour>
      <point x="495" y="0" type="line"/>
      <point x="124" y="0" type="line"/>
      <point x="124" y="22" type="line"/>
      <point x="495" y="22" type="line"/>
    </contour>
    <contour>
      <point x="443" y="351" type="line"/>
      <point x="123" y="351" type="line"/>
      <point x="123" y="373" type="line"/>
      <point x="443" y="373" type="line"/>
    </contour>
    <contour>
      <point x="501" y="678" type="line"/>
      <point x="123" y="678" type="line"/>
      <point x="123" y="700" type="line"/>
      <point x="501" y="700" type="line"/>
    </contour>
    <contour>
      <point x="441" y="793" type="line"/>
      <point x="171" y="793" type="line"/>
      <point x="171" y="815" type="line"/>
      <point x="441" y="815" type="line"/>
    </contour>
    <contour>
      <point x="325" y="920" type="line"/>
      <point x="315" y="905" type="line"/>
      <point x="171" y="1009" type="line"/>
      <point x="185" y="1030" type="line"/>
    </contour>
  </outline>
</glyph>
<glyph name="uni1E25" format="2">
  <advance width="531"/>
  <unicode hex="1E25"/>
  <outline>
    <contour>
      <point x="283" y="530" type="qcurve"/>
      <point x="371" y="530"/>
      <point x="468" y="434"/>
      <point x="468" y="328" type="qcurve"/>
      <point x="468" y="0" type="line"/>
      <point x="446" y="0" type="line"/>
      <point x="446" y="328" type="line"/>
      <point x="446" y="423"/>
      <point x="360" y="508"/>
      <point x="281" y="508" type="qcurve"/>
      <point x="196" y="508"/>
      <point x="87" y="407"/>
      <point x="87" y="376" type="qcurve"/>
      <point x="87" y="0" type="line"/>
      <point x="79" y="0"/>
      <point x="72" y="0"/>
      <point x="65" y="0" type="qcurve"/>
      <point x="65" y="740" type="line"/>
      <point x="87" y="740" type="line"/>
      <point x="87" y="404" type="line"/>
      <point x="78" y="402" type="line"/>
      <point x="95" y="454"/>
      <point x="211" y="530"/>
    </contour>
    <contour>
      <point x="294" y="-141" type="qcurve"/>
      <point x="294" y="-154"/>
      <point x="280" y="-170"/>
      <point x="266" y="-170" type="qcurve"/>
      <point x="252" y="-170"/>
      <point x="238" y="-154"/>
      <point x="238" y="-141" type="qcurve"/>
      <point x="238" y="-129"/>
      <point x="252" y="-112"/>
      <point x="266" y="-112" type="qcurve"/>
      <point x="280" y="-112"/>
      <point x="294" y="-128"/>
    </contour>
  </outline>
</glyph>
<glyph name="uni1E37" format="2">
  <advance width="166"/>
  <unicode hex="1E37"/>
  <outline>
    <contour>
      <point x="94" y="0" type="line"/>
      <point x="72" y="0" type="line"/>
      <point x="72" y="740" type="line"/>
      <point x="94" y="740" type="line"/>
    </contour>
    <contour>
      <point x="113" y="-141" type="qcurve"/>
      <point x="113" y="-154"/>
      <point x="99" y="-170"/>
      <point x="85" y="-170" type="qcurve"/>
      <point x="71" y="-170"/>
      <point x="57" y="-154"/>
      <point x="57" y="-141" type="qcurve"/>
      <point x="57" y="-129"/>
      <point x="71" y="-112"/>
      <point x="85" y="-112" type="qcurve"/>
      <point x="98" y="-112"/>
      <point x="113" y="-128"/>
    </contour>
  </outline>
</glyph>
<glyph name="uni1E3A" format="2">
  <advance width="493"/>
  <unicode hex="1E3A"/>
  <outline>
    <contour>
      <point x="122" y="22" type="line"/>
      <point x="483" y="22" type="line"/>
      <point x="483" y="0" type="line"/>
      <point x="110" y="0" type="line"/>
      <point x="110" y="700" type="line"/>
      <point x="132" y="700" type="line"/>
      <point x="132" y="13" type="line"/>
    </contour>
    <contour>
      <point x="434" y="-160" type="line"/>
      <point x="179" y="-160" type="line"/>
      <point x="179" y="-150" type="line"/>
      <point x="179" y="-138" type="line"/>
      <point x="434" y="-138" type="line"/>
      <point x="434" y="-149" type="line"/>
    </contour>
  </outline>
</glyph>
<glyph name="uni1E42" format="2">
  <advance width="828"/>
  <unicode hex="1E42"/>
  <outline>
    <contour>
      <point x="110" y="700" type="line"/>
      <point x="127" y="700" type="line"/>
      <point x="421" y="232" type="line"/>
      <point x="418" y="232" type="line"/>
      <point x="711" y="700" type="line"/>
      <point x="728" y="700" type="line"/>
      <point x="728" y="0" type="line"/>
      <point x="706" y="0" type="line"/>
      <point x="706" y="383" type="line"/>
      <point x="706" y="472"/>
      <point x="706" y="614"/>
      <point x="709" y="684" type="qcurve"/>
      <point x="725" y="679" type="line"/>
      <point x="427" y="204" type="line"/>
      <point x="412" y="204" type="line"/>
      <point x="119" y="672" type="line"/>
      <point x="129" y="684" type="line"/>
      <point x="132" y="618"/>
      <point x="132" y="472"/>
      <point x="132" y="383" type="qcurve"/>
      <point x="132" y="0" type="line"/>
      <point x="110" y="0" type="line"/>
    </contour>
    <contour>
      <point x="447" y="-141" type="qcurve"/>
      <point x="447" y="-154"/>
      <point x="433" y="-170"/>
      <point x="419" y="-170" type="qcurve"/>
      <point x="405" y="-170"/>
      <point x="391" y="-154"/>
      <point x="391" y="-141" type="qcurve"/>
      <point x="391" y="-129"/>
      <point x="405" y="-112"/>
      <point x="419" y="-112" type="qcurve"/>
      <point x="432" y="-112"/>
      <point x="447" y="-128"/>
    </contour>
  </outline>
</glyph>
<glyph name="uni1E46" format="2">
  <advance width="730"/>
  <unicode hex="1E46"/>
  <outline>
    <contour>
      <point x="598" y="241" type="qcurve"/>
      <point x="598" y="700" type="line"/>
      <point x="620" y="700" type="line"/>
      <point x="620" y="0" type="line"/>
      <point x="600" y="0" type="line"/>
      <point x="115" y="686" type="line"/>
      <point x="130" y="686" type="line"/>
      <point x="131" y="661"/>
      <point x="133" y="525"/>
      <point x="132" y="470" type="qcurve"/>
      <point x="132" y="0" type="line"/>
      <point x="110" y="0" type="line"/>
      <point x="110" y="700" type="line"/>
      <point x="132" y="700" type="line"/>
      <point x="605" y="31" type="line"/>
      <point x="601" y="31" type="line"/>
      <point x="601" y="75"/>
      <point x="599" y="177"/>
    </contour>
    <contour>
      <point x="393" y="-141" type="qcurve"/>
      <point x="393" y="-154"/>
      <point x="379" y="-170"/>
      <point x="365" y="-170" type="qcurve"/>
      <point x="351" y="-170"/>
      <point x="337" y="-154"/>
      <point x="337" y="-141" type="qcurve"/>
      <point x="337" y="-129"/>
      <point x="351" y="-112"/>
      <point x="365" y="-112" type="qcurve"/>
      <point x="378" y="-112"/>
      <point x="393" y="-128"/>
    </contour>
  </outline>
</glyph>
<glyph name="uni1E47" format="2">
  <advance width="541"/>
  <unicode hex="1E47"/>
  <outline>
    <contour>
      <point x="288" y="530" type="qcurve"/>
      <point x="376" y="530"/>
      <point x="473" y="434"/>
      <point x="473" y="328" type="qcurve"/>
      <point x="473" y="0" type="line"/>
      <point x="451" y="0" type="line"/>
      <point x="451" y="328" type="line"/>
      <point x="451" y="423"/>
      <point x="365" y="508"/>
      <point x="286" y="508" type="qcurve"/>
      <point x="201" y="508"/>
      <point x="92" y="407"/>
      <point x="92" y="376" type="qcurve"/>
      <point x="92" y="0" type="line"/>
      <point x="84" y="0"/>
      <point x="77" y="0"/>
      <point x="70" y="0" type="qcurve"/>
      <point x="70" y="525" type="line"/>
      <point x="90" y="525" type="line"/>
      <point x="92" y="404" type="line"/>
      <point x="83" y="401" type="line"/>
      <point x="99" y="453"/>
      <point x="215" y="530"/>
    </contour>
    <contour>
      <point x="300" y="-141" type="qcurve"/>
      <point x="300" y="-154"/>
      <point x="286" y="-170"/>
      <point x="272" y="-170" type="qcurve"/>
      <point x="258" y="-170"/>
      <point x="244" y="-154"/>
      <point x="244" y="-141" type="qcurve"/>
      <point x="244" y="-129"/>
      <point x="258" y="-112"/>
      <point x="272" y="-112" type="qcurve"/>
      <point x="284" y="-112"/>
      <point x="300" y="-128"/>
    </contour>
  </outline>
</glyph>
<glyph name="uni1E4C" format="2">
  <advance width="798"/>
  <unicode hex="1E4C"/>
  <outline>
    <contour>
      <point x="399" y="710" type="qcurve"/>
      <point x="550" y="710"/>
      <point x="743" y="508"/>
      <point x="743" y="349" type="qcurve"/>
      <point x="743" y="191"/>
      <point x="550" y="-10"/>
      <point x="399" y="-10" type="qcurve"/>
      <point x="248" y="-10"/>
      <point x="55" y="191"/>
      <point x="55" y="349" type="qcurve"/>
      <point x="55" y="507"/>
      <point x="248" y="710"/>
    </contour>
    <contour>
      <point x="399" y="12" type="qcurve"/>
      <point x="539" y="12"/>
      <point x="720" y="202"/>
      <point x="720" y="349" type="qcurve"/>
      <point x="720" y="496"/>
      <point x="539" y="688"/>
      <point x="399" y="688" type="qcurve"/>
      <point x="260" y="688"/>
      <point x="78" y="496"/>
      <point x="78" y="349" type="qcurve"/>
      <point x="78" y="202"/>
      <point x="260" y="12"/>
    </contour>
    <contour>
      <point x="297" y="776" type="qcurve"/>
      <point x="277" y="779" type="line"/>
      <point x="277" y="809"/>
      <point x="315" y="851"/>
      <point x="339" y="851" type="qcurve"/>
      <point x="360" y="851"/>
      <point x="398" y="828"/>
      <point x="416" y="815" type="qcurve"/>
      <point x="423" y="810"/>
      <point x="455" y="790"/>
      <point x="469" y="790" type="qcurve"/>
      <point x="484" y="790"/>
      <point x="508" y="815"/>
      <point x="509" y="845" type="qcurve"/>
      <point x="529" y="842" type="line"/>
      <point x="529" y="809"/>
      <point x="492" y="770"/>
      <point x="470" y="770" type="qcurve"/>
      <point x="447" y="770"/>
      <point x="409" y="794"/>
      <point x="392" y="806" type="qcurve"/>
      <point x="384" y="811"/>
      <point x="355" y="831"/>
      <point x="339" y="831" type="qcurve"/>
      <point x="324" y="831"/>
      <point x="297" y="802"/>
    </contour>
    <contour>
      <point x="527" y="1015" type="line"/>
      <point x="383" y="911" type="line"/>
      <point x="373" y="926" type="line"/>
      <point x="513" y="1036" type="line"/>
    </contour>
  </outline>
</glyph>
<glyph name="uni1E4E" format="2">
  <advance width="798"/>
  <unicode hex="1E4E"/>
  <outline>
    <contour>
      <point x="399" y="710" type="qcurve"/>
      <point x="550" y="710"/>
      <point x="743" y="508"/>
      <point x="743" y="349" type="qcurve"/>
      <point x="743" y="191"/>
      <point x="550" y="-10"/>
      <point x="399" y="-10" type="qcurve"/>
      <point x="248" y="-10"/>
      <point x="55" y="191"/>
      <point x="55" y="349" type="qcurve"/>
      <point x="55" y="507"/>
      <point x="248" y="710"/>
    </contour>
    <contour>
      <point x="399" y="12" type="qcurve"/>
      <point x="539" y="12"/>
      <point x="720" y="202"/>
      <point x="720" y="349" type="qcurve"/>
      <point x="720" y="496"/>
      <point x="539" y="688"/>
      <point x="399" y="688" type="qcurve"/>
      <point x="260" y="688"/>
      <point x="78" y="496"/>
      <point x="78" y="349" type="qcurve"/>
      <point x="78" y="202"/>
      <point x="260" y="12"/>
    </contour>
    <contour>
      <point x="297" y="776" type="qcurve"/>
      <point x="277" y="779" type="line"/>
      <point x="277" y="809"/>
      <point x="315" y="851"/>
      <point x="339" y="851" type="qcurve"/>
      <point x="360" y="851"/>
      <point x="398" y="828"/>
      <point x="416" y="815" type="qcurve"/>
      <point x="423" y="810"/>
      <point x="455" y="790"/>
      <point x="469" y="790" type="qcurve"/>
      <point x="484" y="790"/>
      <point x="508" y="815"/>
      <point x="509" y="845" type="qcurve"/>
      <point x="529" y="842" type="line"/>
      <point x="529" y="809"/>
      <point x="492" y="770"/>
      <point x="470" y="770" type="qcurve"/>
      <point x="447" y="770"/>
      <point x="409" y="794"/>
      <point x="392" y="806" type="qcurve"/>
      <point x="384" y="811"/>
      <point x="355" y="831"/>
      <point x="339" y="831" type="qcurve"/>
      <point x="324" y="831"/>
      <point x="297" y="802"/>
    </contour>
    <contour>
      <point x="348" y="959" type="qcurve"/>
      <point x="348" y="947"/>
      <point x="335" y="932"/>
      <point x="321" y="932" type="qcurve"/>
      <point x="309" y="932"/>
      <point x="294" y="947"/>
      <point x="294" y="959" type="qcurve"/>
      <point x="294" y="970"/>
      <point x="308" y="986"/>
      <point x="321" y="986" type="qcurve"/>
      <point x="335" y="986"/>
      <point x="348" y="971"/>
    </contour>
    <contour>
      <point x="498" y="959" type="qcurve"/>
      <point x="498" y="947"/>
      <point x="485" y="932"/>
      <point x="471" y="932" type="qcurve"/>
      <point x="459" y="932"/>
      <point x="444" y="947"/>
      <point x="444" y="959" type="qcurve"/>
      <point x="444" y="970"/>
      <point x="458" y="986"/>
      <point x="471" y="986" type="qcurve"/>
      <point x="485" y="986"/>
      <point x="498" y="971"/>
    </contour>
  </outline>
</glyph>
<glyph name="uni1E51" format="2">
  <advance width="615"/>
  <unicode hex="1E51"/>
  <outline>
    <contour>
      <point x="308" y="530" type="qcurve"/>
      <point x="427" y="530"/>
      <point x="575" y="380"/>
      <point x="575" y="263" type="qcurve"/>
      <point x="575" y="144"/>
      <point x="427" y="-10"/>
      <point x="308" y="-10" type="qcurve"/>
      <point x="190" y="-10"/>
      <point x="40" y="144"/>
      <point x="40" y="263" type="qcurve"/>
      <point x="40" y="380"/>
      <point x="190" y="530"/>
    </contour>
    <contour>
      <point x="308" y="12" type="qcurve"/>
      <point x="414" y="12"/>
      <point x="553" y="153"/>
      <point x="553" y="263" type="qcurve"/>
      <point x="553" y="369"/>
      <point x="414" y="508"/>
      <point x="308" y="508" type="qcurve"/>
      <point x="201" y="508"/>
      <point x="62" y="369"/>
      <point x="62" y="263" type="qcurve"/>
      <point x="62" y="153"/>
      <point x="201" y="12"/>
    </contour>
    <contour>
      <point x="442" y="618" type="line"/>
      <point x="172" y="618" type="line"/>
      <point x="172" y="640" type="line"/>
      <point x="442" y="640" type="line"/>
    </contour>
    <contour>
      <point x="326" y="745" type="line"/>
      <point x="316" y="730" type="line"/>
      <point x="172" y="834" type="line"/>
      <point x="186" y="855" type="line"/>
    </contour>
  </outline>
</glyph>
<glyph name="uni1E67" format="2">
  <advance width="479"/>
  <unicode hex="1E67"/>
  <outline>
    <contour>
      <point x="45" y="81" type="qcurve"/>
      <point x="62" y="96" type="line"/>
      <point x="90" y="59"/>
      <point x="186" y="12"/>
      <point x="250" y="12" type="qcurve"/>
      <point x="331" y="12"/>
      <point x="403" y="86"/>
      <point x="403" y="133" type="qcurve"/>
      <point x="403" y="182"/>
      <point x="320" y="238"/>
      <point x="241" y="256" type="qcurve"/>
      <point x="154" y="276"/>
      <point x="65" y="344"/>
      <point x="65" y="393" type="qcurve"/>
      <point x="65" y="455"/>
      <point x="160" y="530"/>
      <point x="240" y="530" type="qcurve"/>
      <point x="293" y="530"/>
      <point x="387" y="486"/>
      <point x="422" y="445" type="qcurve"/>
      <point x="406" y="427" type="line"/>
      <point x="373" y="465"/>
      <point x="290" y="508"/>
      <point x="240" y="508" type="qcurve"/>
      <point x="167" y="508"/>
      <point x="87" y="443"/>
      <point x="87" y="394" type="qcurve"/>
      <point x="87" y="354"/>
      <point x="167" y="297"/>
      <point x="245" y="279" type="qcurve"/>
      <point x="336" y="258"/>
      <point x="425" y="193"/>
      <point x="425" y="133" type="qcurve"/>
      <point x="425" y="68"/>
      <point x="331" y="-10"/>
      <point x="248" y="-10" type="qcurve"/>
      <point x="182" y="-10"/>
      <point x="74" y="40"/>
    </contour>
    <contour>
      <point x="243" y="608" type="line"/>
      <point x="228" y="608" type="line"/>
      <point x="344" y="700" type="line"/>
      <point x="356" y="687" type="line"/>
      <point x="249" y="595" type="line"/>
      <point x="221" y="595" type="line"/>
      <point x="114" y="687" type="line"/>
      <point x="126" y="700" type="line"/>
    </contour>
    <contour>
      <point x="263" y="739" type="qcurve"/>
      <point x="263" y="726"/>
      <point x="249" y="710"/>
      <point x="235" y="710" type="qcurve"/>
      <point x="221" y="710"/>
      <point x="207" y="726"/>
      <point x="207" y="739" type="qcurve"/>
      <point x="207" y="751"/>
      <point x="221" y="768"/>
      <point x="235" y="768" type="qcurve"/>
      <point x="248" y="768"/>
      <point x="263" y="752"/>
    </contour>
  </outline>
</glyph>
<glyph name="uni1E69" format="2">
  <advance width="479"/>
  <unicode hex="1E69"/>
  <outline>
    <contour>
      <point x="45" y="81" type="qcurve"/>
      <point x="62" y="96" type="line"/>
      <point x="90" y="59"/>
      <point x="186" y="12"/>
      <point x="250" y="12" type="qcurve"/>
      <point x="331" y="12"/>
      <point x="403" y="86"/>
      <point x="403" y="133" type="qcurve"/>
      <point x="403" y="182"/>
      <point x="320" y="238"/>
      <point x="241" y="256" type="qcurve"/>
      <point x="154" y="276"/>
      <point x="65" y="344"/>
      <point x="65" y="393" type="qcurve"/>
      <point x="65" y="455"/>
      <point x="160" y="530"/>
      <point x="240" y="530" type="qcurve"/>
      <point x="293" y="530"/>
      <point x="387" y="486"/>
      <point x="422" y="445" type="qcurve"/>
      <point x="406" y="427" type="line"/>
      <point x="373" y="465"/>
      <point x="290" y="508"/>
      <point x="240" y="508" type="qcurve"/>
      <point x="167" y="508"/>
      <point x="87" y="443"/>
      <point x="87" y="394" type="qcurve"/>
      <point x="87" y="354"/>
      <point x="167" y="297"/>
      <point x="245" y="279" type="qcurve"/>
      <point x="336" y="258"/>
      <point x="425" y="193"/>
      <point x="425" y="133" type="qcurve"/>
      <point x="425" y="68"/>
      <point x="331" y="-10"/>
      <point x="248" y="-10" type="qcurve"/>
      <point x="182" y="-10"/>
      <point x="74" y="40"/>
    </contour>
    <contour>
      <point x="263" y="-141" type="qcurve"/>
      <point x="263" y="-154"/>
      <point x="249" y="-170"/>
      <point x="235" y="-170" type="qcurve"/>
      <point x="221" y="-170"/>
      <point x="207" y="-154"/>
      <point x="207" y="-141" type="qcurve"/>
      <point x="207" y="-129"/>
      <point x="221" y="-112"/>
      <point x="235" y="-112" type="qcurve"/>
      <point x="248" y="-112"/>
      <point x="263" y="-128"/>
    </contour>
    <contour>
      <point x="263" y="624" type="qcurve"/>
      <point x="263" y="611"/>
      <point x="249" y="595"/>
      <point x="235" y="595" type="qcurve"/>
      <point x="221" y="595"/>
      <point x="207" y="611"/>
      <point x="207" y="624" type="qcurve"/>
      <point x="207" y="636"/>
      <point x="221" y="653"/>
      <point x="235" y="653" type="qcurve"/>
      <point x="248" y="653"/>
      <point x="263" y="637"/>
    </contour>
  </outline>
</glyph>
<glyph name="uni1E6D" format="2">
  <advance width="350"/>
  <unicode hex="1E6D"/>
  <outline>
    <contour>
      <point x="185" y="659" type="line"/>
      <point x="185" y="0" type="line"/>
      <point x="163" y="0" type="line"/>
      <point x="163" y="659" type="line"/>
    </contour>
    <contour>
      <point x="335" y="525" type="line"/>
      <point x="335" y="503" type="line"/>
      <point x="20" y="503" type="line"/>
      <point x="20" y="525" type="line"/>
    </contour>
    <contour>
      <point x="204" y="-141" type="qcurve"/>
      <point x="204" y="-154"/>
      <point x="190" y="-170"/>
      <point x="176" y="-170" type="qcurve"/>
      <point x="162" y="-170"/>
      <point x="148" y="-154"/>
      <point x="148" y="-141" type="qcurve"/>
      <point x="148" y="-129"/>
      <point x="162" y="-112"/>
      <point x="176" y="-112" type="qcurve"/>
      <point x="189" y="-112"/>
      <point x="204" y="-128"/>
    </contour>
  </outline>
</glyph>
<glyph name="uni1E78" format="2">
  <advance width="744"/>
  <unicode hex="1E78"/>
  <outline>
    <contour>
      <point x="612" y="700" type="line"/>
      <point x="634" y="700" type="line"/>
      <point x="634" y="269" type="line"/>
      <point x="634" y="149"/>
      <point x="484" y="-6"/>
      <point x="368" y="-6" type="qcurve"/>
      <point x="255" y="-6"/>
      <point x="111" y="149"/>
      <point x="110" y="269" type="qcurve"/>
      <point x="110" y="700" type="line"/>
      <point x="132" y="700" type="line"/>
      <point x="132" y="278" type="line"/>
      <point x="132" y="163"/>
      <point x="263" y="16"/>
      <point x="368" y="16" type="qcurve"/>
      <point x="476" y="16"/>
      <point x="612" y="163"/>
      <point x="612" y="278" type="qcurve"/>
    </contour>
    <contour>
      <point x="266" y="776" type="qcurve"/>
      <point x="246" y="779" type="line"/>
      <point x="246" y="809"/>
      <point x="284" y="851"/>
      <point x="308" y="851" type="qcurve"/>
      <point x="329" y="851"/>
      <point x="367" y="828"/>
      <point x="385" y="815" type="qcurve"/>
      <point x="392" y="810"/>
      <point x="424" y="790"/>
      <point x="438" y="790" type="qcurve"/>
      <point x="453" y="790"/>
      <point x="477" y="815"/>
      <point x="478" y="845" type="qcurve"/>
      <point x="498" y="842" type="line"/>
      <point x="498" y="809"/>
      <point x="461" y="770"/>
      <point x="439" y="770" type="qcurve"/>
      <point x="416" y="770"/>
      <point x="378" y="794"/>
      <point x="361" y="806" type="qcurve"/>
      <point x="353" y="811"/>
      <point x="324" y="831"/>
      <point x="308" y="831" type="qcurve"/>
      <point x="293" y="831"/>
      <point x="266" y="802"/>
    </contour>
    <contour>
      <point x="496" y="1015" type="line"/>
      <point x="352" y="911" type="line"/>
      <point x="342" y="926" type="line"/>
      <point x="482" y="1036" type="line"/>
    </contour>
  </outline>
</glyph>
<glyph name="uni1E79" format="2">
  <advance width="538"/>
  <unicode hex="1E79"/>
  <outline>
    <contour>
      <point x="265" y="12" type="qcurve"/>
      <point x="338" y="12"/>
      <point x="444" y="117"/>
      <point x="444" y="149" type="qcurve"/>
      <point x="444" y="525" type="line"/>
      <point x="466" y="525" type="line"/>
      <point x="466" y="0" type="line"/>
      <point x="446" y="0" type="line"/>
      <point x="444" y="121" type="line"/>
      <point x="453" y="123" type="line"/>
      <point x="435" y="69"/>
      <point x="330" y="-10"/>
      <point x="263" y="-10" type="qcurve"/>
      <point x="172" y="-10"/>
      <point x="73" y="88"/>
      <point x="73" y="197" type="qcurve"/>
      <point x="73" y="525" type="line"/>
      <point x="95" y="525" type="line"/>
      <point x="95" y="197" type="line"/>
      <point x="95" y="99"/>
      <point x="183" y="12"/>
    </contour>
    <contour>
      <point x="164" y="601" type="qcurve"/>
      <point x="144" y="604" type="line"/>
      <point x="144" y="634"/>
      <point x="182" y="676"/>
      <point x="206" y="676" type="qcurve"/>
      <point x="226" y="676"/>
      <point x="264" y="653"/>
      <point x="282" y="640" type="qcurve"/>
      <point x="290" y="635"/>
      <point x="322" y="615"/>
      <point x="336" y="615" type="qcurve"/>
      <point x="350" y="615"/>
      <point x="374" y="640"/>
      <point x="376" y="670" type="qcurve"/>
      <point x="396" y="667" type="line"/>
      <point x="396" y="634"/>
      <point x="358" y="595"/>
      <point x="336" y="595" type="qcurve"/>
      <point x="314" y="595"/>
      <point x="276" y="619"/>
      <point x="258" y="631" type="qcurve"/>
      <point x="250" y="636"/>
      <point x="222" y="656"/>
      <point x="206" y="656" type="qcurve"/>
      <point x="190" y="656"/>
      <point x="164" y="627"/>
    </contour>
    <contour>
      <point x="394" y="840" type="line"/>
      <point x="250" y="736" type="line"/>
      <point x="240" y="751" type="line"/>
      <point x="380" y="861" type="line"/>
    </contour>
  </outline>
</glyph>
<glyph name="uni1E7A" format="2">
  <advance width="744"/>
  <unicode hex="1E7A"/>
  <outline>
    <contour>
      <point x="612" y="700" type="line"/>
      <point x="634" y="700" type="line"/>
      <point x="634" y="269" type="line"/>
      <point x="634" y="149"/>
      <point x="484" y="-6"/>
      <point x="368" y="-6" type="qcurve"/>
      <point x="255" y="-6"/>
      <point x="111" y="149"/>
      <point x="110" y="269" type="qcurve"/>
      <point x="110" y="700" type="line"/>
      <point x="132" y="700" type="line"/>
      <point x="132" y="278" type="line"/>
      <point x="132" y="163"/>
      <point x="263" y="16"/>
      <point x="368" y="16" type="qcurve"/>
      <point x="476" y="16"/>
      <point x="612" y="163"/>
      <point x="612" y="278" type="qcurve"/>
    </contour>
    <contour>
      <point x="507" y="793" type="line"/>
      <point x="237" y="793" type="line"/>
      <point x="237" y="815" type="line"/>
      <point x="507" y="815" type="line"/>
    </contour>
    <contour>
      <point x="317" y="932" type="qcurve"/>
      <point x="317" y="920"/>
      <point x="304" y="905"/>
      <point x="290" y="905" type="qcurve"/>
      <point x="278" y="905"/>
      <point x="263" y="920"/>
      <point x="263" y="932" type="qcurve"/>
      <point x="263" y="943"/>
      <point x="277" y="959"/>
      <point x="290" y="959" type="qcurve"/>
      <point x="304" y="959"/>
      <point x="317" y="944"/>
    </contour>
    <contour>
      <point x="467" y="932" type="qcurve"/>
      <point x="467" y="920"/>
      <point x="454" y="905"/>
      <point x="440" y="905" type="qcurve"/>
      <point x="428" y="905"/>
      <point x="413" y="920"/>
      <point x="413" y="932" type="qcurve"/>
      <point x="413" y="943"/>
      <point x="427" y="959"/>
      <point x="440" y="959" type="qcurve"/>
      <point x="454" y="959"/>
      <point x="467" y="944"/>
    </contour>
  </outline>
</glyph>
<glyph name="uni1E7B" format="2">
  <advance width="538"/>
  <unicode hex="1E7B"/>
  <outline>
    <contour>
      <point x="265" y="12" type="qcurve"/>
      <point x="338" y="12"/>
      <point x="444" y="117"/>
      <point x="444" y="149" type="qcurve"/>
      <point x="444" y="525" type="line"/>
      <point x="466" y="525" type="line"/>
      <point x="466" y="0" type="line"/>
      <point x="446" y="0" type="line"/>
      <point x="444" y="121" type="line"/>
      <point x="453" y="123" type="line"/>
      <point x="435" y="69"/>
      <point x="330" y="-10"/>
      <point x="263" y="-10" type="qcurve"/>
      <point x="172" y="-10"/>
      <point x="73" y="88"/>
      <point x="73" y="197" type="qcurve"/>
      <point x="73" y="525" type="line"/>
      <point x="95" y="525" type="line"/>
      <point x="95" y="197" type="line"/>
      <point x="95" y="99"/>
      <point x="183" y="12"/>
    </contour>
    <contour>
      <point x="404" y="618" type="line"/>
      <point x="134" y="618" type="line"/>
      <point x="134" y="640" type="line"/>
      <point x="404" y="640" type="line"/>
    </contour>
    <contour>
      <point x="214" y="757" type="qcurve"/>
      <point x="214" y="745"/>
      <point x="202" y="730"/>
      <point x="188" y="730" type="qcurve"/>
      <point x="176" y="730"/>
      <point x="160" y="745"/>
      <point x="160" y="757" type="qcurve"/>
      <point x="160" y="768"/>
      <point x="174" y="784"/>
      <point x="188" y="784" type="qcurve"/>
      <point x="202" y="784"/>
      <point x="214" y="769"/>
    </contour>
    <contour>
      <point x="364" y="757" type="qcurve"/>
      <point x="364" y="745"/>
      <point x="352" y="730"/>
      <point x="338" y="730" type="qcurve"/>
      <point x="326" y="730"/>
      <point x="310" y="745"/>
      <point x="310" y="757" type="qcurve"/>
      <point x="310" y="768"/>
      <point x="324" y="784"/>
      <point x="338" y="784" type="qcurve"/>
      <point x="352" y="784"/>
      <point x="364" y="769"/>
    </contour>
  </outline>
</glyph>
<glyph name="Wdieresis" format="2">
  <advance width="849"/>
  <unicode hex="1E84"/>
  <outline>
    <contour>
      <point x="216" y="0" type="line"/>
      <point x="20" y="700" type="line"/>
      <point x="44" y="700" type="line"/>
      <point x="186" y="193" type="line"/>
      <point x="207" y="117"/>
      <point x="213" y="91"/>
      <point x="236" y="15" type="qcurve"/>
      <point x="224" y="15" type="line"/>
      <point x="254" y="88"/>
      <point x="284" y="167"/>
      <point x="297" y="202" type="qcurve"/>
      <point x="417" y="520" type="line"/>
      <point x="432" y="520" type="line"/>
      <point x="551" y="202" type="line"/>
      <point x="564" y="167"/>
      <point x="596" y="88"/>
      <point x="625" y="15" type="qcurve"/>
      <point x="612" y="15" type="line"/>
      <point x="635" y="91"/>
      <point x="642" y="117"/>
      <point x="663" y="193" type="qcurve"/>
      <point x="805" y="700" type="line"/>
      <point x="829" y="700" type="line"/>
      <point x="633" y="0" type="line"/>
      <point x="607" y="0" type="line"/>
      <point x="415" y="499" type="line"/>
      <point x="434" y="499" type="line"/>
      <point x="242" y="0" type="line"/>
    </contour>
    <contour>
      <point x="376" y="797" type="qcurve"/>
      <point x="376" y="785"/>
      <point x="364" y="770"/>
      <point x="350" y="770" type="qcurve"/>
      <point x="338" y="770"/>
      <point x="322" y="785"/>
      <point x="322" y="797" type="qcurve"/>
      <point x="322" y="808"/>
      <point x="336" y="824"/>
      <point x="350" y="824" type="qcurve"/>
      <point x="364" y="824"/>
      <point x="376" y="809"/>
    </contour>
    <contour>
      <point x="526" y="797" type="qcurve"/>
      <point x="526" y="785"/>
      <point x="514" y="770"/>
      <point x="500" y="770" type="qcurve"/>
      <point x="488" y="770"/>
      <point x="472" y="785"/>
      <point x="472" y="797" type="qcurve"/>
      <point x="472" y="808"/>
      <point x="486" y="824"/>
      <point x="500" y="824" type="qcurve"/>
      <point x="514" y="824"/>
      <point x="526" y="809"/>
    </contour>
  </outline>
</glyph>
<glyph name="uni1E8F" format="2">
  <advance width="501"/>
  <unicode hex="1E8F"/>
  <outline>
    <contour>
      <point x="268" y="22" type="qcurve"/>
      <point x="257" y="-8" type="line"/>
      <point x="15" y="525" type="line"/>
      <point x="40" y="525" type="line"/>
      <point x="237" y="90" type="line"/>
      <point x="241" y="82"/>
      <point x="263" y="32"/>
    </contour>
    <contour>
      <point x="182" y="-230" type="line"/>
      <point x="157" y="-230" type="line"/>
      <point x="237" y="-29" type="line"/>
      <point x="255" y="16" type="line"/>
      <point x="257" y="20"/>
      <point x="259" y="24"/>
      <point x="261" y="28" type="qcurve"/>
      <point x="461" y="525" type="line"/>
      <point x="486" y="525" type="line"/>
      <point x="269" y="-13" type="line"/>
    </contour>
    <contour>
      <point x="285" y="624" type="qcurve"/>
      <point x="285" y="611"/>
      <point x="271" y="595"/>
      <point x="257" y="595" type="qcurve"/>
      <point x="243" y="595"/>
      <point x="229" y="611"/>
      <point x="229" y="624" type="qcurve"/>
      <point x="229" y="636"/>
      <point x="243" y="653"/>
      <point x="257" y="653" type="qcurve"/>
      <point x="270" y="653"/>
      <point x="285" y="637"/>
    </contour>
  </outline>
</glyph>
<glyph name="uni1EA0" format="2">
  <advance width="611"/>
  <unicode hex="1EA0"/>
  <outline>
    <contour>
      <point x="304" y="682" type="qcurve"/>
      <point x="305" y="682" type="line"/>
      <point x="302" y="672"/>
      <point x="262" y="570"/>
      <point x="237" y="503" type="qcurve"/>
      <point x="46" y="0" type="line"/>
      <point x="20" y="0" type="line"/>
      <point x="289" y="700" type="line"/>
      <point x="322" y="700" type="line"/>
      <point x="591" y="0" type="line"/>
      <point x="565" y="0" type="line"/>
      <point x="372" y="504" type="line"/>
      <point x="348" y="568"/>
      <point x="308" y="672"/>
    </contour>
    <contour>
      <point x="299" y="230" type="line"/>
      <point x="120" y="230" type="line"/>
      <point x="128" y="253" type="line"/>
      <point x="299" y="253" type="line"/>
    </contour>
    <contour>
      <point x="493" y="230" type="line"/>
      <point x="299" y="230" type="line"/>
      <point x="299" y="253" type="line"/>
      <point x="485" y="253" type="line"/>
    </contour>
    <contour>
      <point x="334" y="-141" type="qcurve"/>
      <point x="334" y="-154"/>
      <point x="320" y="-170"/>
      <point x="306" y="-170" type="qcurve"/>
      <point x="292" y="-170"/>
      <point x="278" y="-154"/>
      <point x="278" y="-141" type="qcurve"/>
      <point x="278" y="-129"/>
      <point x="292" y="-112"/>
      <point x="306" y="-112" type="qcurve"/>
      <point x="318" y="-112"/>
      <point x="334" y="-128"/>
    </contour>
  </outline>
</glyph>
<glyph name="uni1EA4" format="2">
  <advance width="611"/>
  <unicode hex="1EA4"/>
  <outline>
    <contour>
      <point x="304" y="682" type="qcurve"/>
      <point x="305" y="682" type="line"/>
      <point x="302" y="672"/>
      <point x="262" y="570"/>
      <point x="237" y="503" type="qcurve"/>
      <point x="46" y="0" type="line"/>
      <point x="20" y="0" type="line"/>
      <point x="289" y="700" type="line"/>
      <point x="322" y="700" type="line"/>
      <point x="591" y="0" type="line"/>
      <point x="565" y="0" type="line"/>
      <point x="372" y="504" type="line"/>
      <point x="348" y="568"/>
      <point x="308" y="672"/>
    </contour>
    <contour>
      <point x="299" y="230" type="line"/>
      <point x="120" y="230" type="line"/>
      <point x="128" y="253" type="line"/>
      <point x="299" y="253" type="line"/>
    </contour>
    <contour>
      <point x="493" y="230" type="line"/>
      <point x="299" y="230" type="line"/>
      <point x="299" y="253" type="line"/>
      <point x="485" y="253" type="line"/>
    </contour>
    <contour>
      <point x="414" y="795" type="line"/>
      <point x="298" y="887" type="line"/>
      <point x="313" y="887" type="line"/>
      <point x="196" y="795" type="line"/>
      <point x="184" y="808" type="line"/>
      <point x="291" y="900" type="line"/>
      <point x="319" y="900" type="line"/>
      <point x="426" y="808" type="line"/>
    </contour>
    <contour>
      <point x="538" y="1004" type="line"/>
      <point x="394" y="900" type="line"/>
      <point x="384" y="915" type="line"/>
      <point x="524" y="1025" type="line"/>
    </contour>
  </outline>
</glyph>
<glyph name="uni1EA8" format="2">
  <advance width="611"/>
  <unicode hex="1EA8"/>
  <outline>
    <contour>
      <point x="304" y="682" type="qcurve"/>
      <point x="305" y="682" type="line"/>
      <point x="302" y="672"/>
      <point x="262" y="570"/>
      <point x="237" y="503" type="qcurve"/>
      <point x="46" y="0" type="line"/>
      <point x="20" y="0" type="line"/>
      <point x="289" y="700" type="line"/>
      <point x="322" y="700" type="line"/>
      <point x="591" y="0" type="line"/>
      <point x="565" y="0" type="line"/>
      <point x="372" y="504" type="line"/>
      <point x="348" y="568"/>
      <point x="308" y="672"/>
    </contour>
    <contour>
      <point x="299" y="230" type="line"/>
      <point x="120" y="230" type="line"/>
      <point x="128" y="253" type="line"/>
      <point x="299" y="253" type="line"/>
    </contour>
    <contour>
      <point x="493" y="230" type="line"/>
      <point x="299" y="230" type="line"/>
      <point x="299" y="253" type="line"/>
      <point x="485" y="253" type="line"/>
    </contour>
    <contour>
      <point x="439" y="795" type="line"/>
      <point x="323" y="887" type="line"/>
      <point x="338" y="887" type="line"/>
      <point x="221" y="795" type="line"/>
      <point x="209" y="808" type="line"/>
      <point x="316" y="900" type="line"/>
      <point x="344" y="900" type="line"/>
      <point x="451" y="808" type="line"/>
    </contour>
    <contour>
      <point x="361" y="994" type="qcurve"/>
      <point x="349" y="1009" type="line"/>
      <point x="366" y="1030"/>
      <point x="410" y="1055"/>
      <point x="437" y="1055" type="qcurve"/>
      <point x="470" y="1055"/>
      <point x="507" y="1019"/>
      <point x="507" y="990" type="qcurve"/>
      <point x="507" y="971"/>
      <point x="489" y="944"/>
      <point x="478" y="932" type="qcurve"/>
      <point x="461" y="917"/>
      <point x="446" y="894"/>
      <point x="445" y="875" type="qcurve"/>
      <point x="424" y="875" type="line"/>
      <point x="424" y="894"/>
      <point x="443" y="926"/>
      <point x="456" y="937" type="qcurve"/>
      <point x="464" y="946"/>
      <point x="486" y="972"/>
      <point x="486" y="988" type="qcurve"/>
      <point x="486" y="1011"/>
      <point x="460" y="1034"/>
      <point x="434" y="1034" type="qcurve"/>
      <point x="413" y="1034"/>
      <point x="378" y="1014"/>
    </contour>
  </outline>
</glyph>
